<?xml version="1.0" standalone="no"?>
<!DOCTYPE svg PUBLIC "-//W3C//DTD SVG 1.1//EN" "http://www.w3.org/Graphics/SVG/1.1/DTD/svg11.dtd" >
<svg xmlns="http://www.w3.org/2000/svg" xmlns:xlink="http://www.w3.org/1999/xlink" version="1.1">
<metadata>
Created by FontForge 20170731 at Mon Nov  5 14:04:15 2018
 By Aleksey,,,
Copyright (c) 2010-2018 by Benjamin Critton. All rights reserved.
</metadata>
<defs>
<font id="RaisonnePro-DemiBold" horiz-adv-x="600" >
  <font-face 
    font-family="Raisonne Pro DemiBold"
    font-weight="600"
    font-stretch="normal"
    units-per-em="1000"
    panose-1="2 11 7 3 4 2 2 4 1 3"
    ascent="738"
    descent="-262"
    x-height="500"
    cap-height="700"
    bbox="-696 -262 1296 997"
    underline-thickness="50"
    underline-position="-150"
    unicode-range="U+000D-FB02"
  />
<missing-glyph horiz-adv-x="713" 
d="M376 346.5q-37 20.5 -58 57.5q-21 38 -21 78q0 41 19.5 76.5t54.5 55.5t73 20q41 0 77.5 -21t57.5 -58t21 -78t-19.5 -76.5t-54.5 -55.5q-34 -19 -72 -19q-41 0 -78 20.5zM492 403q20 12 30 31t10 41q0 25 -12 46t-33 33t-44 12q-20 0 -39 -10t-29 -29t-10 -42
q0 -27 12 -47q13 -21 33.5 -33t43.5 -12q21 0 38 10zM30 410l50 29l163 -96l-82 142l58 34l150 -259l-50 -29l-156 84l76 -131l-59 -34zM190 121l464 268l29 -50l-464 -268z" />
    <glyph glyph-name="f_f" unicode="ff" horiz-adv-x="713" 
d="M102 396h-88v104h88v66q0 66 42 103t103 37q44 0 74 -12.5t50 -40.5l-73 -74q-7 10 -16.5 16.5t-26.5 6.5q-21 0 -32 -13t-11 -30v-59h210v66q0 66 42 103t103 37q44 0 74 -12.5t50 -40.5l-73 -74q-7 10 -16.5 16.5t-26.5 6.5q-21 0 -32 -13t-11 -30v-59h138v-104h-138
v-396h-110v396h-210v-396h-110v396z" />
    <glyph glyph-name="f_f_i" unicode="ffi" horiz-adv-x="912" 
d="M102 396h-88v104h88v66q0 66 42 103t103 37q44 0 74 -12.5t50 -40.5l-73 -74q-7 10 -16.5 16.5t-26.5 6.5q-21 0 -32 -13t-11 -30v-59h210v66q0 66 42 103t103 37q44 0 74 -12.5t50 -40.5l-73 -74q-7 10 -16.5 16.5t-26.5 6.5q-21 0 -32 -13t-11 -30v-59h320v-500h-110
v396h-210v-396h-110v396h-210v-396h-110v396zM744.5 578q-21.5 22 -21.5 53t21.5 53t52.5 22t52.5 -22t21.5 -53t-21.5 -53t-52.5 -22t-52.5 22z" />
    <glyph glyph-name="f_f_l" unicode="ffl" horiz-adv-x="908" 
d="M114 396h-100v104h100v69q0 65 30.5 109t79.5 65t104 21q43 0 83.5 -14.5t69.5 -42.5q31 28 72.5 42.5t86.5 14.5q52 0 100 -21.5t78 -65.5t30 -108v-569h-110v567q0 39 -25.5 66t-72.5 27q-50 0 -77 -27t-27 -66v-67h120v-104h-120v-396h-110v396h-202v-396h-110v396z
M426 500v67q0 39 -25.5 66t-72.5 27q-50 0 -77 -27t-27 -66v-67h202z" />
    <glyph glyph-name="f_i" unicode="fi" horiz-adv-x="592" 
d="M102 396h-88v104h88v66q0 66 42 103t103 37q44 0 74 -12.5t50 -40.5l-73 -74q-7 10 -16.5 16.5t-26.5 6.5q-21 0 -32 -13t-11 -30v-59h320v-500h-110v396h-210v-396h-110v396zM424.5 578q-21.5 22 -21.5 53t21.5 53t52.5 22t52.5 -22t21.5 -53t-21.5 -53t-52.5 -22
t-52.5 22z" />
    <glyph glyph-name="f_l" unicode="fl" horiz-adv-x="596" 
d="M114 396h-100v104h100v69q0 65 30.5 109t79.5 65t104 21q52 0 100 -21.5t78 -65.5t30 -108v-569h-110v567q0 39 -25.5 66t-72.5 27q-50 0 -77 -27t-27 -66v-67h120v-104h-120v-396h-110v396z" />
    <glyph glyph-name=".notdef" horiz-adv-x="713" 
d="M376 346.5q-37 20.5 -58 57.5q-21 38 -21 78q0 41 19.5 76.5t54.5 55.5t73 20q41 0 77.5 -21t57.5 -58t21 -78t-19.5 -76.5t-54.5 -55.5q-34 -19 -72 -19q-41 0 -78 20.5zM492 403q20 12 30 31t10 41q0 25 -12 46t-33 33t-44 12q-20 0 -39 -10t-29 -29t-10 -42
q0 -27 12 -47q13 -21 33.5 -33t43.5 -12q21 0 38 10zM30 410l50 29l163 -96l-82 142l58 34l150 -259l-50 -29l-156 84l76 -131l-59 -34zM190 121l464 268l29 -50l-464 -268z" />
    <glyph glyph-name=".null" horiz-adv-x="0" 
 />
    <glyph glyph-name="nonmarkingreturn" unicode="&#xd;" horiz-adv-x="0" 
 />
    <glyph glyph-name="space" unicode=" " horiz-adv-x="240" 
 />
    <glyph glyph-name="exclam" unicode="!" horiz-adv-x="232" 
d="M60 700l112 12v-504h-112v492zM63.5 16q-21.5 22 -21.5 53t21.5 53t52.5 22t52.5 -22t21.5 -53t-21.5 -53t-52.5 -22t-52.5 22z" />
    <glyph glyph-name="quotedbl" unicode="&#x22;" horiz-adv-x="386" 
d="M60 700l106 12v-225h-106v213zM220 700l106 12v-225h-106v213z" />
    <glyph glyph-name="numbersign" unicode="#" horiz-adv-x="800" 
d="M250 200h-200v100h200v100h-200v100h200v200l100 12v-212h100v200l100 12v-212h200v-100h-200v-100h200v-100h-200v-200h-100v200h-100v-200h-100v200zM450 300v100h-100v-100h100z" />
    <glyph glyph-name="dollar" unicode="$" horiz-adv-x="526" 
d="M215 -1q-78 16 -127.5 77.5t-49.5 142.5h112q0 -51 30.5 -85t82.5 -34t82.5 33t30.5 86q0 39 -16 62t-41 34.5t-72 25.5q-13 5 -28.5 10t-32.5 11q-50 19 -80 60.5t-30 97.5q0 67 37 116t97 64v100h100v-100q76 -16 116 -84l-75 -75q-12 28 -36 43.5t-52 15.5
q-34 0 -55.5 -21t-21.5 -53q0 -25 12.5 -40t33 -24.5t61.5 -23.5q21 -6 52 -18q69 -26 106 -73.5t37 -124.5q0 -83 -48.5 -143.5t-124.5 -78.5v-100h-100v99z" />
    <glyph glyph-name="percent" unicode="%" horiz-adv-x="936" 
d="M240 -61l365 861l91 -39l-365 -861zM127.5 367.5q-41.5 23.5 -64.5 65t-23 92.5t23 92.5t64.5 65t93.5 23.5t93.5 -23.5t64.5 -65t23 -92.5t-23 -92.5t-64.5 -65t-93.5 -23.5t-93.5 23.5zM279.5 465q22.5 23 22.5 60t-22.5 60t-58.5 23t-58.5 -23t-22.5 -60t22.5 -60
t58.5 -23t58.5 23zM621.5 17.5q-41.5 23.5 -64.5 65t-23 92.5t23 92.5t64.5 65t93.5 23.5t93.5 -23.5t64.5 -65t23 -92.5t-23 -92.5t-64.5 -65t-93.5 -23.5t-93.5 23.5zM773.5 115q22.5 23 22.5 60t-22.5 60t-58.5 23t-58.5 -23t-22.5 -60t22.5 -60t58.5 -23t58.5 23z" />
    <glyph glyph-name="ampersand" unicode="&#x26;" horiz-adv-x="599" 
d="M577 442v-100h-65v-123q0 -65 -31 -116.5t-84 -80t-116 -28.5q-66 0 -120 30t-84.5 82t-30.5 113q0 56 29 104.5t75 76.5q-63 53 -63 128q0 50 24 90.5t66.5 64t95.5 23.5q57 0 101 -29l-43 -99q-26 22 -58 22q-36 0 -57 -22t-21 -56t23.5 -57t59.5 -23h122v90h112v-90
h65zM400 342h-123q-52 0 -85.5 -35t-33.5 -88q0 -51 34 -85t89 -34q54 0 86.5 32.5t32.5 86.5v123z" />
    <glyph glyph-name="quotesingle" unicode="'" horiz-adv-x="226" 
d="M60 700l106 12v-225h-106v213z" />
    <glyph glyph-name="parenleft" unicode="(" horiz-adv-x="439" 
d="M196.5 -30.5q-71.5 75.5 -111 173.5t-39.5 207t39.5 207t111 173.5t163.5 119.5l53 -95q-116 -56 -185.5 -162.5t-69.5 -242.5t69.5 -242.5t185.5 -162.5l-53 -95q-92 44 -163.5 119.5z" />
    <glyph glyph-name="parenright" unicode=")" horiz-adv-x="439" 
d="M26 -55q116 56 185.5 162.5t69.5 242.5t-69.5 242.5t-185.5 162.5l53 95q92 -44 163.5 -119.5t111 -173.5t39.5 -207t-39.5 -207t-111 -173.5t-163.5 -119.5z" />
    <glyph glyph-name="asterisk" unicode="*" horiz-adv-x="390" 
d="M161 490l-80 -45l-33 60l78 45l-78 45l33 60l80 -46v91h68v-91l80 46l33 -60l-78 -45l78 -45l-33 -60l-80 45v-90h-68v90z" />
    <glyph glyph-name="plus" unicode="+" horiz-adv-x="556" 
d="M224 280h-174v100h174v178h108v-178h174v-100h-174v-178h-108v178z" />
    <glyph glyph-name="comma" unicode="," horiz-adv-x="272" 
d="M-8 -89l126 213h120l-154 -266z" />
    <glyph glyph-name="hyphen" unicode="-" horiz-adv-x="443" 
d="M50 380h343v-100h-343v100z" />
    <glyph glyph-name="period" unicode="." horiz-adv-x="232" 
d="M63.5 16q-21.5 22 -21.5 53t21.5 53t52.5 22t52.5 -22t21.5 -53t-21.5 -53t-52.5 -22t-52.5 22z" />
    <glyph glyph-name="slash" unicode="/" horiz-adv-x="476" 
d="M10 -61l365 861l91 -39l-365 -861z" />
    <glyph glyph-name="zero" unicode="0" horiz-adv-x="784" 
d="M216 41.5q-79 47.5 -124.5 129.5t-45.5 179t45.5 179t124.5 129.5t176 47.5t176 -47.5t124.5 -129.5t45.5 -179t-45.5 -179t-124.5 -129.5t-176 -47.5t-176 47.5zM512 133q53 33 82.5 90.5t29.5 126.5t-29.5 126.5t-82.5 90.5t-120 33t-120 -33t-82.5 -90.5t-29.5 -126.5
t29.5 -126.5t82.5 -90.5t120 -33t120 33z" />
    <glyph glyph-name="one" unicode="1" horiz-adv-x="240" 
d="M64 694l112 12v-706h-112v694z" />
    <glyph glyph-name="two" unicode="2" horiz-adv-x="564" 
d="M54 130q0 160 155 220l42 15q46 15 73.5 28.5t46.5 37.5t19 63q0 48 -29 77t-81 29q-48 0 -81 -27t-50 -73l-78 73q27 60 81.5 96.5t124.5 36.5q106 0 165.5 -58t59.5 -153q0 -161 -175 -219q-53 -17 -84.5 -32t-54 -44t-22.5 -75v-19h336v-106h-448v130z" />
    <glyph glyph-name="three" unicode="3" horiz-adv-x="535" 
d="M145 24q-51 30 -80 81.5t-29 113.5h108q0 -51 32 -85t85 -34t84.5 32t31.5 87q0 57 -31.5 88t-89.5 31h-40v106h39q37 0 60 21t23 60q0 35 -21.5 55t-55.5 20q-60 0 -92 -66l-75 67q24 45 69 75t98 30q85 0 135 -47t50 -128q0 -38 -15.5 -71t-43.5 -59q102 -63 102 -182
q0 -68 -30 -119t-82 -78.5t-116 -27.5q-65 0 -116 30z" />
    <glyph glyph-name="four" unicode="4" horiz-adv-x="575" 
d="M321 247h-257v447l112 12v-353h145v259h112v-259h94v-106h-94v-247h-112v247z" />
    <glyph glyph-name="five" unicode="5" horiz-adv-x="530" 
d="M149.5 24.5q-51.5 30.5 -80.5 82t-29 112.5h112q0 -52 33 -85.5t82 -33.5q51 0 81 32.5t30 86.5t-29 86.5t-80 32.5q-45 0 -77 -30h-108v392h364v-106h-256v-175q18 11 43 18t50 7q58 0 104.5 -27t73.5 -78t27 -120q0 -64 -29.5 -115.5t-80.5 -80.5t-113 -29
q-66 0 -117.5 30.5z" />
    <glyph glyph-name="six" unicode="6" horiz-adv-x="530" 
d="M149.5 22.5q-51.5 28.5 -80.5 80t-29 116.5q0 54 33 118l192 363h124l-138 -261q15 3 28 3q58 0 106 -26.5t76.5 -77t28.5 -119.5q0 -65 -29 -116.5t-80.5 -80t-115.5 -28.5t-115.5 28.5zM346.5 133.5q31.5 33.5 31.5 85.5t-31.5 84.5t-81.5 32.5t-81.5 -32.5
t-31.5 -84.5t31.5 -85.5t81.5 -33.5t81.5 33.5z" />
    <glyph glyph-name="seven" unicode="7" horiz-adv-x="527" 
d="M212 300h-69v100h122l103 194h-332v106h455v-94l-108 -206h62v-100h-115l-157 -300h-119z" />
    <glyph glyph-name="eight" unicode="8" horiz-adv-x="546" 
d="M156.5 24q-51.5 30 -81 81.5t-29.5 113.5q0 56 25.5 102t71.5 77q-55 50 -55 124q0 52 23.5 94t66 66t95.5 24t95.5 -24t66 -66t23.5 -94q0 -74 -55 -124q46 -31 71.5 -77t25.5 -102q0 -62 -29.5 -113.5t-81 -81.5t-116.5 -30t-116.5 30zM328.5 465.5
q21.5 21.5 21.5 56.5t-21.5 56.5t-55.5 21.5t-55.5 -21.5t-21.5 -56.5t21.5 -56.5t55.5 -21.5t55.5 21.5zM356 132.5q32 32.5 32 86.5t-32 86.5t-83 32.5t-83 -32.5t-32 -86.5t32 -86.5t83 -32.5t83 32.5z" />
    <glyph glyph-name="nine" unicode="9" horiz-adv-x="560" 
d="M384 302q-21 -23 -53.5 -34.5t-69.5 -11.5q-64 0 -114.5 28.5t-78.5 80t-28 116.5t28 116.5t78.5 80t114.5 28.5q40 0 71.5 -12.5t51.5 -34.5v35l112 12v-706h-112v302zM351 394q33 34 33 87t-33 87t-84 34t-83 -34t-32 -87t32 -87t83 -34t84 34z" />
    <glyph glyph-name="colon" unicode=":" horiz-adv-x="232" 
d="M63.5 297q-21.5 22 -21.5 53t21.5 53t52.5 22t52.5 -22t21.5 -53t-21.5 -53t-52.5 -22t-52.5 22zM63.5 16q-21.5 22 -21.5 53t21.5 53t52.5 22t52.5 -22t21.5 -53t-21.5 -53t-52.5 -22t-52.5 22z" />
    <glyph glyph-name="semicolon" unicode=";" horiz-adv-x="288" 
d="M119.5 297q-21.5 22 -21.5 53t21.5 53t52.5 22t52.5 -22t21.5 -53t-21.5 -53t-52.5 -22t-52.5 22zM-8 -89l126 213h120l-154 -266z" />
    <glyph glyph-name="less" unicode="&#x3c;" horiz-adv-x="385" 
d="M42 329l226 226l71 -70l-158 -156l158 -156l-71 -70z" />
    <glyph glyph-name="equal" unicode="=" horiz-adv-x="443" 
d="M50 460h343v-100h-343v100zM50 300h343v-100h-343v100z" />
    <glyph glyph-name="greater" unicode="&#x3e;" horiz-adv-x="385" 
d="M46 173l158 156l-158 156l71 70l226 -226l-226 -226z" />
    <glyph glyph-name="question" unicode="?" horiz-adv-x="520" 
d="M209 318q22 44 65 75q35 25 51 38t27 32t11 44q0 40 -29 66.5t-80 26.5q-93 0 -130 -100l-92 52q28 72 87.5 113t137.5 41q68 0 117 -27t74.5 -72t25.5 -99q0 -63 -25.5 -99t-73.5 -68q-42 -28 -59 -58t-17 -75h-112q0 66 22 110zM190.5 16q-21.5 22 -21.5 53t21.5 53
t52.5 22t52.5 -22t21.5 -53t-21.5 -53t-52.5 -22t-52.5 22z" />
    <glyph glyph-name="at" unicode="@" horiz-adv-x="770" 
d="M214.5 40.5q-79.5 46.5 -124 127.5t-44.5 182q0 96 44 177.5t122.5 130t176.5 48.5q101 0 177 -42t117 -114.5t41 -162.5q0 -59 -19.5 -102.5t-53.5 -66t-75 -22.5q-34 0 -57.5 12.5t-40.5 37.5q-21 -25 -44.5 -37.5t-61.5 -12.5q-42 0 -76.5 20t-55 55t-20.5 79t19 79
t52 54.5t73 19.5q23 0 42 -7t30 -17v21h96v-146q0 -26 10.5 -43t31.5 -17q46 0 46 86q0 100 -58.5 164t-172.5 64q-69 0 -123.5 -35t-85 -94.5t-30.5 -128.5q0 -75 31 -134t87.5 -91.5t130.5 -32.5q91 0 155 56l64 -78q-37 -32 -87.5 -54t-135.5 -22q-101 0 -180.5 46.5z
M419.5 306q16.5 17 16.5 43t-16.5 43t-41.5 17t-41.5 -17t-16.5 -43t16.5 -43t41.5 -17t41.5 17z" />
    <glyph glyph-name="A" unicode="A" horiz-adv-x="662" 
d="M275 700h112l259 -700h-117l-42 115h-312l-42 -115h-117zM450 221l-119 329l-119 -329h238z" />
    <glyph glyph-name="B" unicode="B" horiz-adv-x="555" 
d="M64 700h228q86 0 136 -50t50 -131q0 -40 -19 -72.5t-46 -47.5q44 -22 76 -69.5t32 -107.5q0 -63 -30 -113.5t-81.5 -79.5t-112.5 -29h-233v700zM292 444q36 0 56 20t20 55t-20 55t-56 20h-116v-150h116zM292 106q54 0 85.5 32t31.5 84t-31.5 84t-85.5 32h-116v-232h116z
" />
    <glyph glyph-name="C" unicode="C" horiz-adv-x="776" 
d="M216 41.5q-79 47.5 -124.5 129.5t-45.5 179t45.5 179t124.5 129.5t176 47.5q82 0 149.5 -34t116.5 -94l-78 -78q-69 100 -188 100q-67 0 -120 -33t-82.5 -90.5t-29.5 -126.5t29.5 -126.5t82.5 -90.5t120 -33t120 32.5t82.5 89.5t29.5 128h114q0 -97 -45.5 -179
t-124.5 -129.5t-176 -47.5t-176 47.5z" />
    <glyph glyph-name="D" unicode="D" horiz-adv-x="660" 
d="M64 700h205q100 0 178.5 -42.5t122.5 -122t44 -185.5t-44 -185.5t-122.5 -122t-178.5 -42.5h-205v700zM272 106q64 0 116 28.5t82 84t30 131.5t-30 131.5t-82 84t-116 28.5h-96v-488h96z" />
    <glyph glyph-name="E" unicode="E" horiz-adv-x="555" 
d="M64 700h439v-106h-327v-188h211v-106h-211v-194h333v-106h-445v700z" />
    <glyph glyph-name="F" unicode="F" horiz-adv-x="545" 
d="M64 700h445v-106h-333v-188h191v-106h-191v-300h-112v700z" />
    <glyph glyph-name="G" unicode="G" horiz-adv-x="787" 
d="M216 41.5q-79 47.5 -124.5 129.5t-45.5 179t45.5 179t124.5 129.5t176 47.5q82 0 149.5 -34t116.5 -94l-78 -78q-69 100 -188 100q-67 0 -120 -33t-82.5 -90.5t-29.5 -126.5t29.5 -126.5t82.5 -90.5t120 -33q90 0 150.5 54t76.5 146h-231v106h335v-406h-104v95
q-40 -50 -99.5 -75.5t-127.5 -25.5q-97 0 -176 47.5z" />
    <glyph glyph-name="H" unicode="H" horiz-adv-x="589" 
d="M64 700h112v-294h237v294h112v-700h-112v300h-237v-300h-112v700z" />
    <glyph glyph-name="I" unicode="I" horiz-adv-x="408" 
d="M42 106h106v488h-106v106h324v-106h-106v-488h106v-106h-324v106z" />
    <glyph glyph-name="J" unicode="J" horiz-adv-x="548" 
d="M144 23.5q-51 29.5 -80.5 81t-29.5 114.5h112q0 -51 31 -85t82 -34q55 0 84 35t29 99v466h112v-463q0 -71 -27 -126t-77.5 -86t-120.5 -31q-64 0 -115 29.5z" />
    <glyph glyph-name="K" unicode="K" horiz-adv-x="584" 
d="M64 700h112v-244l170 244h132l-168 -236l254 -464h-131l-196 361l-61 -85v-276h-112v700z" />
    <glyph glyph-name="L" unicode="L" horiz-adv-x="551" 
d="M64 700h112v-594h333v-106h-445v700z" />
    <glyph glyph-name="M" unicode="M" horiz-adv-x="820" 
d="M64 700h124l222 -540l222 540h124v-700h-112v444l-184 -444h-100l-184 444v-444h-112v700z" />
    <glyph glyph-name="N" unicode="N" horiz-adv-x="589" 
d="M64 700h124l225 -482v482h112v-700h-124l-225 482v-482h-112v700z" />
    <glyph glyph-name="O" unicode="O" horiz-adv-x="784" 
d="M216 41.5q-79 47.5 -124.5 129.5t-45.5 179t45.5 179t124.5 129.5t176 47.5t176 -47.5t124.5 -129.5t45.5 -179t-45.5 -179t-124.5 -129.5t-176 -47.5t-176 47.5zM512 133q53 33 82.5 90.5t29.5 126.5t-29.5 126.5t-82.5 90.5t-120 33t-120 -33t-82.5 -90.5t-29.5 -126.5
t29.5 -126.5t82.5 -90.5t120 -33t120 33z" />
    <glyph glyph-name="P" unicode="P" horiz-adv-x="559" 
d="M64 700h233q64 0 114.5 -28t79 -78.5t28.5 -115.5t-28.5 -115.5t-79 -78.5t-114.5 -28h-121v-256h-112v700zM291 362q52 0 83 32t31 84t-31 84t-83 32h-115v-232h115z" />
    <glyph glyph-name="Q" unicode="Q" horiz-adv-x="784" 
d="M716 222.5q-22 -60.5 -62 -108.5l51 -51l-75 -75l-57 57q-80 -51 -181 -51q-97 0 -176 47.5t-124.5 129.5t-45.5 179t45.5 179t124.5 129.5t176 47.5t176 -47.5t124.5 -129.5t45.5 -179q0 -67 -22 -127.5zM494 123l-102 102l75 75l108 -108q49 68 49 158
q0 69 -29.5 126.5t-82.5 90.5t-120 33t-120 -33t-82.5 -90.5t-29.5 -126.5t29.5 -126.5t82.5 -90.5t120 -33q56 0 102 23z" />
    <glyph glyph-name="R" unicode="R" horiz-adv-x="510" 
d="M64 700h205q56 0 102 -23.5t72.5 -69t26.5 -107.5q0 -80 -45 -131t-114 -65l159 -304h-128l-150 300h-16v-300h-112v700zM270 406q44 0 67 26t23 68t-23 68t-67 26h-94v-188h94z" />
    <glyph glyph-name="S" unicode="S" horiz-adv-x="526" 
d="M148.5 24q-51.5 30 -81 82t-29.5 113h112q0 -51 30.5 -85t82.5 -34t82.5 33t30.5 86q0 39 -16.5 61.5t-41.5 34.5t-72 27q-40 12 -60 20q-50 20 -80 61.5t-30 98.5q0 53 24 95t66 65.5t94 23.5q121 0 176 -104l-85 -61q-13 28 -36 43.5t-52 15.5q-34 0 -55.5 -20.5
t-21.5 -51.5q0 -26 12.5 -41.5t33.5 -25t62 -23.5q24 -7 51 -18q69 -26 106 -73.5t37 -124.5q0 -64 -30 -116t-81.5 -82t-113.5 -30q-63 0 -114.5 30z" />
    <glyph glyph-name="T" unicode="T" horiz-adv-x="510" 
d="M199 594h-159v106h430v-106h-159v-594h-112v594z" />
    <glyph glyph-name="U" unicode="U" horiz-adv-x="584" 
d="M175 23q-52 29 -81.5 82t-29.5 120v475h112v-481q0 -54 31.5 -86.5t84.5 -32.5t84.5 32.5t31.5 86.5v481h112v-475q0 -67 -29.5 -120t-81.5 -82t-117 -29t-117 29z" />
    <glyph glyph-name="V" unicode="V" horiz-adv-x="660" 
d="M14 700h118l198 -547l198 547h118l-260 -700h-112z" />
    <glyph glyph-name="W" unicode="W" horiz-adv-x="892" 
d="M14 700h118l198 -550l61 178l-128 372h112l71 -213l71 213h112l-128 -372l61 -178l198 550h118l-260 -700h-112l-60 173l-60 -173h-112z" />
    <glyph glyph-name="X" unicode="X" horiz-adv-x="610" 
d="M246 428l-147 272h126l80 -157l80 157h126l-147 -272l232 -428h-126l-165 314l-165 -314h-126z" />
    <glyph glyph-name="Y" unicode="Y" horiz-adv-x="522" 
d="M205 300l-191 400h118l129 -286l129 286h118l-191 -400v-300h-112v300z" />
    <glyph glyph-name="Z" unicode="Z" horiz-adv-x="617" 
d="M36 94l362 500h-323v106h461v-94l-362 -500h407v-106h-545v94z" />
    <glyph glyph-name="bracketleft" unicode="[" horiz-adv-x="334" 
d="M64 800h206v-94h-106v-712h106v-94h-206v900z" />
    <glyph glyph-name="backslash" unicode="\" horiz-adv-x="476" 
d="M10 761l91 39l365 -861l-91 -39z" />
    <glyph glyph-name="bracketright" unicode="]" horiz-adv-x="334" 
d="M64 -6h106v712h-106v94h206v-900h-206v94z" />
    <glyph glyph-name="asciicircum" unicode="^" horiz-adv-x="594" 
d="M17 471l280 279l280 -279l-70 -71l-210 211l-210 -211z" />
    <glyph glyph-name="underscore" unicode="_" horiz-adv-x="648" 
d="M50 -6h548v-100h-548v100z" />
    <glyph glyph-name="grave" unicode="`" horiz-adv-x="330" 
d="M30 653l44 90l226 -106l-44 -90z" />
    <glyph glyph-name="a" unicode="a" horiz-adv-x="606" 
d="M163 27q-57 33 -90 91t-33 132t33 132t90 91t128 33q46 0 85.5 -17.5t57.5 -40.5v52h112v-500h-112v52q-18 -23 -57 -40.5t-86 -17.5q-71 0 -128 33zM397.5 141q40.5 41 40.5 109t-40.5 109t-102.5 41q-64 0 -105.5 -41t-41.5 -109t41.5 -109t105.5 -41q62 0 102.5 41z
" />
    <glyph glyph-name="b" unicode="b" horiz-adv-x="605" 
d="M234 10q-37 16 -64 42v-52h-110v700l110 12v-264q24 26 63 42t84 16q74 0 130 -31.5t87 -89.5t31 -135t-31 -135t-87 -89.5t-130 -31.5q-46 0 -83 16zM417 142.5q40 42.5 40 107.5t-40 107.5t-105 42.5q-64 0 -104 -42.5t-40 -107.5t40 -107.5t104 -42.5q65 0 105 42.5z
" />
    <glyph glyph-name="c" unicode="c" horiz-adv-x="591" 
d="M165 27.5q-58 33.5 -91.5 91.5t-33.5 131t33.5 131t91.5 91.5t131 33.5q109 0 183 -76l-81 -73q-42 45 -102 45q-64 0 -104 -42t-40 -110t40 -110t104 -42t104.5 42.5t40.5 109.5h110q0 -72 -33.5 -130.5t-91.5 -92t-130 -33.5q-73 0 -131 33.5z" />
    <glyph glyph-name="d" unicode="d" horiz-adv-x="605" 
d="M158 25.5q-56 31.5 -87 89.5t-31 135t31 135t87 89.5t130 31.5q45 0 84 -16t63 -42v252l110 12v-712h-110v52q-27 -26 -64 -42t-83 -16q-74 0 -130 31.5zM397 142.5q40 42.5 40 107.5t-40 107.5t-104 42.5q-65 0 -105 -42.5t-40 -107.5t40 -107.5t105 -42.5
q64 0 104 42.5z" />
    <glyph glyph-name="e" unicode="e" horiz-adv-x="588" 
d="M167 28.5q-59 34.5 -93 93t-34 128.5t34 128.5t92 93t128 34.5t128 -34.5t92 -93t34 -128.5q0 -20 -3 -38h-389q9 -48 48.5 -81t92.5 -33q39 0 68 12t45 36h131q-26 -68 -92.5 -110t-151.5 -42q-71 0 -130 34.5zM428 306q-11 44 -48 71t-86 27t-86 -27t-48 -71h268z" />
    <glyph glyph-name="f" unicode="f" horiz-adv-x="393" 
d="M102 396h-88v104h88v66q0 66 42 103t103 37q44 0 74 -12.5t50 -40.5l-73 -74q-7 10 -16.5 16.5t-26.5 6.5q-21 0 -32 -13t-11 -30v-59h138v-104h-138v-396h-110v396z" />
    <glyph glyph-name="g" unicode="g" horiz-adv-x="536" 
d="M108 -203.5q-63 52.5 -78 138.5h114q12 -40 41 -63.5t77 -23.5q55 0 88.5 35t33.5 92q0 56 -32.5 91t-85.5 35q-38 0 -68 -18.5t-45 -47.5l-80 79q21 28 49 43q-32 28 -49.5 65.5t-17.5 80.5q0 56 24.5 102.5t69 73.5t102.5 27q33 0 62 -10.5t45 -30.5v35h110v-197
q0 -44 -17 -81.5t-50 -64.5q45 -32 70 -79.5t25 -102.5q0 -68 -31 -120.5t-84.5 -81.5t-118.5 -29q-91 0 -154 52.5zM331 232q27 27 27 71t-27 71.5t-69 27.5t-69.5 -27t-27.5 -72q0 -44 27.5 -71t69.5 -27t69 27z" />
    <glyph glyph-name="h" unicode="h" horiz-adv-x="561" 
d="M60 700l110 12v-269q24 29 60.5 46t82.5 17q90 0 141 -53.5t51 -152.5v-300h-110v276q0 60 -27 93t-82 33q-53 0 -84.5 -35.5t-31.5 -90.5v-276h-110v700z" />
    <glyph glyph-name="i" unicode="i" horiz-adv-x="230" 
d="M62.5 578q-21.5 22 -21.5 53t21.5 53t52.5 22t52.5 -22t21.5 -53t-21.5 -53t-52.5 -22t-52.5 22zM60 500h110v-500h-110v500z" />
    <glyph glyph-name="j" unicode="j" horiz-adv-x="230" 
d="M62.5 578q-21.5 22 -21.5 53t21.5 53t52.5 22t52.5 -22t21.5 -53t-21.5 -53t-52.5 -22t-52.5 22zM60 500h110v-750l-110 -12v762z" />
    <glyph glyph-name="k" unicode="k" horiz-adv-x="521" 
d="M60 700l110 12v-381l114 169h126l-105 -150l208 -350h-125l-151 255l-67 -97v-158h-110v700z" />
    <glyph glyph-name="l" unicode="l" horiz-adv-x="230" 
d="M60 700l110 12v-712h-110v700z" />
    <glyph glyph-name="m" unicode="m" horiz-adv-x="802" 
d="M60 500h110v-57q21 29 55.5 46t74.5 17q89 0 131 -69q32 34 66.5 51.5t84.5 17.5q79 0 121.5 -44t42.5 -134v-328h-110v300q0 49 -22.5 75.5t-66.5 26.5q-39 0 -64 -27t-25 -75v-300h-110v300q0 49 -23 75.5t-66 26.5q-39 0 -64 -27t-25 -75v-300h-110v500z" />
    <glyph glyph-name="n" unicode="n" horiz-adv-x="555" 
d="M60 500h110v-57q20 26 55 44.5t82 18.5q93 0 142.5 -53t49.5 -153v-300h-110v276q0 65 -26.5 95.5t-78.5 30.5q-55 0 -84.5 -34.5t-29.5 -91.5v-276h-110v500z" />
    <glyph glyph-name="o" unicode="o" horiz-adv-x="592" 
d="M164.5 27.5q-58.5 33.5 -91.5 92t-33 130.5t33 130.5t91.5 92t131.5 33.5t131.5 -33.5t91.5 -92t33 -130.5t-33 -130.5t-91.5 -92t-131.5 -33.5t-131.5 33.5zM400 142q40 42 40 108t-40 108t-104 42t-104 -42t-40 -108t40 -108t104 -42t104 42z" />
    <glyph glyph-name="p" unicode="p" horiz-adv-x="605" 
d="M60 500h110v-52q27 26 64 42t83 16q74 0 130 -31.5t87 -89.5t31 -135t-31 -135t-87 -89.5t-130 -31.5q-45 0 -84 16t-63 42v-302l-110 -12v762zM417 142.5q40 42.5 40 107.5t-40 107.5t-105 42.5q-64 0 -104 -42.5t-40 -107.5t40 -107.5t104 -42.5q65 0 105 42.5z" />
    <glyph glyph-name="q" unicode="q" horiz-adv-x="605" 
d="M435 52q-24 -26 -63 -42t-84 -16q-74 0 -130 31.5t-87 89.5t-31 135t31 135t87 89.5t130 31.5q46 0 83 -16t64 -42v52h110v-750l-110 -12v314zM397 142.5q40 42.5 40 107.5t-40 107.5t-104 42.5q-65 0 -105 -42.5t-40 -107.5t40 -107.5t105 -42.5q64 0 104 42.5z" />
    <glyph glyph-name="r" unicode="r" horiz-adv-x="355" 
d="M60 500h110v-66q14 32 44 52t73 20q28 0 44 -6v-116q-18 8 -46 8q-51 0 -83 -33t-32 -91v-268h-110v500z" />
    <glyph glyph-name="s" unicode="s" horiz-adv-x="413" 
d="M116 16.5q-39 22.5 -60.5 62t-21.5 86.5h105q0 -30 20 -48.5t46 -18.5q29 0 46.5 16.5t17.5 45.5q0 32 -19 45t-59 24q-5 1 -20 5q-44 12 -74 45t-30 89q0 39 18.5 70.5t50 49.5t69.5 18q75 0 119 -64l-68 -67q-6 15 -17.5 24t-26.5 9q-19 0 -29.5 -11t-10.5 -27
q0 -22 16.5 -32.5t53.5 -20.5q18 -4 40 -12q97 -36 97 -143q0 -75 -49 -121.5t-125 -46.5q-50 0 -89 22.5z" />
    <glyph glyph-name="t" unicode="t" horiz-adv-x="411" 
d="M129 396h-101v104h101v200l110 12v-212h150v-104h-150v-396h-110v396z" />
    <glyph glyph-name="u" unicode="u" horiz-adv-x="555" 
d="M105.5 47q-49.5 53 -49.5 153v300h110v-276q0 -65 27 -95.5t82 -30.5q53 0 81.5 34.5t28.5 91.5v276h110v-500h-110v57q-20 -26 -55 -44.5t-82 -18.5q-93 0 -142.5 53z" />
    <glyph glyph-name="v" unicode="v" horiz-adv-x="524" 
d="M24 500h118l120 -344l120 344h118l-184 -500h-108z" />
    <glyph glyph-name="w" unicode="w" horiz-adv-x="730" 
d="M24 500h112l132 -359l43 128l-87 231h108l33 -104l33 104h108l-87 -231l43 -128l132 359h112l-197 -500h-100l-44 131l-44 -131h-100z" />
    <glyph glyph-name="x" unicode="x" horiz-adv-x="528" 
d="M203 296l-130 204h128l63 -104l63 104h128l-130 -204l187 -296h-128l-120 196l-120 -196h-128z" />
    <glyph glyph-name="y" unicode="y" horiz-adv-x="524" 
d="M207 88l-183 412h114l124 -291l124 291h114l-183 -412v-338l-110 -12v350z" />
    <glyph glyph-name="z" unicode="z" horiz-adv-x="545" 
d="M44 94l290 302h-272v104h419v-94l-290 -302h308v-104h-455v94z" />
    <glyph glyph-name="braceleft" unicode="{" horiz-adv-x="326" 
d="M193 -75q-47 25 -73 72t-26 109v139q0 28 -14 43t-40 15v94q26 0 40 15t14 43v139q0 94 57 150t149 56v-94q-49 0 -77.5 -32t-28.5 -80v-144q0 -37 -11 -59t-35 -41q24 -19 35 -41t11 -59v-144q0 -48 28.5 -80t77.5 -32v-94q-60 0 -107 25z" />
    <glyph glyph-name="bar" unicode="|" horiz-adv-x="228" 
d="M64 800h100v-900h-100v900z" />
    <glyph glyph-name="braceright" unicode="}" horiz-adv-x="326" 
d="M26 -6q49 0 77.5 32t28.5 80v144q0 37 11 59t35 41q-24 19 -35 41t-11 59v144q0 48 -28.5 80t-77.5 32v94q92 0 149 -56t57 -150v-139q0 -28 14 -43t40 -15v-94q-26 0 -40 -15t-14 -43v-139q0 -62 -26 -109t-73 -72t-107 -25v94z" />
    <glyph glyph-name="asciitilde" unicode="~" horiz-adv-x="567" 
d="M50 286q0 61 32.5 97.5t86.5 36.5q25 0 51 -9.5t59 -31.5l47 -32q5 -4 19.5 -14t25 -14.5t19.5 -4.5q35 0 35 50v56h92v-72q0 -61 -32.5 -97.5t-86.5 -36.5q-25 0 -51 9.5t-59 31.5l-47 32q-5 4 -19.5 14t-25 14.5t-19.5 4.5q-35 0 -35 -50v-56h-92v72z" />
    <glyph glyph-name="uni00A0" unicode="&#xa0;" horiz-adv-x="240" 
 />
    <glyph glyph-name="exclamdown" unicode="&#xa1;" horiz-adv-x="232" 
d="M168.5 484q21.5 -22 21.5 -53t-21.5 -53t-52.5 -22t-52.5 22t-21.5 53t21.5 53t52.5 22t52.5 -22zM172 -200l-112 -12v504h112v-492z" />
    <glyph glyph-name="cent" unicode="&#xa2;" horiz-adv-x="591" 
d="M246 -1q-60 10 -107 45t-73 88.5t-26 117.5t26 117.5t73 88.5t107 45v99h100v-99q74 -12 133 -71l-81 -73q-42 45 -102 45q-64 0 -104 -42t-40 -110t40 -110t104 -42t104.5 42.5t40.5 109.5h110q0 -63 -26.5 -116.5t-73 -89t-105.5 -45.5v-99h-100v99z" />
    <glyph glyph-name="sterling" unicode="&#xa3;" horiz-adv-x="570" 
d="M530 154q0 -66 -40.5 -110t-107.5 -44h-303v90q39 12 63 51.5t24 90.5q0 24 -7 68h-109v100h91q-17 87 -17 124q0 50 22 91.5t65 66t102 24.5q118 0 172 -104l-76 -68q-34 66 -96 66q-81 0 -81 -86q0 -38 18 -114h159v-100h-139q7 -40 7 -65q0 -87 -56 -135h155
q54 0 54 54h100z" />
    <glyph glyph-name="currency" unicode="&#xa4;" horiz-adv-x="686" 
d="M50 137l86 87q-35 62 -35 128t35 128l-86 87l78 78l87 -87q26 17 59.5 26.5t68.5 9.5t68.5 -9.5t59.5 -26.5l87 87l78 -78l-86 -87q35 -62 35 -128t-35 -128l86 -87l-78 -78l-87 87q-53 -36 -128 -36t-128 36l-87 -87zM436.5 254.5q36.5 38.5 36.5 97.5t-36.5 97.5
t-93.5 38.5t-93.5 -38.5t-36.5 -97.5t36.5 -97.5t93.5 -38.5t93.5 38.5z" />
    <glyph glyph-name="yen" unicode="&#xa5;" horiz-adv-x="504" 
d="M196 170h-167v100h166v40h-166v100h118l-133 290h118l120 -279l120 279h118l-133 -290h118v-100h-166v-40h166v-100h-167v-170h-112v170z" />
    <glyph glyph-name="brokenbar" unicode="&#xa6;" horiz-adv-x="228" 
d="M64 800h100v-394h-100v394zM64 294h100v-394h-100v394z" />
    <glyph glyph-name="section" unicode="&#xa7;" horiz-adv-x="526" 
d="M147.5 -224.5q-51.5 31.5 -80.5 84.5t-29 115h112q0 -52 30 -88.5t83 -36.5t83 34t30 91q0 40 -16.5 63t-41.5 35t-73 27q-47 16 -56 19q-50 19 -80 60t-30 97q0 38 14 69.5t39 53.5q-24 22 -39.5 54.5t-15.5 70.5q0 53 25 94.5t67.5 64.5t93.5 23q121 0 176 -104
l-85 -61q-13 28 -36 43.5t-52 15.5q-34 0 -55.5 -20t-21.5 -52q0 -26 13 -42t34 -25.5t64 -23.5l48 -17q138 -50 138 -198q0 -36 -9.5 -67.5t-23.5 -55.5q35 -51 35 -121t-29 -123t-80 -82t-116 -29q-64 0 -115.5 31.5zM378 221q0 46 -23 69.5t-68 39.5q-47 16 -59 19
q-18 -9 -28.5 -27t-10.5 -40q0 -25 13 -40.5t34 -25t63 -23.5l49 -17l18 -8q12 27 12 53z" />
    <glyph glyph-name="dieresis" unicode="&#xa8;" horiz-adv-x="439" 
d="M51.5 578q-21.5 22 -21.5 53t21.5 53t52.5 22t52.5 -22t21.5 -53t-21.5 -53t-52.5 -22t-52.5 22zM282.5 578q-21.5 22 -21.5 53t21.5 53t52.5 22t52.5 -22t21.5 -53t-21.5 -53t-52.5 -22t-52.5 22z" />
    <glyph glyph-name="copyright" unicode="&#xa9;" horiz-adv-x="784" 
d="M215 41.5q-79 47.5 -124 129t-45 179.5t45 179.5t124 129t177 47.5t177 -47.5t124 -129t45 -179.5t-45 -179.5t-124 -129t-177 -47.5t-177 47.5zM530 102q62 38 97.5 103.5t35.5 144.5t-35.5 144.5t-97.5 103.5t-138 38t-138 -38t-97.5 -103.5t-35.5 -144.5t35.5 -144.5
t97.5 -103.5t138 -38t138 38zM278 147q-51 31 -80 84.5t-29 118.5t29 118.5t80 84.5t116 31q104 0 171 -85l-51 -52q-21 31 -52 49t-68 18q-71 0 -110.5 -46t-39.5 -118t39.5 -118t110.5 -46q56 0 97.5 37.5t50.5 93.5h75q-7 -56 -38.5 -102t-79.5 -72.5t-105 -26.5
q-65 0 -116 31z" />
    <glyph glyph-name="ordfeminine" unicode="&#xaa;" horiz-adv-x="384" 
d="M82 439q-42 43 -42 111t42.5 112t108.5 44q29 0 52 -11.5t34 -25.5v31h67v-300h-67v31q-13 -15 -35 -25t-51 -10q-67 0 -109 43zM254 486q24 26 24 64t-24 65t-61 27q-38 0 -63 -27t-25 -65q0 -37 25 -63.5t63 -26.5q37 0 61 26zM58 358h286v-58h-286v58z" />
    <glyph glyph-name="guillemotleft" unicode="&#xab;" horiz-adv-x="610" 
d="M26 300l249 250l71 -70l-180 -180l180 -180l-71 -70zM252 300l249 250l71 -70l-180 -180l180 -180l-71 -70z" />
    <glyph glyph-name="logicalnot" unicode="&#xac;" horiz-adv-x="537" 
d="M373 250h-313v100h417v-200h-104v100z" />
    <glyph glyph-name="uni00AD" unicode="&#xad;" horiz-adv-x="443" 
d="M50 380h343v-100h-343v100z" />
    <glyph glyph-name="registered" unicode="&#xae;" horiz-adv-x="784" 
d="M215 41.5q-79 47.5 -124 129t-45 179.5t45 179.5t124 129t177 47.5t177 -47.5t124 -129t45 -179.5t-45 -179.5t-124 -129t-177 -47.5t-177 47.5zM530 102q62 38 97.5 103.5t35.5 144.5t-35.5 144.5t-97.5 103.5t-138 38t-138 -38t-97.5 -103.5t-35.5 -144.5t35.5 -144.5
t97.5 -103.5t138 -38t138 38zM277 569h130q53 0 90 -35t37 -94q0 -50 -29 -83.5t-72 -42.5l101 -186h-81l-95 183h-6v-183h-75v441zM401 381q28 0 43 16t15 43t-15 43t-43 16h-49v-118h49z" />
    <glyph glyph-name="macron" unicode="&#xaf;" horiz-adv-x="375" 
d="M30 682h315v-100h-315v100z" />
    <glyph glyph-name="degree" unicode="&#xb0;" horiz-adv-x="338" 
d="M80 492q-36 36 -36 89t36 89t89 36t89 -36t36 -89t-36 -89t-89 -36t-89 36zM200 550.5q12 12.5 12 30.5t-12 30.5t-31 12.5t-31 -12.5t-12 -30.5t12 -30.5t31 -12.5t31 12.5z" />
    <glyph glyph-name="plusminus" unicode="&#xb1;" horiz-adv-x="555" 
d="M225 326h-175v100h175v178h105v-178h175v-100h-175v-178h-105v178zM50 100h455v-100h-455v100z" />
    <glyph glyph-name="uni00B2" unicode="&#xb2;" horiz-adv-x="306" 
d="M40 529q0 46 26 76t76 46q32 10 46 20.5t14 32.5q0 20 -11 30.5t-32 10.5q-44 0 -58 -56l-54 51q13 35 43 55.5t68 20.5q54 0 86 -30t32 -81q0 -85 -91 -115q-36 -12 -53.5 -24t-17.5 -39h162v-71h-236v73z" />
    <glyph glyph-name="uni00B3" unicode="&#xb3;" horiz-adv-x="304" 
d="M64.5 487.5q-35.5 37.5 -34.5 91.5h72q0 -26 13.5 -42t36.5 -16q22 0 34 12.5t12 35.5q0 47 -48 47h-30v71h29q14 0 22 9t8 23q0 12 -7 19t-20 7q-30 0 -43 -38l-53 46q12 28 38.5 45.5t57.5 17.5q45 0 72 -25.5t27 -68.5q0 -17 -6 -34.5t-17 -29.5q44 -33 44 -89
q0 -53 -33.5 -86t-86.5 -33q-52 0 -87.5 37.5z" />
    <glyph glyph-name="acute" unicode="&#xb4;" horiz-adv-x="330" 
d="M30 637l226 106l44 -90l-226 -106z" />
    <glyph glyph-name="uni00B5" unicode="&#xb5;" horiz-adv-x="559" 
d="M60 500h110v-276q0 -65 27 -95.5t82 -30.5q53 0 81.5 34.5t28.5 91.5v276h110v-500h-110v57q-20 -26 -55 -44.5t-82 -18.5q-45 0 -82 13v-257l-110 -12v762z" />
    <glyph glyph-name="paragraph" unicode="&#xb6;" horiz-adv-x="666" 
d="M266 256q-63 0 -114.5 28.5t-81.5 79.5t-30 114t30 114t81.5 79.5t114.5 28.5h350v-106h-76v-844l-112 -12v518h-50v-506l-112 -12v518zM266 594q-49 0 -81.5 -32t-32.5 -84t32.5 -84t81.5 -32v232zM428 362v232h-50v-232h50z" />
    <glyph glyph-name="periodcentered" unicode="&#xb7;" horiz-adv-x="232" 
d="M63.5 297q-21.5 22 -21.5 53t21.5 53t52.5 22t52.5 -22t21.5 -53t-21.5 -53t-52.5 -22t-52.5 22z" />
    <glyph glyph-name="cedilla" unicode="&#xb8;" horiz-adv-x="286" 
d="M63.5 -223q-33.5 33 -33.5 80h82q0 -14 9 -22.5t22 -8.5t21.5 9t8.5 22q0 17 -9.5 27t-27.5 10h-75l63 106h80l-23 -40q32 -7 53.5 -33t21.5 -70q0 -47 -33 -80t-80 -33q-46 0 -79.5 33z" />
    <glyph glyph-name="uni00B9" unicode="&#xb9;" horiz-adv-x="146" 
d="M36 811l74 7v-362h-74v355z" />
    <glyph glyph-name="ordmasculine" unicode="&#xba;" horiz-adv-x="388" 
d="M115 418.5q-35 20.5 -55 55.5t-20 78t20 78.5t55 55.5t79 20t79 -20t55 -55.5t20 -78.5t-20 -78t-55 -55.5t-79 -20.5t-79 20.5zM257 487.5q24 25.5 24 64.5q0 40 -24 65.5t-63 25.5t-63 -25.5t-24 -65.5q0 -39 24 -64.5t63 -25.5t63 25.5zM58 358h272v-58h-272v58z" />
    <glyph glyph-name="guillemotright" unicode="&#xbb;" horiz-adv-x="616" 
d="M31 120l180 180l-180 180l71 70l249 -250l-249 -250zM257 120l180 180l-180 180l71 70l249 -250l-249 -250z" />
    <glyph glyph-name="onequarter" unicode="&#xbc;" horiz-adv-x="871" 
d="M126 711l74 7v-362h-74v355zM36 46l660 660l52 -52l-660 -660zM720 119h-136v236l74 7v-172h62v125h74v-125h45v-71h-45v-119h-74v119z" />
    <glyph glyph-name="onehalf" unicode="&#xbd;" horiz-adv-x="858" 
d="M130 711l74 7v-362h-74v355zM40 46l660 660l52 -52l-660 -660zM592 73q0 46 26 76t76 46q32 10 46 20.5t14 32.5q0 20 -11 30.5t-32 10.5q-44 0 -58 -56l-54 51q13 35 43 55.5t68 20.5q54 0 86 -30t32 -81q0 -85 -91 -115q-36 -12 -53.5 -24t-17.5 -39h162v-71h-236v73z
" />
    <glyph glyph-name="threequarters" unicode="&#xbe;" horiz-adv-x="939" 
d="M64.5 387.5q-35.5 37.5 -34.5 91.5h72q0 -26 13.5 -42t36.5 -16q22 0 34 12.5t12 35.5q0 47 -48 47h-30v71h29q14 0 22 9t8 23q0 12 -7 19t-20 7q-30 0 -43 -38l-53 46q12 28 38.5 45.5t57.5 17.5q45 0 72 -25.5t27 -68.5q0 -17 -6 -34.5t-17 -29.5q44 -33 44 -89
q0 -53 -33.5 -86t-86.5 -33q-52 0 -87.5 37.5zM104 46l660 660l52 -52l-660 -660zM788 119h-136v236l74 7v-172h62v125h74v-125h45v-71h-45v-119h-74v119z" />
    <glyph glyph-name="questiondown" unicode="&#xbf;" horiz-adv-x="520" 
d="M329.5 484q21.5 -22 21.5 -53t-21.5 -53t-52.5 -22t-52.5 22t-21.5 53t21.5 53t52.5 22t52.5 -22zM311 182q-22 -44 -65 -75q-35 -25 -51 -38t-27 -32t-11 -44q0 -40 29 -66.5t80 -26.5q93 0 130 100l92 -52q-28 -72 -87.5 -113t-137.5 -41q-68 0 -117 27t-74.5 72
t-25.5 99q0 63 25.5 99t73.5 68q42 28 59 58t17 75h112q0 -66 -22 -110z" />
    <glyph glyph-name="Agrave" unicode="&#xc0;" horiz-adv-x="662" 
d="M275 700h112l259 -700h-117l-42 115h-312l-42 -115h-117zM450 221l-119 329l-119 -329h238zM136 853l44 90l226 -106l-44 -90z" />
    <glyph glyph-name="Aacute" unicode="&#xc1;" horiz-adv-x="662" 
d="M275 700h112l259 -700h-117l-42 115h-312l-42 -115h-117zM450 221l-119 329l-119 -329h238zM256 837l226 106l44 -90l-226 -106z" />
    <glyph glyph-name="Acircumflex" unicode="&#xc2;" horiz-adv-x="662" 
d="M275 700h112l259 -700h-117l-42 115h-312l-42 -115h-117zM450 221l-119 329l-119 -329h238zM148 802l183 183l183 -183l-66 -67l-117 117l-117 -117z" />
    <glyph glyph-name="Atilde" unicode="&#xc3;" horiz-adv-x="662" 
d="M275 700h112l259 -700h-117l-42 115h-312l-42 -115h-117zM450 221l-119 329l-119 -329h238zM152 800q0 58 27.5 89t72.5 31q23 0 43 -7.5t43 -26.5l15 -12q14 -12 22.5 -17.5t17.5 -5.5q12 0 18 7.5t6 20.5v41h92v-46q0 -58 -27.5 -89t-72.5 -31q-23 0 -43 7.5t-43 26.5
l-15 12q-14 12 -22.5 17.5t-17.5 5.5q-12 0 -18 -7.5t-6 -20.5v-41h-92v46z" />
    <glyph glyph-name="Adieresis" unicode="&#xc4;" horiz-adv-x="662" 
d="M275 700h112l259 -700h-117l-42 115h-312l-42 -115h-117zM450 221l-119 329l-119 -329h238zM162.5 798q-21.5 22 -21.5 53t21.5 53t52.5 22t52.5 -22t21.5 -53t-21.5 -53t-52.5 -22t-52.5 22zM393.5 798q-21.5 22 -21.5 53t21.5 53t52.5 22t52.5 -22t21.5 -53t-21.5 -53
t-52.5 -22t-52.5 22z" />
    <glyph glyph-name="Aring" unicode="&#xc5;" horiz-adv-x="662" 
d="M275 700h112l259 -700h-117l-42 115h-312l-42 -115h-117zM450 221l-119 329l-119 -329h238zM260 779q-29 29 -29 71t29 71t71 29t71 -29t29 -71t-29 -71t-71 -29t-71 29zM351 830q8 8 8 20t-8 20t-20 8t-20 -8t-8 -20t8 -20t20 -8t20 8z" />
    <glyph glyph-name="AE" unicode="&#xc6;" horiz-adv-x="828" 
d="M275 700h501v-106h-333v-188h165v-106h-165v-194h339v-106h-451v115h-156l-42 -115h-117zM331 221v329l-119 -329h119z" />
    <glyph glyph-name="Ccedilla" unicode="&#xc7;" horiz-adv-x="776" 
d="M699 182.5q-39 -77.5 -108.5 -127t-156.5 -59.5l-21 -36q32 -7 53.5 -33t21.5 -70q0 -47 -33 -80t-80 -33q-46 0 -79.5 33t-33.5 80h82q0 -14 9 -22.5t22 -8.5t21.5 9t8.5 22q0 17 -9.5 27t-27.5 10h-75l61 102q-88 9 -158.5 58.5t-110 127t-39.5 168.5q0 97 45.5 179
t124.5 129.5t176 47.5q82 0 149.5 -34t116.5 -94l-78 -78q-69 100 -188 100q-67 0 -120 -33t-82.5 -90.5t-29.5 -126.5t29.5 -126.5t82.5 -90.5t120 -33t120 32.5t82.5 89.5t29.5 128h114q0 -90 -39 -167.5z" />
    <glyph glyph-name="Egrave" unicode="&#xc8;" horiz-adv-x="555" 
d="M64 700h439v-106h-327v-188h211v-106h-211v-194h333v-106h-445v700zM94 853l44 90l226 -106l-44 -90z" />
    <glyph glyph-name="Eacute" unicode="&#xc9;" horiz-adv-x="555" 
d="M64 700h439v-106h-327v-188h211v-106h-211v-194h333v-106h-445v700zM214 837l226 106l44 -90l-226 -106z" />
    <glyph glyph-name="Ecircumflex" unicode="&#xca;" horiz-adv-x="555" 
d="M64 700h439v-106h-327v-188h211v-106h-211v-194h333v-106h-445v700zM106 802l183 183l183 -183l-66 -67l-117 117l-117 -117z" />
    <glyph glyph-name="Edieresis" unicode="&#xcb;" horiz-adv-x="555" 
d="M64 700h439v-106h-327v-188h211v-106h-211v-194h333v-106h-445v700zM120.5 798q-21.5 22 -21.5 53t21.5 53t52.5 22t52.5 -22t21.5 -53t-21.5 -53t-52.5 -22t-52.5 22zM351.5 798q-21.5 22 -21.5 53t21.5 53t52.5 22t52.5 -22t21.5 -53t-21.5 -53t-52.5 -22t-52.5 22z
" />
    <glyph glyph-name="Igrave" unicode="&#xcc;" horiz-adv-x="408" 
d="M42 106h106v488h-106v106h324v-106h-106v-488h106v-106h-324v106zM9 853l44 90l226 -106l-44 -90z" />
    <glyph glyph-name="Iacute" unicode="&#xcd;" horiz-adv-x="408" 
d="M42 106h106v488h-106v106h324v-106h-106v-488h106v-106h-324v106zM129 837l226 106l44 -90l-226 -106z" />
    <glyph glyph-name="Icircumflex" unicode="&#xce;" horiz-adv-x="408" 
d="M42 106h106v488h-106v106h324v-106h-106v-488h106v-106h-324v106zM21 802l183 183l183 -183l-66 -67l-117 117l-117 -117z" />
    <glyph glyph-name="Idieresis" unicode="&#xcf;" horiz-adv-x="408" 
d="M42 106h106v488h-106v106h324v-106h-106v-488h106v-106h-324v106zM35.5 798q-21.5 22 -21.5 53t21.5 53t52.5 22t52.5 -22t21.5 -53t-21.5 -53t-52.5 -22t-52.5 22zM266.5 798q-21.5 22 -21.5 53t21.5 53t52.5 22t52.5 -22t21.5 -53t-21.5 -53t-52.5 -22t-52.5 22z" />
    <glyph glyph-name="Eth" unicode="&#xd0;" horiz-adv-x="698" 
d="M102 300h-82v100h82v300h205q100 0 178.5 -42.5t122.5 -122t44 -185.5t-44 -185.5t-122.5 -122t-178.5 -42.5h-205v300zM310 106q64 0 116 28.5t82 84t30 131.5t-30 131.5t-82 84t-116 28.5h-96v-194h121v-100h-121v-194h96z" />
    <glyph glyph-name="Ntilde" unicode="&#xd1;" horiz-adv-x="589" 
d="M64 700h124l225 -482v482h112v-700h-124l-225 482v-482h-112v700zM116 800q0 58 27.5 89t72.5 31q23 0 43 -7.5t43 -26.5l15 -12q14 -12 22.5 -17.5t17.5 -5.5q12 0 18 7.5t6 20.5v41h92v-46q0 -58 -27.5 -89t-72.5 -31q-23 0 -43 7.5t-43 26.5l-15 12q-14 12 -22.5 17.5
t-17.5 5.5q-12 0 -18 -7.5t-6 -20.5v-41h-92v46z" />
    <glyph glyph-name="Ograve" unicode="&#xd2;" horiz-adv-x="784" 
d="M216 41.5q-79 47.5 -124.5 129.5t-45.5 179t45.5 179t124.5 129.5t176 47.5t176 -47.5t124.5 -129.5t45.5 -179t-45.5 -179t-124.5 -129.5t-176 -47.5t-176 47.5zM512 133q53 33 82.5 90.5t29.5 126.5t-29.5 126.5t-82.5 90.5t-120 33t-120 -33t-82.5 -90.5t-29.5 -126.5
t29.5 -126.5t82.5 -90.5t120 -33t120 33zM197 853l44 90l226 -106l-44 -90z" />
    <glyph glyph-name="Oacute" unicode="&#xd3;" horiz-adv-x="784" 
d="M216 41.5q-79 47.5 -124.5 129.5t-45.5 179t45.5 179t124.5 129.5t176 47.5t176 -47.5t124.5 -129.5t45.5 -179t-45.5 -179t-124.5 -129.5t-176 -47.5t-176 47.5zM512 133q53 33 82.5 90.5t29.5 126.5t-29.5 126.5t-82.5 90.5t-120 33t-120 -33t-82.5 -90.5t-29.5 -126.5
t29.5 -126.5t82.5 -90.5t120 -33t120 33zM317 837l226 106l44 -90l-226 -106z" />
    <glyph glyph-name="Ocircumflex" unicode="&#xd4;" horiz-adv-x="784" 
d="M216 41.5q-79 47.5 -124.5 129.5t-45.5 179t45.5 179t124.5 129.5t176 47.5t176 -47.5t124.5 -129.5t45.5 -179t-45.5 -179t-124.5 -129.5t-176 -47.5t-176 47.5zM512 133q53 33 82.5 90.5t29.5 126.5t-29.5 126.5t-82.5 90.5t-120 33t-120 -33t-82.5 -90.5t-29.5 -126.5
t29.5 -126.5t82.5 -90.5t120 -33t120 33zM209 802l183 183l183 -183l-66 -67l-117 117l-117 -117z" />
    <glyph glyph-name="Otilde" unicode="&#xd5;" horiz-adv-x="784" 
d="M216 41.5q-79 47.5 -124.5 129.5t-45.5 179t45.5 179t124.5 129.5t176 47.5t176 -47.5t124.5 -129.5t45.5 -179t-45.5 -179t-124.5 -129.5t-176 -47.5t-176 47.5zM512 133q53 33 82.5 90.5t29.5 126.5t-29.5 126.5t-82.5 90.5t-120 33t-120 -33t-82.5 -90.5t-29.5 -126.5
t29.5 -126.5t82.5 -90.5t120 -33t120 33zM213 800q0 58 27.5 89t72.5 31q23 0 43 -7.5t43 -26.5l15 -12q14 -12 22.5 -17.5t17.5 -5.5q12 0 18 7.5t6 20.5v41h92v-46q0 -58 -27.5 -89t-72.5 -31q-23 0 -43 7.5t-43 26.5l-15 12q-14 12 -22.5 17.5t-17.5 5.5q-12 0 -18 -7.5
t-6 -20.5v-41h-92v46z" />
    <glyph glyph-name="Odieresis" unicode="&#xd6;" horiz-adv-x="784" 
d="M216 41.5q-79 47.5 -124.5 129.5t-45.5 179t45.5 179t124.5 129.5t176 47.5t176 -47.5t124.5 -129.5t45.5 -179t-45.5 -179t-124.5 -129.5t-176 -47.5t-176 47.5zM512 133q53 33 82.5 90.5t29.5 126.5t-29.5 126.5t-82.5 90.5t-120 33t-120 -33t-82.5 -90.5t-29.5 -126.5
t29.5 -126.5t82.5 -90.5t120 -33t120 33zM223.5 798q-21.5 22 -21.5 53t21.5 53t52.5 22t52.5 -22t21.5 -53t-21.5 -53t-52.5 -22t-52.5 22zM454.5 798q-21.5 22 -21.5 53t21.5 53t52.5 22t52.5 -22t21.5 -53t-21.5 -53t-52.5 -22t-52.5 22z" />
    <glyph glyph-name="multiply" unicode="&#xd7;" horiz-adv-x="492" 
d="M50 203l125 126l-123 123l71 71l123 -123l123 123l71 -71l-123 -123l125 -126l-76 -76l-120 119l-120 -119z" />
    <glyph glyph-name="Oslash" unicode="&#xd8;" horiz-adv-x="784" 
d="M187 -6l22 51q-76 48 -119.5 128.5t-43.5 176.5q0 97 45.5 179t124.5 129.5t176 47.5q49 0 92 -12l22 51l91 -39l-22 -51q76 -48 119.5 -128.5t43.5 -176.5q0 -97 -45.5 -179t-124.5 -129.5t-176 -47.5q-48 0 -92 12l-22 -51zM442 595q-20 5 -50 5q-67 0 -120 -33
t-82.5 -90.5t-29.5 -126.5q0 -63 24 -116t68 -87zM512 133q53 33 82.5 90.5t29.5 126.5q0 63 -24 116t-68 87l-190 -448q20 -5 50 -5q67 0 120 33z" />
    <glyph glyph-name="Ugrave" unicode="&#xd9;" horiz-adv-x="584" 
d="M175 23q-52 29 -81.5 82t-29.5 120v475h112v-481q0 -54 31.5 -86.5t84.5 -32.5t84.5 32.5t31.5 86.5v481h112v-475q0 -67 -29.5 -120t-81.5 -82t-117 -29t-117 29zM97 853l44 90l226 -106l-44 -90z" />
    <glyph glyph-name="Uacute" unicode="&#xda;" horiz-adv-x="584" 
d="M175 23q-52 29 -81.5 82t-29.5 120v475h112v-481q0 -54 31.5 -86.5t84.5 -32.5t84.5 32.5t31.5 86.5v481h112v-475q0 -67 -29.5 -120t-81.5 -82t-117 -29t-117 29zM217 837l226 106l44 -90l-226 -106z" />
    <glyph glyph-name="Ucircumflex" unicode="&#xdb;" horiz-adv-x="584" 
d="M175 23q-52 29 -81.5 82t-29.5 120v475h112v-481q0 -54 31.5 -86.5t84.5 -32.5t84.5 32.5t31.5 86.5v481h112v-475q0 -67 -29.5 -120t-81.5 -82t-117 -29t-117 29zM109 802l183 183l183 -183l-66 -67l-117 117l-117 -117z" />
    <glyph glyph-name="Udieresis" unicode="&#xdc;" horiz-adv-x="584" 
d="M175 23q-52 29 -81.5 82t-29.5 120v475h112v-481q0 -54 31.5 -86.5t84.5 -32.5t84.5 32.5t31.5 86.5v481h112v-475q0 -67 -29.5 -120t-81.5 -82t-117 -29t-117 29zM123.5 798q-21.5 22 -21.5 53t21.5 53t52.5 22t52.5 -22t21.5 -53t-21.5 -53t-52.5 -22t-52.5 22z
M354.5 798q-21.5 22 -21.5 53t21.5 53t52.5 22t52.5 -22t21.5 -53t-21.5 -53t-52.5 -22t-52.5 22z" />
    <glyph glyph-name="Yacute" unicode="&#xdd;" horiz-adv-x="522" 
d="M205 300l-191 400h118l129 -286l129 286h118l-191 -400v-300h-112v300zM186 837l226 106l44 -90l-226 -106z" />
    <glyph glyph-name="Thorn" unicode="&#xde;" horiz-adv-x="559" 
d="M64 700h112v-128h117q67 0 118 -27t79.5 -77.5t28.5 -117.5t-28.5 -117.5t-79.5 -77.5t-118 -27h-117v-128h-112v700zM288 234q57 0 88 31t31 85t-31 85t-88 31h-112v-232h112z" />
    <glyph glyph-name="germandbls" unicode="&#xdf;" horiz-adv-x="514" 
d="M60 522q0 50 24 92.5t67 67t97 24.5q88 0 137 -51t49 -133q0 -40 -14.5 -69.5t-41.5 -53.5q43 -27 69.5 -73t26.5 -104q0 -106 -62 -164t-164 -58h-28v104h21q57 0 91 32.5t34 85.5t-34 85t-91 32h-21v104h28q34 0 56 21t22 58q0 38 -22 59t-56 21q-33 0 -55.5 -22
t-22.5 -58v-772l-110 -12v784z" />
    <glyph glyph-name="agrave" unicode="&#xe0;" horiz-adv-x="606" 
d="M163 27q-57 33 -90 91t-33 132t33 132t90 91t128 33q46 0 85.5 -17.5t57.5 -40.5v52h112v-500h-112v52q-18 -23 -57 -40.5t-86 -17.5q-71 0 -128 33zM397.5 141q40.5 41 40.5 109t-40.5 109t-102.5 41q-64 0 -105.5 -41t-41.5 -109t41.5 -109t105.5 -41q62 0 102.5 41z
M97 653l44 90l226 -106l-44 -90z" />
    <glyph glyph-name="aacute" unicode="&#xe1;" horiz-adv-x="606" 
d="M163 27q-57 33 -90 91t-33 132t33 132t90 91t128 33q46 0 85.5 -17.5t57.5 -40.5v52h112v-500h-112v52q-18 -23 -57 -40.5t-86 -17.5q-71 0 -128 33zM397.5 141q40.5 41 40.5 109t-40.5 109t-102.5 41q-64 0 -105.5 -41t-41.5 -109t41.5 -109t105.5 -41q62 0 102.5 41z
M217 637l226 106l44 -90l-226 -106z" />
    <glyph glyph-name="acircumflex" unicode="&#xe2;" horiz-adv-x="606" 
d="M163 27q-57 33 -90 91t-33 132t33 132t90 91t128 33q46 0 85.5 -17.5t57.5 -40.5v52h112v-500h-112v52q-18 -23 -57 -40.5t-86 -17.5q-71 0 -128 33zM397.5 141q40.5 41 40.5 109t-40.5 109t-102.5 41q-64 0 -105.5 -41t-41.5 -109t41.5 -109t105.5 -41q62 0 102.5 41z
M109 602l183 183l183 -183l-66 -67l-117 117l-117 -117z" />
    <glyph glyph-name="atilde" unicode="&#xe3;" horiz-adv-x="606" 
d="M163 27q-57 33 -90 91t-33 132t33 132t90 91t128 33q46 0 85.5 -17.5t57.5 -40.5v52h112v-500h-112v52q-18 -23 -57 -40.5t-86 -17.5q-71 0 -128 33zM397.5 141q40.5 41 40.5 109t-40.5 109t-102.5 41q-64 0 -105.5 -41t-41.5 -109t41.5 -109t105.5 -41q62 0 102.5 41z
M113 600q0 58 27.5 89t72.5 31q24 0 44 -7.5t42 -26.5l15 -12q14 -12 22.5 -17.5t17.5 -5.5q12 0 18 7.5t6 20.5v41h92v-46q0 -58 -27.5 -89t-72.5 -31q-24 0 -44 7.5t-42 26.5l-15 12q-14 12 -22.5 17.5t-17.5 5.5q-12 0 -18 -7.5t-6 -20.5v-41h-92v46z" />
    <glyph glyph-name="adieresis" unicode="&#xe4;" horiz-adv-x="606" 
d="M163 27q-57 33 -90 91t-33 132t33 132t90 91t128 33q46 0 85.5 -17.5t57.5 -40.5v52h112v-500h-112v52q-18 -23 -57 -40.5t-86 -17.5q-71 0 -128 33zM397.5 141q40.5 41 40.5 109t-40.5 109t-102.5 41q-64 0 -105.5 -41t-41.5 -109t41.5 -109t105.5 -41q62 0 102.5 41z
M123.5 578q-21.5 22 -21.5 53t21.5 53t52.5 22t52.5 -22t21.5 -53t-21.5 -53t-52.5 -22t-52.5 22zM354.5 578q-21.5 22 -21.5 53t21.5 53t52.5 22t52.5 -22t21.5 -53t-21.5 -53t-52.5 -22t-52.5 22z" />
    <glyph glyph-name="aring" unicode="&#xe5;" horiz-adv-x="606" 
d="M163 27q-57 33 -90 91t-33 132t33 132t90 91t128 33q46 0 85.5 -17.5t57.5 -40.5v52h112v-500h-112v52q-18 -23 -57 -40.5t-86 -17.5q-71 0 -128 33zM397.5 141q40.5 41 40.5 109t-40.5 109t-102.5 41q-64 0 -105.5 -41t-41.5 -109t41.5 -109t105.5 -41q62 0 102.5 41z
M221 579q-29 29 -29 71t29 71t71 29t71 -29t29 -71t-29 -71t-71 -29t-71 29zM312 630q8 8 8 20t-8 20t-20 8t-20 -8t-8 -20t8 -20t20 -8t20 8z" />
    <glyph glyph-name="ae" unicode="&#xe6;" horiz-adv-x="986" 
d="M163 27q-57 33 -90 91t-33 132t33 132t90 91t128 33q46 0 85.5 -17.5t57.5 -40.5v52h112v-40q65 46 146 46q70 0 128 -34.5t92 -93t34 -128.5q0 -20 -3 -38h-389q9 -48 48.5 -81t92.5 -33q39 0 68 12t45 36h131q-26 -68 -92.5 -110t-151.5 -42q-82 0 -149 46v-40h-112v52
q-18 -23 -57 -40.5t-86 -17.5q-71 0 -128 33zM826 306q-11 44 -48 71t-86 27t-86 -27t-48 -71h268zM397.5 141q40.5 41 40.5 109t-40.5 109t-102.5 41q-64 0 -105.5 -41t-41.5 -109t41.5 -109t105.5 -41q62 0 102.5 41z" />
    <glyph glyph-name="ccedilla" unicode="&#xe7;" horiz-adv-x="591" 
d="M524.5 132q-26.5 -54 -74.5 -89t-108 -45l-22 -38q32 -7 53.5 -33t21.5 -70q0 -47 -33 -80t-80 -33q-46 0 -79.5 33t-33.5 80h82q0 -14 9 -22.5t22 -8.5t21.5 9t8.5 22q0 17 -9.5 27t-27.5 10h-75l61 102q-64 8 -114.5 42.5t-78.5 89.5t-28 122q0 73 33.5 131t91.5 91.5
t131 33.5q109 0 183 -76l-81 -73q-42 45 -102 45q-64 0 -104 -42t-40 -110t40 -110t104 -42t104.5 42.5t40.5 109.5h110q0 -64 -26.5 -118z" />
    <glyph glyph-name="egrave" unicode="&#xe8;" horiz-adv-x="588" 
d="M167 28.5q-59 34.5 -93 93t-34 128.5t34 128.5t92 93t128 34.5t128 -34.5t92 -93t34 -128.5q0 -20 -3 -38h-389q9 -48 48.5 -81t92.5 -33q39 0 68 12t45 36h131q-26 -68 -92.5 -110t-151.5 -42q-71 0 -130 34.5zM428 306q-11 44 -48 71t-86 27t-86 -27t-48 -71h268z
M99 653l44 90l226 -106l-44 -90z" />
    <glyph glyph-name="eacute" unicode="&#xe9;" horiz-adv-x="588" 
d="M167 28.5q-59 34.5 -93 93t-34 128.5t34 128.5t92 93t128 34.5t128 -34.5t92 -93t34 -128.5q0 -20 -3 -38h-389q9 -48 48.5 -81t92.5 -33q39 0 68 12t45 36h131q-26 -68 -92.5 -110t-151.5 -42q-71 0 -130 34.5zM428 306q-11 44 -48 71t-86 27t-86 -27t-48 -71h268z
M219 637l226 106l44 -90l-226 -106z" />
    <glyph glyph-name="ecircumflex" unicode="&#xea;" horiz-adv-x="588" 
d="M167 28.5q-59 34.5 -93 93t-34 128.5t34 128.5t92 93t128 34.5t128 -34.5t92 -93t34 -128.5q0 -20 -3 -38h-389q9 -48 48.5 -81t92.5 -33q39 0 68 12t45 36h131q-26 -68 -92.5 -110t-151.5 -42q-71 0 -130 34.5zM428 306q-11 44 -48 71t-86 27t-86 -27t-48 -71h268z
M111 602l183 183l183 -183l-66 -67l-117 117l-117 -117z" />
    <glyph glyph-name="edieresis" unicode="&#xeb;" horiz-adv-x="588" 
d="M167 28.5q-59 34.5 -93 93t-34 128.5t34 128.5t92 93t128 34.5t128 -34.5t92 -93t34 -128.5q0 -20 -3 -38h-389q9 -48 48.5 -81t92.5 -33q39 0 68 12t45 36h131q-26 -68 -92.5 -110t-151.5 -42q-71 0 -130 34.5zM428 306q-11 44 -48 71t-86 27t-86 -27t-48 -71h268z
M125.5 578q-21.5 22 -21.5 53t21.5 53t52.5 22t52.5 -22t21.5 -53t-21.5 -53t-52.5 -22t-52.5 22zM356.5 578q-21.5 22 -21.5 53t21.5 53t52.5 22t52.5 -22t21.5 -53t-21.5 -53t-52.5 -22t-52.5 22z" />
    <glyph glyph-name="igrave" unicode="&#xec;" horiz-adv-x="230" 
d="M60 500h110v-500h-110v500zM-80 653l44 90l226 -106l-44 -90z" />
    <glyph glyph-name="iacute" unicode="&#xed;" horiz-adv-x="230" 
d="M60 500h110v-500h-110v500zM40 637l226 106l44 -90l-226 -106z" />
    <glyph glyph-name="icircumflex" unicode="&#xee;" horiz-adv-x="230" 
d="M60 500h110v-500h-110v500zM-68 602l183 183l183 -183l-66 -67l-117 117l-117 -117z" />
    <glyph glyph-name="idieresis" unicode="&#xef;" horiz-adv-x="230" 
d="M60 500h110v-500h-110v500zM-53.5 578q-21.5 22 -21.5 53t21.5 53t52.5 22t52.5 -22t21.5 -53t-21.5 -53t-52.5 -22t-52.5 22zM177.5 578q-21.5 22 -21.5 53t21.5 53t52.5 22t52.5 -22t21.5 -53t-21.5 -53t-52.5 -22t-52.5 22z" />
    <glyph glyph-name="eth" unicode="&#xf0;" horiz-adv-x="596" 
d="M515.5 482q40.5 -96 40.5 -203q0 -85 -32.5 -149.5t-90.5 -100t-133 -35.5t-134 33.5t-92.5 92t-33.5 130.5t33.5 130.5t92.5 92t134 33.5q26 0 53.5 -7t47.5 -20q-33 65 -82 112l-78 -59l-61 79l56 42q-30 17 -75 37l34 93q69 -27 126 -66l79 60l60 -80l-60 -45
q75 -74 115.5 -170zM398.5 150q37.5 39 37.5 100t-37.5 100t-98.5 39q-64 0 -102 -39t-38 -100t38 -100t102 -39q61 0 98.5 39z" />
    <glyph glyph-name="ntilde" unicode="&#xf1;" horiz-adv-x="555" 
d="M60 500h110v-57q20 26 55 44.5t82 18.5q93 0 142.5 -53t49.5 -153v-300h-110v276q0 65 -26.5 95.5t-78.5 30.5q-55 0 -84.5 -34.5t-29.5 -91.5v-276h-110v500zM106 600q0 58 27.5 89t72.5 31q24 0 44 -7.5t42 -26.5l15 -12q14 -12 22.5 -17.5t17.5 -5.5q12 0 18 7.5
t6 20.5v41h92v-46q0 -58 -27.5 -89t-72.5 -31q-24 0 -44 7.5t-42 26.5l-15 12q-14 12 -22.5 17.5t-17.5 5.5q-12 0 -18 -7.5t-6 -20.5v-41h-92v46z" />
    <glyph glyph-name="ograve" unicode="&#xf2;" horiz-adv-x="592" 
d="M164.5 27.5q-58.5 33.5 -91.5 92t-33 130.5t33 130.5t91.5 92t131.5 33.5t131.5 -33.5t91.5 -92t33 -130.5t-33 -130.5t-91.5 -92t-131.5 -33.5t-131.5 33.5zM400 142q40 42 40 108t-40 108t-104 42t-104 -42t-40 -108t40 -108t104 -42t104 42zM101 653l44 90l226 -106
l-44 -90z" />
    <glyph glyph-name="oacute" unicode="&#xf3;" horiz-adv-x="592" 
d="M164.5 27.5q-58.5 33.5 -91.5 92t-33 130.5t33 130.5t91.5 92t131.5 33.5t131.5 -33.5t91.5 -92t33 -130.5t-33 -130.5t-91.5 -92t-131.5 -33.5t-131.5 33.5zM400 142q40 42 40 108t-40 108t-104 42t-104 -42t-40 -108t40 -108t104 -42t104 42zM221 637l226 106l44 -90
l-226 -106z" />
    <glyph glyph-name="ocircumflex" unicode="&#xf4;" horiz-adv-x="592" 
d="M164.5 27.5q-58.5 33.5 -91.5 92t-33 130.5t33 130.5t91.5 92t131.5 33.5t131.5 -33.5t91.5 -92t33 -130.5t-33 -130.5t-91.5 -92t-131.5 -33.5t-131.5 33.5zM400 142q40 42 40 108t-40 108t-104 42t-104 -42t-40 -108t40 -108t104 -42t104 42zM113 602l183 183l183 -183
l-66 -67l-117 117l-117 -117z" />
    <glyph glyph-name="otilde" unicode="&#xf5;" horiz-adv-x="592" 
d="M164.5 27.5q-58.5 33.5 -91.5 92t-33 130.5t33 130.5t91.5 92t131.5 33.5t131.5 -33.5t91.5 -92t33 -130.5t-33 -130.5t-91.5 -92t-131.5 -33.5t-131.5 33.5zM400 142q40 42 40 108t-40 108t-104 42t-104 -42t-40 -108t40 -108t104 -42t104 42zM117 600q0 58 27.5 89
t72.5 31q24 0 44 -7.5t42 -26.5l15 -12q14 -12 22.5 -17.5t17.5 -5.5q12 0 18 7.5t6 20.5v41h92v-46q0 -58 -27.5 -89t-72.5 -31q-24 0 -44 7.5t-42 26.5l-15 12q-14 12 -22.5 17.5t-17.5 5.5q-12 0 -18 -7.5t-6 -20.5v-41h-92v46z" />
    <glyph glyph-name="odieresis" unicode="&#xf6;" horiz-adv-x="592" 
d="M164.5 27.5q-58.5 33.5 -91.5 92t-33 130.5t33 130.5t91.5 92t131.5 33.5t131.5 -33.5t91.5 -92t33 -130.5t-33 -130.5t-91.5 -92t-131.5 -33.5t-131.5 33.5zM400 142q40 42 40 108t-40 108t-104 42t-104 -42t-40 -108t40 -108t104 -42t104 42zM127.5 578
q-21.5 22 -21.5 53t21.5 53t52.5 22t52.5 -22t21.5 -53t-21.5 -53t-52.5 -22t-52.5 22zM358.5 578q-21.5 22 -21.5 53t21.5 53t52.5 22t52.5 -22t21.5 -53t-21.5 -53t-52.5 -22t-52.5 22z" />
    <glyph glyph-name="divide" unicode="&#xf7;" horiz-adv-x="556" 
d="M225.5 442q-21.5 22 -21.5 53t21.5 53t52.5 22t52.5 -22t21.5 -53t-21.5 -53t-52.5 -22t-52.5 22zM50 380h456v-100h-456v100zM225.5 112q-21.5 22 -21.5 53t21.5 53t52.5 22t52.5 -22t21.5 -53t-21.5 -53t-52.5 -22t-52.5 22z" />
    <glyph glyph-name="oslash" unicode="&#xf8;" horiz-adv-x="592" 
d="M522 374.5q30 -56.5 30 -124.5q0 -72 -33 -130.5t-91.5 -92t-131.5 -33.5q-25 0 -52 5l-19 -44l-91 39l18 41q-52 34 -82 90.5t-30 124.5q0 72 33 130.5t91.5 92t131.5 33.5q25 0 52 -5l19 44l91 -39l-18 -41q52 -34 82 -90.5zM163 188.5q11 -28.5 32 -49.5l111 261h-10
q-64 0 -104 -42t-40 -108q0 -33 11 -61.5zM400 142q40 42 40 108q0 33 -11 61.5t-32 49.5l-111 -261h10q64 0 104 42z" />
    <glyph glyph-name="ugrave" unicode="&#xf9;" horiz-adv-x="555" 
d="M105.5 47q-49.5 53 -49.5 153v300h110v-276q0 -65 27 -95.5t82 -30.5q53 0 81.5 34.5t28.5 91.5v276h110v-500h-110v57q-20 -26 -55 -44.5t-82 -18.5q-93 0 -142.5 53zM82 653l44 90l226 -106l-44 -90z" />
    <glyph glyph-name="uacute" unicode="&#xfa;" horiz-adv-x="555" 
d="M105.5 47q-49.5 53 -49.5 153v300h110v-276q0 -65 27 -95.5t82 -30.5q53 0 81.5 34.5t28.5 91.5v276h110v-500h-110v57q-20 -26 -55 -44.5t-82 -18.5q-93 0 -142.5 53zM202 637l226 106l44 -90l-226 -106z" />
    <glyph glyph-name="ucircumflex" unicode="&#xfb;" horiz-adv-x="555" 
d="M105.5 47q-49.5 53 -49.5 153v300h110v-276q0 -65 27 -95.5t82 -30.5q53 0 81.5 34.5t28.5 91.5v276h110v-500h-110v57q-20 -26 -55 -44.5t-82 -18.5q-93 0 -142.5 53zM94 602l183 183l183 -183l-66 -67l-117 117l-117 -117z" />
    <glyph glyph-name="udieresis" unicode="&#xfc;" horiz-adv-x="555" 
d="M105.5 47q-49.5 53 -49.5 153v300h110v-276q0 -65 27 -95.5t82 -30.5q53 0 81.5 34.5t28.5 91.5v276h110v-500h-110v57q-20 -26 -55 -44.5t-82 -18.5q-93 0 -142.5 53zM108.5 578q-21.5 22 -21.5 53t21.5 53t52.5 22t52.5 -22t21.5 -53t-21.5 -53t-52.5 -22t-52.5 22z
M339.5 578q-21.5 22 -21.5 53t21.5 53t52.5 22t52.5 -22t21.5 -53t-21.5 -53t-52.5 -22t-52.5 22z" />
    <glyph glyph-name="yacute" unicode="&#xfd;" horiz-adv-x="524" 
d="M207 88l-183 412h114l124 -291l124 291h114l-183 -412v-338l-110 -12v350zM188 637l226 106l44 -90l-226 -106z" />
    <glyph glyph-name="thorn" unicode="&#xfe;" horiz-adv-x="605" 
d="M60 700l110 12v-264q27 26 64 42t83 16q74 0 130 -31.5t87 -89.5t31 -135t-31 -135t-87 -89.5t-130 -31.5q-45 0 -84 16t-63 42v-302l-110 -12v962zM417 142.5q40 42.5 40 107.5t-40 107.5t-105 42.5q-64 0 -104 -42.5t-40 -107.5t40 -107.5t104 -42.5q65 0 105 42.5z
" />
    <glyph glyph-name="ydieresis" unicode="&#xff;" horiz-adv-x="524" 
d="M207 88l-183 412h114l124 -291l124 291h114l-183 -412v-338l-110 -12v350zM94.5 578q-21.5 22 -21.5 53t21.5 53t52.5 22t52.5 -22t21.5 -53t-21.5 -53t-52.5 -22t-52.5 22zM325.5 578q-21.5 22 -21.5 53t21.5 53t52.5 22t52.5 -22t21.5 -53t-21.5 -53t-52.5 -22
t-52.5 22z" />
    <glyph glyph-name="Amacron" unicode="&#x100;" horiz-adv-x="662" 
d="M275 700h112l259 -700h-117l-42 115h-312l-42 -115h-117zM450 221l-119 329l-119 -329h238zM173 882h315v-100h-315v100z" />
    <glyph glyph-name="amacron" unicode="&#x101;" horiz-adv-x="606" 
d="M163 27q-57 33 -90 91t-33 132t33 132t90 91t128 33q46 0 85.5 -17.5t57.5 -40.5v52h112v-500h-112v52q-18 -23 -57 -40.5t-86 -17.5q-71 0 -128 33zM397.5 141q40.5 41 40.5 109t-40.5 109t-102.5 41q-64 0 -105.5 -41t-41.5 -109t41.5 -109t105.5 -41q62 0 102.5 41z
M134 682h315v-100h-315v100z" />
    <glyph glyph-name="Abreve" unicode="&#x102;" horiz-adv-x="662" 
d="M275 700h112l259 -700h-117l-42 115h-312l-42 -115h-117zM450 221l-119 329l-119 -329h238zM245 771.5q-40 21.5 -65.5 58.5t-30.5 82h103q6 -30 26 -49.5t53 -19.5t53 19.5t26 49.5h103q-5 -45 -30.5 -82t-65.5 -58.5t-86 -21.5t-86 21.5z" />
    <glyph glyph-name="abreve" unicode="&#x103;" horiz-adv-x="606" 
d="M163 27q-57 33 -90 91t-33 132t33 132t90 91t128 33q46 0 85.5 -17.5t57.5 -40.5v52h112v-500h-112v52q-18 -23 -57 -40.5t-86 -17.5q-71 0 -128 33zM397.5 141q40.5 41 40.5 109t-40.5 109t-102.5 41q-64 0 -105.5 -41t-41.5 -109t41.5 -109t105.5 -41q62 0 102.5 41z
M206 571.5q-40 21.5 -65.5 58.5t-30.5 82h103q6 -30 26 -49.5t53 -19.5t53 19.5t26 49.5h103q-5 -45 -30.5 -82t-65.5 -58.5t-86 -21.5t-86 21.5z" />
    <glyph glyph-name="Aogonek" unicode="&#x104;" horiz-adv-x="662" 
d="M275 700h112l259 -700h-117l-42 115h-312l-42 -115h-117zM450 221l-119 329l-119 -329h238zM537 -221q-33 29 -33 76q0 27 18 66l36 79h88l-43 -94q-8 -17 -10.5 -25t-2.5 -18q0 -13 9.5 -22t29.5 -9h20v-82h-24q-55 0 -88 29z" />
    <glyph glyph-name="aogonek" unicode="&#x105;" horiz-adv-x="606" 
d="M553 -168v-82h-24q-55 0 -88 29t-33 76q0 24 15 60l35 85h-24v52q-18 -23 -57 -40.5t-86 -17.5q-71 0 -128 33t-90 91t-33 132t33 132t90 91t128 33q46 0 85.5 -17.5t57.5 -40.5v52h112v-500l-39 -94q-6 -14 -9.5 -24t-3.5 -19q0 -13 9.5 -22t29.5 -9h20zM397.5 141
q40.5 41 40.5 109t-40.5 109t-102.5 41q-64 0 -105.5 -41t-41.5 -109t41.5 -109t105.5 -41q62 0 102.5 41z" />
    <glyph glyph-name="Cacute" unicode="&#x106;" horiz-adv-x="776" 
d="M216 41.5q-79 47.5 -124.5 129.5t-45.5 179t45.5 179t124.5 129.5t176 47.5q82 0 149.5 -34t116.5 -94l-78 -78q-69 100 -188 100q-67 0 -120 -33t-82.5 -90.5t-29.5 -126.5t29.5 -126.5t82.5 -90.5t120 -33t120 32.5t82.5 89.5t29.5 128h114q0 -97 -45.5 -179
t-124.5 -129.5t-176 -47.5t-176 47.5zM317 837l226 106l44 -90l-226 -106z" />
    <glyph glyph-name="cacute" unicode="&#x107;" horiz-adv-x="591" 
d="M165 27.5q-58 33.5 -91.5 91.5t-33.5 131t33.5 131t91.5 91.5t131 33.5q109 0 183 -76l-81 -73q-42 45 -102 45q-64 0 -104 -42t-40 -110t40 -110t104 -42t104.5 42.5t40.5 109.5h110q0 -72 -33.5 -130.5t-91.5 -92t-130 -33.5q-73 0 -131 33.5zM221 637l226 106l44 -90
l-226 -106z" />
    <glyph glyph-name="Ccircumflex" unicode="&#x108;" horiz-adv-x="776" 
d="M216 41.5q-79 47.5 -124.5 129.5t-45.5 179t45.5 179t124.5 129.5t176 47.5q82 0 149.5 -34t116.5 -94l-78 -78q-69 100 -188 100q-67 0 -120 -33t-82.5 -90.5t-29.5 -126.5t29.5 -126.5t82.5 -90.5t120 -33t120 32.5t82.5 89.5t29.5 128h114q0 -97 -45.5 -179
t-124.5 -129.5t-176 -47.5t-176 47.5zM209 802l183 183l183 -183l-66 -67l-117 117l-117 -117z" />
    <glyph glyph-name="ccircumflex" unicode="&#x109;" horiz-adv-x="591" 
d="M165 27.5q-58 33.5 -91.5 91.5t-33.5 131t33.5 131t91.5 91.5t131 33.5q109 0 183 -76l-81 -73q-42 45 -102 45q-64 0 -104 -42t-40 -110t40 -110t104 -42t104.5 42.5t40.5 109.5h110q0 -72 -33.5 -130.5t-91.5 -92t-130 -33.5q-73 0 -131 33.5zM113 602l183 183
l183 -183l-66 -67l-117 117l-117 -117z" />
    <glyph glyph-name="Cdotaccent" unicode="&#x10a;" horiz-adv-x="776" 
d="M216 41.5q-79 47.5 -124.5 129.5t-45.5 179t45.5 179t124.5 129.5t176 47.5q82 0 149.5 -34t116.5 -94l-78 -78q-69 100 -188 100q-67 0 -120 -33t-82.5 -90.5t-29.5 -126.5t29.5 -126.5t82.5 -90.5t120 -33t120 32.5t82.5 89.5t29.5 128h114q0 -97 -45.5 -179
t-124.5 -129.5t-176 -47.5t-176 47.5zM339.5 778q-21.5 22 -21.5 53t21.5 53t52.5 22t52.5 -22t21.5 -53t-21.5 -53t-52.5 -22t-52.5 22z" />
    <glyph glyph-name="cdotaccent" unicode="&#x10b;" horiz-adv-x="591" 
d="M165 27.5q-58 33.5 -91.5 91.5t-33.5 131t33.5 131t91.5 91.5t131 33.5q109 0 183 -76l-81 -73q-42 45 -102 45q-64 0 -104 -42t-40 -110t40 -110t104 -42t104.5 42.5t40.5 109.5h110q0 -72 -33.5 -130.5t-91.5 -92t-130 -33.5q-73 0 -131 33.5zM243.5 578
q-21.5 22 -21.5 53t21.5 53t52.5 22t52.5 -22t21.5 -53t-21.5 -53t-52.5 -22t-52.5 22z" />
    <glyph glyph-name="Ccaron" unicode="&#x10c;" horiz-adv-x="776" 
d="M216 41.5q-79 47.5 -124.5 129.5t-45.5 179t45.5 179t124.5 129.5t176 47.5q82 0 149.5 -34t116.5 -94l-78 -78q-69 100 -188 100q-67 0 -120 -33t-82.5 -90.5t-29.5 -126.5t29.5 -126.5t82.5 -90.5t120 -33t120 32.5t82.5 89.5t29.5 128h114q0 -97 -45.5 -179
t-124.5 -129.5t-176 -47.5t-176 47.5zM209 918l66 67l117 -117l117 117l66 -67l-183 -183z" />
    <glyph glyph-name="ccaron" unicode="&#x10d;" horiz-adv-x="591" 
d="M165 27.5q-58 33.5 -91.5 91.5t-33.5 131t33.5 131t91.5 91.5t131 33.5q109 0 183 -76l-81 -73q-42 45 -102 45q-64 0 -104 -42t-40 -110t40 -110t104 -42t104.5 42.5t40.5 109.5h110q0 -72 -33.5 -130.5t-91.5 -92t-130 -33.5q-73 0 -131 33.5zM113 718l66 67l117 -117
l117 117l66 -67l-183 -183z" />
    <glyph glyph-name="Dcaron" unicode="&#x10e;" horiz-adv-x="660" 
d="M64 700h205q100 0 178.5 -42.5t122.5 -122t44 -185.5t-44 -185.5t-122.5 -122t-178.5 -42.5h-205v700zM272 106q64 0 116 28.5t82 84t30 131.5t-30 131.5t-82 84t-116 28.5h-96v-488h96zM92 918l66 67l117 -117l117 117l66 -67l-183 -183z" />
    <glyph glyph-name="dcaron" unicode="&#x10f;" horiz-adv-x="808" 
d="M158 25.5q-56 31.5 -87 89.5t-31 135t31 135t87 89.5t130 31.5q45 0 84 -16t63 -42v252l110 12v-712h-110v52q-27 -26 -64 -42t-83 -16q-74 0 -130 31.5zM397 142.5q40 42.5 40 107.5t-40 107.5t-104 42.5q-65 0 -105 -42.5t-40 -107.5t40 -107.5t105 -42.5
q64 0 104 42.5zM589 533l99 167h120l-127 -220z" />
    <glyph glyph-name="Dcroat" unicode="&#x110;" horiz-adv-x="698" 
d="M102 300h-82v100h82v300h205q100 0 178.5 -42.5t122.5 -122t44 -185.5t-44 -185.5t-122.5 -122t-178.5 -42.5h-205v300zM310 106q64 0 116 28.5t82 84t30 131.5t-30 131.5t-82 84t-116 28.5h-96v-194h121v-100h-121v-194h96z" />
    <glyph glyph-name="dcroat" unicode="&#x111;" horiz-adv-x="621" 
d="M611 542h-66v-542h-110v52q-27 -26 -64 -42t-83 -16q-74 0 -130 31.5t-87 89.5t-31 135t31 135t87 89.5t130 31.5q45 0 84 -16t63 -42v94h-136v104h136v54l110 12v-66h66v-104zM397 142.5q40 42.5 40 107.5t-40 107.5t-104 42.5q-65 0 -105 -42.5t-40 -107.5t40 -107.5
t105 -42.5q64 0 104 42.5z" />
    <glyph glyph-name="Emacron" unicode="&#x112;" horiz-adv-x="555" 
d="M64 700h439v-106h-327v-188h211v-106h-211v-194h333v-106h-445v700zM131 882h315v-100h-315v100z" />
    <glyph glyph-name="emacron" unicode="&#x113;" horiz-adv-x="588" 
d="M167 28.5q-59 34.5 -93 93t-34 128.5t34 128.5t92 93t128 34.5t128 -34.5t92 -93t34 -128.5q0 -20 -3 -38h-389q9 -48 48.5 -81t92.5 -33q39 0 68 12t45 36h131q-26 -68 -92.5 -110t-151.5 -42q-71 0 -130 34.5zM428 306q-11 44 -48 71t-86 27t-86 -27t-48 -71h268z
M136 682h315v-100h-315v100z" />
    <glyph glyph-name="Ebreve" unicode="&#x114;" horiz-adv-x="555" 
d="M64 700h439v-106h-327v-188h211v-106h-211v-194h333v-106h-445v700zM203 771.5q-40 21.5 -65.5 58.5t-30.5 82h103q6 -30 26 -49.5t53 -19.5t53 19.5t26 49.5h103q-5 -45 -30.5 -82t-65.5 -58.5t-86 -21.5t-86 21.5z" />
    <glyph glyph-name="ebreve" unicode="&#x115;" horiz-adv-x="588" 
d="M167 28.5q-59 34.5 -93 93t-34 128.5t34 128.5t92 93t128 34.5t128 -34.5t92 -93t34 -128.5q0 -20 -3 -38h-389q9 -48 48.5 -81t92.5 -33q39 0 68 12t45 36h131q-26 -68 -92.5 -110t-151.5 -42q-71 0 -130 34.5zM428 306q-11 44 -48 71t-86 27t-86 -27t-48 -71h268z
M208 571.5q-40 21.5 -65.5 58.5t-30.5 82h103q6 -30 26 -49.5t53 -19.5t53 19.5t26 49.5h103q-5 -45 -30.5 -82t-65.5 -58.5t-86 -21.5t-86 21.5z" />
    <glyph glyph-name="Edotaccent" unicode="&#x116;" horiz-adv-x="555" 
d="M64 700h439v-106h-327v-188h211v-106h-211v-194h333v-106h-445v700zM236.5 778q-21.5 22 -21.5 53t21.5 53t52.5 22t52.5 -22t21.5 -53t-21.5 -53t-52.5 -22t-52.5 22z" />
    <glyph glyph-name="edotaccent" unicode="&#x117;" horiz-adv-x="588" 
d="M167 28.5q-59 34.5 -93 93t-34 128.5t34 128.5t92 93t128 34.5t128 -34.5t92 -93t34 -128.5q0 -20 -3 -38h-389q9 -48 48.5 -81t92.5 -33q39 0 68 12t45 36h131q-26 -68 -92.5 -110t-151.5 -42q-71 0 -130 34.5zM428 306q-11 44 -48 71t-86 27t-86 -27t-48 -71h268z
M241.5 578q-21.5 22 -21.5 53t21.5 53t52.5 22t52.5 -22t21.5 -53t-21.5 -53t-52.5 -22t-52.5 22z" />
    <glyph glyph-name="Eogonek" unicode="&#x118;" horiz-adv-x="555" 
d="M64 700h439v-106h-327v-188h211v-106h-211v-194h333v-106h-445v700zM400 -221q-33 29 -33 76q0 27 18 66l36 79h88l-43 -94q-8 -17 -10.5 -25t-2.5 -18q0 -13 9.5 -22t29.5 -9h20v-82h-24q-55 0 -88 29z" />
    <glyph glyph-name="eogonek" unicode="&#x119;" horiz-adv-x="588" 
d="M545 212h-389q9 -48 48.5 -81t92.5 -33q39 0 68 12t45 36h131q-22 -59 -75.5 -98.5t-124.5 -50.5l-38 -91q-6 -14 -9.5 -24t-3.5 -19q0 -13 9.5 -22t29.5 -9h20v-82h-24q-55 0 -88 29t-33 76q0 24 15 60l34 83q-61 10 -109.5 45.5t-76 89.5t-27.5 117q0 70 34 128.5
t92 93t128 34.5t128 -34.5t92 -93t34 -128.5q0 -20 -3 -38zM428 306q-11 44 -48 71t-86 27t-86 -27t-48 -71h268z" />
    <glyph glyph-name="Ecaron" unicode="&#x11a;" horiz-adv-x="555" 
d="M64 700h439v-106h-327v-188h211v-106h-211v-194h333v-106h-445v700zM106 918l66 67l117 -117l117 117l66 -67l-183 -183z" />
    <glyph glyph-name="ecaron" unicode="&#x11b;" horiz-adv-x="588" 
d="M167 28.5q-59 34.5 -93 93t-34 128.5t34 128.5t92 93t128 34.5t128 -34.5t92 -93t34 -128.5q0 -20 -3 -38h-389q9 -48 48.5 -81t92.5 -33q39 0 68 12t45 36h131q-26 -68 -92.5 -110t-151.5 -42q-71 0 -130 34.5zM428 306q-11 44 -48 71t-86 27t-86 -27t-48 -71h268z
M111 718l66 67l117 -117l117 117l66 -67l-183 -183z" />
    <glyph glyph-name="Gcircumflex" unicode="&#x11c;" horiz-adv-x="787" 
d="M216 41.5q-79 47.5 -124.5 129.5t-45.5 179t45.5 179t124.5 129.5t176 47.5q82 0 149.5 -34t116.5 -94l-78 -78q-69 100 -188 100q-67 0 -120 -33t-82.5 -90.5t-29.5 -126.5t29.5 -126.5t82.5 -90.5t120 -33q90 0 150.5 54t76.5 146h-231v106h335v-406h-104v95
q-40 -50 -99.5 -75.5t-127.5 -25.5q-97 0 -176 47.5zM208 802l183 183l183 -183l-66 -67l-117 117l-117 -117z" />
    <glyph glyph-name="gcircumflex" unicode="&#x11d;" horiz-adv-x="536" 
d="M108 -203.5q-63 52.5 -78 138.5h114q12 -40 41 -63.5t77 -23.5q55 0 88.5 35t33.5 92q0 56 -32.5 91t-85.5 35q-38 0 -68 -18.5t-45 -47.5l-80 79q21 28 49 43q-32 28 -49.5 65.5t-17.5 80.5q0 56 24.5 102.5t69 73.5t102.5 27q33 0 62 -10.5t45 -30.5v35h110v-197
q0 -44 -17 -81.5t-50 -64.5q45 -32 70 -79.5t25 -102.5q0 -68 -31 -120.5t-84.5 -81.5t-118.5 -29q-91 0 -154 52.5zM331 232q27 27 27 71t-27 71.5t-69 27.5t-69.5 -27t-27.5 -72q0 -44 27.5 -71t69.5 -27t69 27zM84 602l183 183l183 -183l-66 -67l-117 117l-117 -117z" />
    <glyph glyph-name="Gbreve" unicode="&#x11e;" horiz-adv-x="787" 
d="M216 41.5q-79 47.5 -124.5 129.5t-45.5 179t45.5 179t124.5 129.5t176 47.5q82 0 149.5 -34t116.5 -94l-78 -78q-69 100 -188 100q-67 0 -120 -33t-82.5 -90.5t-29.5 -126.5t29.5 -126.5t82.5 -90.5t120 -33q90 0 150.5 54t76.5 146h-231v106h335v-406h-104v95
q-40 -50 -99.5 -75.5t-127.5 -25.5q-97 0 -176 47.5zM305 771.5q-40 21.5 -65.5 58.5t-30.5 82h103q6 -30 26 -49.5t53 -19.5t53 19.5t26 49.5h103q-5 -45 -30.5 -82t-65.5 -58.5t-86 -21.5t-86 21.5z" />
    <glyph glyph-name="gbreve" unicode="&#x11f;" horiz-adv-x="536" 
d="M108 -203.5q-63 52.5 -78 138.5h114q12 -40 41 -63.5t77 -23.5q55 0 88.5 35t33.5 92q0 56 -32.5 91t-85.5 35q-38 0 -68 -18.5t-45 -47.5l-80 79q21 28 49 43q-32 28 -49.5 65.5t-17.5 80.5q0 56 24.5 102.5t69 73.5t102.5 27q33 0 62 -10.5t45 -30.5v35h110v-197
q0 -44 -17 -81.5t-50 -64.5q45 -32 70 -79.5t25 -102.5q0 -68 -31 -120.5t-84.5 -81.5t-118.5 -29q-91 0 -154 52.5zM331 232q27 27 27 71t-27 71.5t-69 27.5t-69.5 -27t-27.5 -72q0 -44 27.5 -71t69.5 -27t69 27zM181 571.5q-40 21.5 -65.5 58.5t-30.5 82h103
q6 -30 26 -49.5t53 -19.5t53 19.5t26 49.5h103q-5 -45 -30.5 -82t-65.5 -58.5t-86 -21.5t-86 21.5z" />
    <glyph glyph-name="Gdotaccent" unicode="&#x120;" horiz-adv-x="787" 
d="M216 41.5q-79 47.5 -124.5 129.5t-45.5 179t45.5 179t124.5 129.5t176 47.5q82 0 149.5 -34t116.5 -94l-78 -78q-69 100 -188 100q-67 0 -120 -33t-82.5 -90.5t-29.5 -126.5t29.5 -126.5t82.5 -90.5t120 -33q90 0 150.5 54t76.5 146h-231v106h335v-406h-104v95
q-40 -50 -99.5 -75.5t-127.5 -25.5q-97 0 -176 47.5zM338.5 778q-21.5 22 -21.5 53t21.5 53t52.5 22t52.5 -22t21.5 -53t-21.5 -53t-52.5 -22t-52.5 22z" />
    <glyph glyph-name="gdotaccent" unicode="&#x121;" horiz-adv-x="536" 
d="M108 -203.5q-63 52.5 -78 138.5h114q12 -40 41 -63.5t77 -23.5q55 0 88.5 35t33.5 92q0 56 -32.5 91t-85.5 35q-38 0 -68 -18.5t-45 -47.5l-80 79q21 28 49 43q-32 28 -49.5 65.5t-17.5 80.5q0 56 24.5 102.5t69 73.5t102.5 27q33 0 62 -10.5t45 -30.5v35h110v-197
q0 -44 -17 -81.5t-50 -64.5q45 -32 70 -79.5t25 -102.5q0 -68 -31 -120.5t-84.5 -81.5t-118.5 -29q-91 0 -154 52.5zM331 232q27 27 27 71t-27 71.5t-69 27.5t-69.5 -27t-27.5 -72q0 -44 27.5 -71t69.5 -27t69 27zM214.5 578q-21.5 22 -21.5 53t21.5 53t52.5 22t52.5 -22
t21.5 -53t-21.5 -53t-52.5 -22t-52.5 22z" />
    <glyph glyph-name="uni0122" unicode="&#x122;" horiz-adv-x="787" 
d="M216 41.5q-79 47.5 -124.5 129.5t-45.5 179t45.5 179t124.5 129.5t176 47.5q82 0 149.5 -34t116.5 -94l-78 -78q-69 100 -188 100q-67 0 -120 -33t-82.5 -90.5t-29.5 -126.5t29.5 -126.5t82.5 -90.5t120 -33q90 0 150.5 54t76.5 146h-231v106h335v-406h-104v95
q-40 -50 -99.5 -75.5t-127.5 -25.5q-97 0 -176 47.5zM228 -209l100 167h120l-128 -220z" />
    <glyph glyph-name="uni0123" unicode="&#x123;" horiz-adv-x="536" 
d="M108 -203.5q-63 52.5 -78 138.5h114q12 -40 41 -63.5t77 -23.5q55 0 88.5 35t33.5 92q0 56 -32.5 91t-85.5 35q-38 0 -68 -18.5t-45 -47.5l-80 79q21 28 49 43q-32 28 -49.5 65.5t-17.5 80.5q0 56 24.5 102.5t69 73.5t102.5 27q33 0 62 -10.5t45 -30.5v35h110v-197
q0 -44 -17 -81.5t-50 -64.5q45 -32 70 -79.5t25 -102.5q0 -68 -31 -120.5t-84.5 -81.5t-118.5 -29q-91 0 -154 52.5zM331 232q27 27 27 71t-27 71.5t-69 27.5t-69.5 -27t-27.5 -72q0 -44 27.5 -71t69.5 -27t69 27zM290 712l92 -53l-71 -117h-120z" />
    <glyph glyph-name="Hcircumflex" unicode="&#x124;" horiz-adv-x="589" 
d="M64 700h112v-294h237v294h112v-700h-112v300h-237v-300h-112v700zM112 802l183 183l183 -183l-66 -67l-117 117l-117 -117z" />
    <glyph glyph-name="hcircumflex" unicode="&#x125;" horiz-adv-x="561" 
d="M60 700l110 12v-269q24 29 60.5 46t82.5 17q90 0 141 -53.5t51 -152.5v-300h-110v276q0 60 -27 93t-82 33q-53 0 -84.5 -35.5t-31.5 -90.5v-276h-110v700zM-71 814l183 183l183 -183l-66 -67l-117 117l-117 -117z" />
    <glyph glyph-name="Hbar" unicode="&#x126;" horiz-adv-x="667" 
d="M641 500h-77v-500h-112v300h-237v-300h-112v500h-77v100h77v100h112v-100h237v100h112v-100h77v-100zM452 500h-237v-94h237v94z" />
    <glyph glyph-name="hbar" unicode="&#x127;" horiz-adv-x="568" 
d="M67 550h-57v94h57v56l110 12v-68h145v-94h-145v-107q24 29 60.5 46t82.5 17q90 0 141 -53.5t51 -152.5v-300h-110v276q0 60 -27 93t-82 33q-53 0 -84.5 -35.5t-31.5 -90.5v-276h-110v550z" />
    <glyph glyph-name="Itilde" unicode="&#x128;" horiz-adv-x="408" 
d="M42 106h106v488h-106v106h324v-106h-106v-488h106v-106h-324v106zM25 800q0 58 27.5 89t72.5 31q23 0 43 -7.5t43 -26.5l15 -12q14 -12 22.5 -17.5t17.5 -5.5q12 0 18 7.5t6 20.5v41h92v-46q0 -58 -27.5 -89t-72.5 -31q-23 0 -43 7.5t-43 26.5l-15 12q-14 12 -22.5 17.5
t-17.5 5.5q-12 0 -18 -7.5t-6 -20.5v-41h-92v46z" />
    <glyph glyph-name="itilde" unicode="&#x129;" horiz-adv-x="230" 
d="M60 500h110v-500h-110v500zM-64 600q0 58 27.5 89t72.5 31q24 0 44 -7.5t42 -26.5l15 -12q14 -12 22.5 -17.5t17.5 -5.5q12 0 18 7.5t6 20.5v41h92v-46q0 -58 -27.5 -89t-72.5 -31q-24 0 -44 7.5t-42 26.5l-15 12q-14 12 -22.5 17.5t-17.5 5.5q-12 0 -18 -7.5t-6 -20.5
v-41h-92v46z" />
    <glyph glyph-name="Imacron" unicode="&#x12a;" horiz-adv-x="408" 
d="M42 106h106v488h-106v106h324v-106h-106v-488h106v-106h-324v106zM46 882h315v-100h-315v100z" />
    <glyph glyph-name="imacron" unicode="&#x12b;" horiz-adv-x="230" 
d="M60 500h110v-500h-110v500zM-43 682h315v-100h-315v100z" />
    <glyph glyph-name="Ibreve" unicode="&#x12c;" horiz-adv-x="408" 
d="M42 106h106v488h-106v106h324v-106h-106v-488h106v-106h-324v106zM118 771.5q-40 21.5 -65.5 58.5t-30.5 82h103q6 -30 26 -49.5t53 -19.5t53 19.5t26 49.5h103q-5 -45 -30.5 -82t-65.5 -58.5t-86 -21.5t-86 21.5z" />
    <glyph glyph-name="ibreve" unicode="&#x12d;" horiz-adv-x="230" 
d="M60 500h110v-500h-110v500zM29 571.5q-40 21.5 -65.5 58.5t-30.5 82h103q6 -30 26 -49.5t53 -19.5t53 19.5t26 49.5h103q-5 -45 -30.5 -82t-65.5 -58.5t-86 -21.5t-86 21.5z" />
    <glyph glyph-name="Iogonek" unicode="&#x12e;" horiz-adv-x="408" 
d="M42 106h106v488h-106v106h324v-106h-106v-488h106v-106h-324v106zM257 -221q-33 29 -33 76q0 27 18 66l36 79h88l-43 -94q-8 -17 -10.5 -25t-2.5 -18q0 -13 9.5 -22t29.5 -9h20v-82h-24q-55 0 -88 29z" />
    <glyph glyph-name="iogonek" unicode="&#x12f;" horiz-adv-x="230" 
d="M60 500h110v-500h-110v500zM62.5 578q-21.5 22 -21.5 53t21.5 53t52.5 22t52.5 -22t21.5 -53t-21.5 -53t-52.5 -22t-52.5 22zM65 -221q-33 29 -33 76q0 24 15 60l35 85h88l-39 -94q-6 -14 -9.5 -24t-3.5 -19q0 -13 9.5 -22t29.5 -9h20v-82h-24q-55 0 -88 29z" />
    <glyph glyph-name="Idotaccent" unicode="&#x130;" horiz-adv-x="408" 
d="M42 106h106v488h-106v106h324v-106h-106v-488h106v-106h-324v106zM151.5 778q-21.5 22 -21.5 53t21.5 53t52.5 22t52.5 -22t21.5 -53t-21.5 -53t-52.5 -22t-52.5 22z" />
    <glyph glyph-name="dotlessi" unicode="&#x131;" horiz-adv-x="230" 
d="M60 500h110v-500h-110v500z" />
    <glyph glyph-name="IJ" unicode="&#x132;" horiz-adv-x="578" 
d="M174 23.5q-51 29.5 -80.5 81t-29.5 114.5h112q0 -51 31 -85t82 -34q55 0 84 35t29 99v466h112v-463q0 -71 -27 -126t-77.5 -86t-120.5 -31q-64 0 -115 29.5zM64 700h112v-374h-112v374z" />
    <glyph glyph-name="ij" unicode="&#x133;" horiz-adv-x="566" 
d="M62.5 578q-21.5 22 -21.5 53t21.5 53t52.5 22t52.5 -22t21.5 -53t-21.5 -53t-52.5 -22t-52.5 22zM398.5 578q-21.5 22 -21.5 53t21.5 53t52.5 22t52.5 -22t21.5 -53t-21.5 -53t-52.5 -22t-52.5 22zM396 31q-22 -19 -51.5 -28t-61.5 -9q-69 0 -119 31t-77 86t-27 126v263
h110v-266q0 -64 29 -99t84 -35q51 0 82 34t31 85v281h110v-750l-110 -12v293z" />
    <glyph glyph-name="Jcircumflex" unicode="&#x134;" horiz-adv-x="548" 
d="M144 23.5q-51 29.5 -80.5 81t-29.5 114.5h112q0 -51 31 -85t82 -34q55 0 84 35t29 99v466h112v-463q0 -71 -27 -126t-77.5 -86t-120.5 -31q-64 0 -115 29.5zM244 802l183 183l183 -183l-66 -67l-117 117l-117 -117z" />
    <glyph glyph-name="jcircumflex" unicode="&#x135;" horiz-adv-x="230" 
d="M60 500h110v-750l-110 -12v762zM-68 602l183 183l183 -183l-66 -67l-117 117l-117 -117z" />
    <glyph glyph-name="uni0136" unicode="&#x136;" horiz-adv-x="584" 
d="M64 700h112v-244l170 244h132l-168 -236l254 -464h-131l-196 361l-61 -85v-276h-112v700zM156 -209l100 167h120l-128 -220z" />
    <glyph glyph-name="uni0137" unicode="&#x137;" horiz-adv-x="521" 
d="M60 700l110 12v-381l114 169h126l-105 -150l208 -350h-125l-151 255l-67 -97v-158h-110v700zM108 -209l100 167h120l-128 -220z" />
    <glyph glyph-name="kgreenlandic" unicode="&#x138;" horiz-adv-x="517" 
d="M60 500h108v-172l115 172h125l-106 -152l207 -348h-124l-150 253l-67 -95v-158h-108v500z" />
    <glyph glyph-name="Lacute" unicode="&#x139;" horiz-adv-x="551" 
d="M64 700h112v-594h333v-106h-445v700zM47 837l226 106l44 -90l-226 -106z" />
    <glyph glyph-name="lacute" unicode="&#x13a;" horiz-adv-x="230" 
d="M60 700l110 12v-712h-110v700zM40 849l226 106l44 -90l-226 -106z" />
    <glyph glyph-name="uni013B" unicode="&#x13b;" horiz-adv-x="551" 
d="M64 700h112v-594h333v-106h-445v700zM152 -209l100 167h120l-128 -220z" />
    <glyph glyph-name="uni013C" unicode="&#x13c;" horiz-adv-x="230" 
d="M60 700l110 12v-712h-110v700zM-48 -209l100 167h120l-128 -220z" />
    <glyph glyph-name="Lcaron" unicode="&#x13d;" horiz-adv-x="551" 
d="M64 700h112v-594h333v-106h-445v700zM298 533l99 167h120l-127 -220z" />
    <glyph glyph-name="lcaron" unicode="&#x13e;" horiz-adv-x="434" 
d="M60 700l110 12v-712h-110v700zM215 533l99 167h120l-127 -220z" />
    <glyph glyph-name="Ldot" unicode="&#x13f;" horiz-adv-x="551" 
d="M64 700h112v-594h333v-106h-445v700zM322.5 336q-21.5 22 -21.5 53t21.5 53t52.5 22t52.5 -22t21.5 -53t-21.5 -53t-52.5 -22t-52.5 22z" />
    <glyph glyph-name="ldot" unicode="&#x140;" horiz-adv-x="440" 
d="M60 700l110 12v-712h-110v700zM271.5 303q-21.5 22 -21.5 53t21.5 53t52.5 22t52.5 -22t21.5 -53t-21.5 -53t-52.5 -22t-52.5 22z" />
    <glyph glyph-name="Lslash" unicode="&#x141;" horiz-adv-x="605" 
d="M563 106v-106h-445v242l-83 -30l-35 100l118 43v345h112v-305l138 50l35 -100l-173 -63v-176h333z" />
    <glyph glyph-name="lslash" unicode="&#x142;" horiz-adv-x="388" 
d="M244 318v-318h-110v278l-83 -30l-35 100l118 43v309l110 12v-282l93 34l35 -100z" />
    <glyph glyph-name="Nacute" unicode="&#x143;" horiz-adv-x="589" 
d="M64 700h124l225 -482v482h112v-700h-124l-225 482v-482h-112v700zM220 837l226 106l44 -90l-226 -106z" />
    <glyph glyph-name="nacute" unicode="&#x144;" horiz-adv-x="555" 
d="M60 500h110v-57q20 26 55 44.5t82 18.5q93 0 142.5 -53t49.5 -153v-300h-110v276q0 65 -26.5 95.5t-78.5 30.5q-55 0 -84.5 -34.5t-29.5 -91.5v-276h-110v500zM210 637l226 106l44 -90l-226 -106z" />
    <glyph glyph-name="uni0145" unicode="&#x145;" horiz-adv-x="589" 
d="M64 700h124l225 -482v482h112v-700h-124l-225 482v-482h-112v700zM140 -209l100 167h120l-128 -220z" />
    <glyph glyph-name="uni0146" unicode="&#x146;" horiz-adv-x="555" 
d="M60 500h110v-57q20 26 55 44.5t82 18.5q93 0 142.5 -53t49.5 -153v-300h-110v276q0 65 -26.5 95.5t-78.5 30.5q-55 0 -84.5 -34.5t-29.5 -91.5v-276h-110v500zM115 -209l100 167h120l-128 -220z" />
    <glyph glyph-name="Ncaron" unicode="&#x147;" horiz-adv-x="589" 
d="M64 700h124l225 -482v482h112v-700h-124l-225 482v-482h-112v700zM112 918l66 67l117 -117l117 117l66 -67l-183 -183z" />
    <glyph glyph-name="ncaron" unicode="&#x148;" horiz-adv-x="555" 
d="M60 500h110v-57q20 26 55 44.5t82 18.5q93 0 142.5 -53t49.5 -153v-300h-110v276q0 65 -26.5 95.5t-78.5 30.5q-55 0 -84.5 -34.5t-29.5 -91.5v-276h-110v500zM102 718l66 67l117 -117l117 117l66 -67l-183 -183z" />
    <glyph glyph-name="napostrophe" unicode="&#x149;" horiz-adv-x="699" 
d="M204 500h110v-57q20 26 55 44.5t82 18.5q93 0 142.5 -53t49.5 -153v-300h-110v276q0 65 -26.5 95.5t-78.5 30.5q-55 0 -84.5 -34.5t-29.5 -91.5v-276h-110v500zM0 487l126 213h120l-154 -266z" />
    <glyph glyph-name="Eng" unicode="&#x14a;" horiz-adv-x="589" 
d="M260.5 -233.5q-40.5 22.5 -62.5 62t-22 89.5h112q0 -32 17 -50t45 -18q33 0 48 21.5t15 52.5v76l-237 472v-472h-112v700h112l237 -472v472h112v-768q0 -88 -44.5 -138t-126.5 -50q-53 0 -93.5 22.5z" />
    <glyph glyph-name="eng" unicode="&#x14b;" horiz-adv-x="555" 
d="M249 -234.5q-37 21.5 -58 59t-21 84.5h110q0 -29 14.5 -45t39.5 -16t40 16t15 45v367q0 65 -27 95.5t-82 30.5q-53 0 -81.5 -34.5t-28.5 -91.5v-276h-110v500h110v-57q20 26 55 44.5t82 18.5q93 0 142.5 -53t49.5 -153v-391q0 -47 -21 -84.5t-59 -59t-85 -21.5
q-48 0 -85 21.5z" />
    <glyph glyph-name="Omacron" unicode="&#x14c;" horiz-adv-x="784" 
d="M216 41.5q-79 47.5 -124.5 129.5t-45.5 179t45.5 179t124.5 129.5t176 47.5t176 -47.5t124.5 -129.5t45.5 -179t-45.5 -179t-124.5 -129.5t-176 -47.5t-176 47.5zM512 133q53 33 82.5 90.5t29.5 126.5t-29.5 126.5t-82.5 90.5t-120 33t-120 -33t-82.5 -90.5t-29.5 -126.5
t29.5 -126.5t82.5 -90.5t120 -33t120 33zM234 882h315v-100h-315v100z" />
    <glyph glyph-name="omacron" unicode="&#x14d;" horiz-adv-x="592" 
d="M164.5 27.5q-58.5 33.5 -91.5 92t-33 130.5t33 130.5t91.5 92t131.5 33.5t131.5 -33.5t91.5 -92t33 -130.5t-33 -130.5t-91.5 -92t-131.5 -33.5t-131.5 33.5zM400 142q40 42 40 108t-40 108t-104 42t-104 -42t-40 -108t40 -108t104 -42t104 42zM138 682h315v-100h-315
v100z" />
    <glyph glyph-name="Obreve" unicode="&#x14e;" horiz-adv-x="784" 
d="M216 41.5q-79 47.5 -124.5 129.5t-45.5 179t45.5 179t124.5 129.5t176 47.5t176 -47.5t124.5 -129.5t45.5 -179t-45.5 -179t-124.5 -129.5t-176 -47.5t-176 47.5zM512 133q53 33 82.5 90.5t29.5 126.5t-29.5 126.5t-82.5 90.5t-120 33t-120 -33t-82.5 -90.5t-29.5 -126.5
t29.5 -126.5t82.5 -90.5t120 -33t120 33zM306 771.5q-40 21.5 -65.5 58.5t-30.5 82h103q6 -30 26 -49.5t53 -19.5t53 19.5t26 49.5h103q-5 -45 -30.5 -82t-65.5 -58.5t-86 -21.5t-86 21.5z" />
    <glyph glyph-name="obreve" unicode="&#x14f;" horiz-adv-x="592" 
d="M164.5 27.5q-58.5 33.5 -91.5 92t-33 130.5t33 130.5t91.5 92t131.5 33.5t131.5 -33.5t91.5 -92t33 -130.5t-33 -130.5t-91.5 -92t-131.5 -33.5t-131.5 33.5zM400 142q40 42 40 108t-40 108t-104 42t-104 -42t-40 -108t40 -108t104 -42t104 42zM210 571.5
q-40 21.5 -65.5 58.5t-30.5 82h103q6 -30 26 -49.5t53 -19.5t53 19.5t26 49.5h103q-5 -45 -30.5 -82t-65.5 -58.5t-86 -21.5t-86 21.5z" />
    <glyph glyph-name="Ohungarumlaut" unicode="&#x150;" horiz-adv-x="784" 
d="M216 41.5q-79 47.5 -124.5 129.5t-45.5 179t45.5 179t124.5 129.5t176 47.5t176 -47.5t124.5 -129.5t45.5 -179t-45.5 -179t-124.5 -129.5t-176 -47.5t-176 47.5zM512 133q53 33 82.5 90.5t29.5 126.5t-29.5 126.5t-82.5 90.5t-120 33t-120 -33t-82.5 -90.5t-29.5 -126.5
t29.5 -126.5t82.5 -90.5t120 -33t120 33zM148 825l197 152l63 -80l-197 -152zM375 825l197 152l63 -80l-197 -152z" />
    <glyph glyph-name="ohungarumlaut" unicode="&#x151;" horiz-adv-x="592" 
d="M164.5 27.5q-58.5 33.5 -91.5 92t-33 130.5t33 130.5t91.5 92t131.5 33.5t131.5 -33.5t91.5 -92t33 -130.5t-33 -130.5t-91.5 -92t-131.5 -33.5t-131.5 33.5zM400 142q40 42 40 108t-40 108t-104 42t-104 -42t-40 -108t40 -108t104 -42t104 42zM52 625l197 152l63 -80
l-197 -152zM279 625l197 152l63 -80l-197 -152z" />
    <glyph glyph-name="OE" unicode="&#x152;" horiz-adv-x="1115" 
d="M216 41.5q-79 47.5 -124.5 129.5t-45.5 179t45.5 179t124.5 129.5t176 47.5q67 0 126.5 -23.5t105.5 -65.5v83h439v-106h-327v-188h199v-106h-199v-194h333v-106h-445v83q-46 -42 -105.5 -65.5t-126.5 -23.5q-97 0 -176 47.5zM512 133q53 33 82.5 90.5t29.5 126.5
t-29.5 126.5t-82.5 90.5t-120 33t-120 -33t-82.5 -90.5t-29.5 -126.5t29.5 -126.5t82.5 -90.5t120 -33t120 33z" />
    <glyph glyph-name="oe" unicode="&#x153;" horiz-adv-x="988" 
d="M164.5 27.5q-58.5 33.5 -91.5 92t-33 130.5t33 130.5t91.5 92t131.5 33.5q62 0 114 -24.5t87 -68.5q36 44 87 68.5t110 24.5q70 0 128 -34.5t92 -93t34 -128.5q0 -20 -3 -38h-389q9 -48 48.5 -81t92.5 -33q39 0 68 12t45 36h131q-26 -68 -92.5 -110t-151.5 -42
q-60 0 -112 24.5t-88 68.5q-34 -44 -86.5 -68.5t-114.5 -24.5q-73 0 -131.5 33.5zM828 306q-11 41 -48.5 69.5t-85.5 28.5t-85.5 -28.5t-48.5 -69.5h268zM400 142q40 42 40 108t-40 108t-104 42t-104 -42t-40 -108t40 -108t104 -42t104 42z" />
    <glyph glyph-name="Racute" unicode="&#x154;" horiz-adv-x="510" 
d="M64 700h205q56 0 102 -23.5t72.5 -69t26.5 -107.5q0 -80 -45 -131t-114 -65l159 -304h-128l-150 300h-16v-300h-112v700zM270 406q44 0 67 26t23 68t-23 68t-67 26h-94v-188h94zM168 837l226 106l44 -90l-226 -106z" />
    <glyph glyph-name="racute" unicode="&#x155;" horiz-adv-x="355" 
d="M60 500h110v-66q14 32 44 52t73 20q28 0 44 -6v-116q-18 8 -46 8q-51 0 -83 -33t-32 -91v-268h-110v500zM100 637l226 106l44 -90l-226 -106z" />
    <glyph glyph-name="uni0156" unicode="&#x156;" horiz-adv-x="510" 
d="M64 700h205q56 0 102 -23.5t72.5 -69t26.5 -107.5q0 -80 -45 -131t-114 -65l159 -304h-128l-150 300h-16v-300h-112v700zM270 406q44 0 67 26t23 68t-23 68t-67 26h-94v-188h94zM96 -209l100 167h120l-128 -220z" />
    <glyph glyph-name="uni0157" unicode="&#x157;" horiz-adv-x="355" 
d="M60 500h110v-66q14 32 44 52t73 20q28 0 44 -6v-116q-18 8 -46 8q-51 0 -83 -33t-32 -91v-268h-110v500zM-39 -209l100 167h120l-128 -220z" />
    <glyph glyph-name="Rcaron" unicode="&#x158;" horiz-adv-x="510" 
d="M64 700h205q56 0 102 -23.5t72.5 -69t26.5 -107.5q0 -80 -45 -131t-114 -65l159 -304h-128l-150 300h-16v-300h-112v700zM270 406q44 0 67 26t23 68t-23 68t-67 26h-94v-188h94zM60 918l66 67l117 -117l117 117l66 -67l-183 -183z" />
    <glyph glyph-name="rcaron" unicode="&#x159;" horiz-adv-x="355" 
d="M60 500h110v-66q14 32 44 52t73 20q28 0 44 -6v-116q-18 8 -46 8q-51 0 -83 -33t-32 -91v-268h-110v500zM-8 718l66 67l117 -117l117 117l66 -67l-183 -183z" />
    <glyph glyph-name="Sacute" unicode="&#x15a;" horiz-adv-x="526" 
d="M148.5 24q-51.5 30 -81 82t-29.5 113h112q0 -51 30.5 -85t82.5 -34t82.5 33t30.5 86q0 39 -16.5 61.5t-41.5 34.5t-72 27q-40 12 -60 20q-50 20 -80 61.5t-30 98.5q0 53 24 95t66 65.5t94 23.5q121 0 176 -104l-85 -61q-13 28 -36 43.5t-52 15.5q-34 0 -55.5 -20.5
t-21.5 -51.5q0 -26 12.5 -41.5t33.5 -25t62 -23.5q24 -7 51 -18q69 -26 106 -73.5t37 -124.5q0 -64 -30 -116t-81.5 -82t-113.5 -30q-63 0 -114.5 30zM188 837l226 106l44 -90l-226 -106z" />
    <glyph glyph-name="sacute" unicode="&#x15b;" horiz-adv-x="413" 
d="M116 16.5q-39 22.5 -60.5 62t-21.5 86.5h105q0 -30 20 -48.5t46 -18.5q29 0 46.5 16.5t17.5 45.5q0 32 -19 45t-59 24q-5 1 -20 5q-44 12 -74 45t-30 89q0 39 18.5 70.5t50 49.5t69.5 18q75 0 119 -64l-68 -67q-6 15 -17.5 24t-26.5 9q-19 0 -29.5 -11t-10.5 -27
q0 -22 16.5 -32.5t53.5 -20.5q18 -4 40 -12q97 -36 97 -143q0 -75 -49 -121.5t-125 -46.5q-50 0 -89 22.5zM132 637l226 106l44 -90l-226 -106z" />
    <glyph glyph-name="Scircumflex" unicode="&#x15c;" horiz-adv-x="526" 
d="M148.5 24q-51.5 30 -81 82t-29.5 113h112q0 -51 30.5 -85t82.5 -34t82.5 33t30.5 86q0 39 -16.5 61.5t-41.5 34.5t-72 27q-40 12 -60 20q-50 20 -80 61.5t-30 98.5q0 53 24 95t66 65.5t94 23.5q121 0 176 -104l-85 -61q-13 28 -36 43.5t-52 15.5q-34 0 -55.5 -20.5
t-21.5 -51.5q0 -26 12.5 -41.5t33.5 -25t62 -23.5q24 -7 51 -18q69 -26 106 -73.5t37 -124.5q0 -64 -30 -116t-81.5 -82t-113.5 -30q-63 0 -114.5 30zM80 802l183 183l183 -183l-66 -67l-117 117l-117 -117z" />
    <glyph glyph-name="scircumflex" unicode="&#x15d;" horiz-adv-x="413" 
d="M116 16.5q-39 22.5 -60.5 62t-21.5 86.5h105q0 -30 20 -48.5t46 -18.5q29 0 46.5 16.5t17.5 45.5q0 32 -19 45t-59 24q-5 1 -20 5q-44 12 -74 45t-30 89q0 39 18.5 70.5t50 49.5t69.5 18q75 0 119 -64l-68 -67q-6 15 -17.5 24t-26.5 9q-19 0 -29.5 -11t-10.5 -27
q0 -22 16.5 -32.5t53.5 -20.5q18 -4 40 -12q97 -36 97 -143q0 -75 -49 -121.5t-125 -46.5q-50 0 -89 22.5zM24 602l183 183l183 -183l-66 -67l-117 117l-117 -117z" />
    <glyph glyph-name="Scedilla" unicode="&#x15e;" horiz-adv-x="526" 
d="M438 76.5q-50 -61.5 -128 -77.5l-22 -39q32 -7 53.5 -33t21.5 -70q0 -47 -33 -80t-80 -33q-46 0 -79.5 33t-33.5 80h82q0 -14 9 -22.5t22 -8.5t21.5 9t8.5 22q0 17 -9.5 27t-27.5 10h-75l61 102q-55 8 -98.5 39.5t-68 79.5t-24.5 104h112q0 -51 30.5 -85t82.5 -34
t82.5 33t30.5 86q0 39 -16.5 61.5t-41.5 34.5t-72 27q-40 12 -60 20q-50 20 -80 61.5t-30 98.5q0 53 24 95t66 65.5t94 23.5q121 0 176 -104l-85 -61q-13 28 -36 43.5t-52 15.5q-34 0 -55.5 -20.5t-21.5 -51.5q0 -26 12.5 -41.5t33.5 -25t62 -23.5q24 -7 51 -18
q69 -26 106 -73.5t37 -124.5q0 -84 -50 -145.5z" />
    <glyph glyph-name="scedilla" unicode="&#x15f;" horiz-adv-x="413" 
d="M341.5 52.5q-37.5 -44.5 -99.5 -55.5l-21 -37q32 -7 53.5 -33t21.5 -70q0 -47 -33 -80t-80 -33q-46 0 -79.5 33t-33.5 80h82q0 -14 9 -22.5t22 -8.5t21.5 9t8.5 22q0 17 -9.5 27t-27.5 10h-75l62 104q-59 13 -94 59.5t-35 107.5h105q0 -30 20 -48.5t46 -18.5
q29 0 46.5 16.5t17.5 45.5q0 32 -19 45t-59 24q-5 1 -20 5q-44 12 -74 45t-30 89q0 39 18.5 70.5t50 49.5t69.5 18q75 0 119 -64l-68 -67q-6 15 -17.5 24t-26.5 9q-19 0 -29.5 -11t-10.5 -27q0 -22 16.5 -32.5t53.5 -20.5q18 -4 40 -12q97 -36 97 -143q0 -65 -37.5 -109.5z
" />
    <glyph glyph-name="Scaron" unicode="&#x160;" horiz-adv-x="526" 
d="M148.5 24q-51.5 30 -81 82t-29.5 113h112q0 -51 30.5 -85t82.5 -34t82.5 33t30.5 86q0 39 -16.5 61.5t-41.5 34.5t-72 27q-40 12 -60 20q-50 20 -80 61.5t-30 98.5q0 53 24 95t66 65.5t94 23.5q121 0 176 -104l-85 -61q-13 28 -36 43.5t-52 15.5q-34 0 -55.5 -20.5
t-21.5 -51.5q0 -26 12.5 -41.5t33.5 -25t62 -23.5q24 -7 51 -18q69 -26 106 -73.5t37 -124.5q0 -64 -30 -116t-81.5 -82t-113.5 -30q-63 0 -114.5 30zM80 918l66 67l117 -117l117 117l66 -67l-183 -183z" />
    <glyph glyph-name="scaron" unicode="&#x161;" horiz-adv-x="413" 
d="M116 16.5q-39 22.5 -60.5 62t-21.5 86.5h105q0 -30 20 -48.5t46 -18.5q29 0 46.5 16.5t17.5 45.5q0 32 -19 45t-59 24q-5 1 -20 5q-44 12 -74 45t-30 89q0 39 18.5 70.5t50 49.5t69.5 18q75 0 119 -64l-68 -67q-6 15 -17.5 24t-26.5 9q-19 0 -29.5 -11t-10.5 -27
q0 -22 16.5 -32.5t53.5 -20.5q18 -4 40 -12q97 -36 97 -143q0 -75 -49 -121.5t-125 -46.5q-50 0 -89 22.5zM24 718l66 67l117 -117l117 117l66 -67l-183 -183z" />
    <glyph glyph-name="uni0162" unicode="&#x162;" horiz-adv-x="510" 
d="M170.5 -223q-33.5 33 -33.5 80h82q0 -14 9 -22.5t22 -8.5t21.5 9t8.5 22q0 17 -9.5 27t-27.5 10h-75l63 106h-32v594h-159v106h430v-106h-159v-594l-23 -40q32 -7 53.5 -33t21.5 -70q0 -47 -33 -80t-80 -33q-46 0 -79.5 33z" />
    <glyph glyph-name="uni0163" unicode="&#x163;" horiz-adv-x="411" 
d="M129 396h-101v104h101v200l110 12v-212h150v-104h-150v-396h-110v396zM98 -223q-33 33 -33 80h82q0 -14 8.5 -22.5t22.5 -8.5q13 0 21.5 9t8.5 22q0 17 -9.5 27t-27.5 10h-75l63 106h80l-23 -40q32 -7 53.5 -33t21.5 -70q0 -47 -33.5 -80t-79.5 -33q-47 0 -80 33z" />
    <glyph glyph-name="Tcaron" unicode="&#x164;" horiz-adv-x="510" 
d="M199 594h-159v106h430v-106h-159v-594h-112v594zM72 918l66 67l117 -117l117 117l66 -67l-183 -183z" />
    <glyph glyph-name="tcaron" unicode="&#x165;" horiz-adv-x="496" 
d="M129 396h-101v104h101v200l110 12v-212h150v-104h-150v-396h-110v396zM277 598l99 167h120l-127 -220z" />
    <glyph glyph-name="Tbar" unicode="&#x166;" horiz-adv-x="510" 
d="M199 400h-102v100h102v94h-159v106h430v-106h-159v-94h102v-100h-102v-400h-112v400z" />
    <glyph glyph-name="tbar" unicode="&#x167;" horiz-adv-x="411" 
d="M239 396v-49h138v-94h-138v-253h-110v253h-101v94h101v49h-101v104h101v200l110 12v-212h150v-104h-150z" />
    <glyph glyph-name="Utilde" unicode="&#x168;" horiz-adv-x="584" 
d="M175 23q-52 29 -81.5 82t-29.5 120v475h112v-481q0 -54 31.5 -86.5t84.5 -32.5t84.5 32.5t31.5 86.5v481h112v-475q0 -67 -29.5 -120t-81.5 -82t-117 -29t-117 29zM113 800q0 58 27.5 89t72.5 31q23 0 43 -7.5t43 -26.5l15 -12q14 -12 22.5 -17.5t17.5 -5.5q12 0 18 7.5
t6 20.5v41h92v-46q0 -58 -27.5 -89t-72.5 -31q-23 0 -43 7.5t-43 26.5l-15 12q-14 12 -22.5 17.5t-17.5 5.5q-12 0 -18 -7.5t-6 -20.5v-41h-92v46z" />
    <glyph glyph-name="utilde" unicode="&#x169;" horiz-adv-x="555" 
d="M105.5 47q-49.5 53 -49.5 153v300h110v-276q0 -65 27 -95.5t82 -30.5q53 0 81.5 34.5t28.5 91.5v276h110v-500h-110v57q-20 -26 -55 -44.5t-82 -18.5q-93 0 -142.5 53zM98 600q0 58 27.5 89t72.5 31q24 0 44 -7.5t42 -26.5l15 -12q14 -12 22.5 -17.5t17.5 -5.5
q12 0 18 7.5t6 20.5v41h92v-46q0 -58 -27.5 -89t-72.5 -31q-24 0 -44 7.5t-42 26.5l-15 12q-14 12 -22.5 17.5t-17.5 5.5q-12 0 -18 -7.5t-6 -20.5v-41h-92v46z" />
    <glyph glyph-name="Umacron" unicode="&#x16a;" horiz-adv-x="584" 
d="M175 23q-52 29 -81.5 82t-29.5 120v475h112v-481q0 -54 31.5 -86.5t84.5 -32.5t84.5 32.5t31.5 86.5v481h112v-475q0 -67 -29.5 -120t-81.5 -82t-117 -29t-117 29zM134 882h315v-100h-315v100z" />
    <glyph glyph-name="umacron" unicode="&#x16b;" horiz-adv-x="555" 
d="M105.5 47q-49.5 53 -49.5 153v300h110v-276q0 -65 27 -95.5t82 -30.5q53 0 81.5 34.5t28.5 91.5v276h110v-500h-110v57q-20 -26 -55 -44.5t-82 -18.5q-93 0 -142.5 53zM119 682h315v-100h-315v100z" />
    <glyph glyph-name="Ubreve" unicode="&#x16c;" horiz-adv-x="584" 
d="M175 23q-52 29 -81.5 82t-29.5 120v475h112v-481q0 -54 31.5 -86.5t84.5 -32.5t84.5 32.5t31.5 86.5v481h112v-475q0 -67 -29.5 -120t-81.5 -82t-117 -29t-117 29zM206 771.5q-40 21.5 -65.5 58.5t-30.5 82h103q6 -30 26 -49.5t53 -19.5t53 19.5t26 49.5h103
q-5 -45 -30.5 -82t-65.5 -58.5t-86 -21.5t-86 21.5z" />
    <glyph glyph-name="ubreve" unicode="&#x16d;" horiz-adv-x="555" 
d="M105.5 47q-49.5 53 -49.5 153v300h110v-276q0 -65 27 -95.5t82 -30.5q53 0 81.5 34.5t28.5 91.5v276h110v-500h-110v57q-20 -26 -55 -44.5t-82 -18.5q-93 0 -142.5 53zM191 571.5q-40 21.5 -65.5 58.5t-30.5 82h103q6 -30 26 -49.5t53 -19.5t53 19.5t26 49.5h103
q-5 -45 -30.5 -82t-65.5 -58.5t-86 -21.5t-86 21.5z" />
    <glyph glyph-name="Uring" unicode="&#x16e;" horiz-adv-x="584" 
d="M175 23q-52 29 -81.5 82t-29.5 120v475h112v-481q0 -54 31.5 -86.5t84.5 -32.5t84.5 32.5t31.5 86.5v481h112v-475q0 -67 -29.5 -120t-81.5 -82t-117 -29t-117 29zM221 779q-29 29 -29 71t29 71t71 29t71 -29t29 -71t-29 -71t-71 -29t-71 29zM312 830q8 8 8 20t-8 20
t-20 8t-20 -8t-8 -20t8 -20t20 -8t20 8z" />
    <glyph glyph-name="uring" unicode="&#x16f;" horiz-adv-x="555" 
d="M105.5 47q-49.5 53 -49.5 153v300h110v-276q0 -65 27 -95.5t82 -30.5q53 0 81.5 34.5t28.5 91.5v276h110v-500h-110v57q-20 -26 -55 -44.5t-82 -18.5q-93 0 -142.5 53zM206 579q-29 29 -29 71t29 71t71 29t71 -29t29 -71t-29 -71t-71 -29t-71 29zM297 630q8 8 8 20t-8 20
t-20 8t-20 -8t-8 -20t8 -20t20 -8t20 8z" />
    <glyph glyph-name="Uhungarumlaut" unicode="&#x170;" horiz-adv-x="584" 
d="M175 23q-52 29 -81.5 82t-29.5 120v475h112v-481q0 -54 31.5 -86.5t84.5 -32.5t84.5 32.5t31.5 86.5v481h112v-475q0 -67 -29.5 -120t-81.5 -82t-117 -29t-117 29zM48 825l197 152l63 -80l-197 -152zM275 825l197 152l63 -80l-197 -152z" />
    <glyph glyph-name="uhungarumlaut" unicode="&#x171;" horiz-adv-x="555" 
d="M105.5 47q-49.5 53 -49.5 153v300h110v-276q0 -65 27 -95.5t82 -30.5q53 0 81.5 34.5t28.5 91.5v276h110v-500h-110v57q-20 -26 -55 -44.5t-82 -18.5q-93 0 -142.5 53zM33 625l197 152l63 -80l-197 -152zM260 625l197 152l63 -80l-197 -152z" />
    <glyph glyph-name="Uogonek" unicode="&#x172;" horiz-adv-x="584" 
d="M520 700v-475q0 -87 -48.5 -148t-126.5 -78l-43 -93q-8 -17 -10.5 -25t-2.5 -18q0 -13 9.5 -22t29.5 -9h20v-82h-24q-55 0 -88 29t-33 76q0 27 18 66l34 76q-85 11 -138 73.5t-53 154.5v475h112v-481q0 -54 31.5 -86.5t84.5 -32.5t84.5 32.5t31.5 86.5v481h112z" />
    <glyph glyph-name="uogonek" unicode="&#x173;" horiz-adv-x="555" 
d="M502 -168v-82h-24q-55 0 -88 29t-33 76q0 24 15 60l35 85h-22v57q-20 -26 -55 -44.5t-82 -18.5q-93 0 -142.5 53t-49.5 153v300h110v-276q0 -65 27 -95.5t82 -30.5q53 0 81.5 34.5t28.5 91.5v276h110v-500l-39 -94q-6 -14 -9.5 -24t-3.5 -19q0 -13 9.5 -22t29.5 -9h20z
" />
    <glyph glyph-name="Wcircumflex" unicode="&#x174;" horiz-adv-x="892" 
d="M14 700h118l198 -550l61 178l-128 372h112l71 -213l71 213h112l-128 -372l61 -178l198 550h118l-260 -700h-112l-60 173l-60 -173h-112zM263 802l183 183l183 -183l-66 -67l-117 117l-117 -117z" />
    <glyph glyph-name="wcircumflex" unicode="&#x175;" horiz-adv-x="730" 
d="M24 500h112l132 -359l43 128l-87 231h108l33 -104l33 104h108l-87 -231l43 -128l132 359h112l-197 -500h-100l-44 131l-44 -131h-100zM182 602l183 183l183 -183l-66 -67l-117 117l-117 -117z" />
    <glyph glyph-name="Ycircumflex" unicode="&#x176;" horiz-adv-x="522" 
d="M205 300l-191 400h118l129 -286l129 286h118l-191 -400v-300h-112v300zM78 802l183 183l183 -183l-66 -67l-117 117l-117 -117z" />
    <glyph glyph-name="ycircumflex" unicode="&#x177;" horiz-adv-x="524" 
d="M207 88l-183 412h114l124 -291l124 291h114l-183 -412v-338l-110 -12v350zM80 602l183 183l183 -183l-66 -67l-117 117l-117 -117z" />
    <glyph glyph-name="Ydieresis" unicode="&#x178;" horiz-adv-x="522" 
d="M205 300l-191 400h118l129 -286l129 286h118l-191 -400v-300h-112v300zM92.5 798q-21.5 22 -21.5 53t21.5 53t52.5 22t52.5 -22t21.5 -53t-21.5 -53t-52.5 -22t-52.5 22zM323.5 798q-21.5 22 -21.5 53t21.5 53t52.5 22t52.5 -22t21.5 -53t-21.5 -53t-52.5 -22t-52.5 22z
" />
    <glyph glyph-name="Zacute" unicode="&#x179;" horiz-adv-x="617" 
d="M36 94l362 500h-323v106h461v-94l-362 -500h407v-106h-545v94zM238 837l226 106l44 -90l-226 -106z" />
    <glyph glyph-name="zacute" unicode="&#x17a;" horiz-adv-x="545" 
d="M44 94l290 302h-272v104h419v-94l-290 -302h308v-104h-455v94zM198 637l226 106l44 -90l-226 -106z" />
    <glyph glyph-name="Zdotaccent" unicode="&#x17b;" horiz-adv-x="617" 
d="M36 94l362 500h-323v106h461v-94l-362 -500h407v-106h-545v94zM260.5 778q-21.5 22 -21.5 53t21.5 53t52.5 22t52.5 -22t21.5 -53t-21.5 -53t-52.5 -22t-52.5 22z" />
    <glyph glyph-name="zdotaccent" unicode="&#x17c;" horiz-adv-x="545" 
d="M44 94l290 302h-272v104h419v-94l-290 -302h308v-104h-455v94zM220.5 578q-21.5 22 -21.5 53t21.5 53t52.5 22t52.5 -22t21.5 -53t-21.5 -53t-52.5 -22t-52.5 22z" />
    <glyph glyph-name="Zcaron" unicode="&#x17d;" horiz-adv-x="617" 
d="M36 94l362 500h-323v106h461v-94l-362 -500h407v-106h-545v94zM130 918l66 67l117 -117l117 117l66 -67l-183 -183z" />
    <glyph glyph-name="zcaron" unicode="&#x17e;" horiz-adv-x="545" 
d="M44 94l290 302h-272v104h419v-94l-290 -302h308v-104h-455v94zM90 718l66 67l117 -117l117 117l66 -67l-183 -183z" />
    <glyph glyph-name="longs" unicode="&#x17f;" horiz-adv-x="403" 
d="M112 396h-98v104h98v66q0 66 42 103t103 37q44 0 74 -12.5t50 -40.5l-73 -74q-7 10 -16.5 16.5t-26.5 6.5q-21 0 -32 -13t-11 -30v-559h-110v396z" />
    <glyph glyph-name="florin" unicode="&#x192;" horiz-adv-x="487" 
d="M14 -146h45q22 0 37 18t15 46v382h-97v104h97v118q0 53 24 95t66.5 65.5t96.5 23.5q60 0 101 -28t66 -76l-76 -68q-35 68 -91 68q-35 0 -56 -23t-21 -57v-118h158v-104h-158v-386q0 -78 -44.5 -121t-117.5 -43h-45v104z" />
    <glyph glyph-name="uni01B5" unicode="&#x1b5;" horiz-adv-x="617" 
d="M36 94l149 206h-58v100h130l141 194h-323v106h461v-94l-149 -206h54v-100h-127l-140 -194h407v-106h-545v94z" />
    <glyph glyph-name="uni01B6" unicode="&#x1b6;" horiz-adv-x="545" 
d="M499 104v-104h-455v94l100 104h-50v104h150l90 94h-272v104h419v-94l-100 -104h79v-104h-179l-90 -94h308z" />
    <glyph glyph-name="AEacute" unicode="&#x1fc;" horiz-adv-x="828" 
d="M275 700h501v-106h-333v-188h165v-106h-165v-194h339v-106h-451v115h-156l-42 -115h-117zM331 221v329l-119 -329h119zM442 837l226 106l44 -90l-226 -106z" />
    <glyph glyph-name="aeacute" unicode="&#x1fd;" horiz-adv-x="986" 
d="M163 27q-57 33 -90 91t-33 132t33 132t90 91t128 33q46 0 85.5 -17.5t57.5 -40.5v52h112v-40q65 46 146 46q70 0 128 -34.5t92 -93t34 -128.5q0 -20 -3 -38h-389q9 -48 48.5 -81t92.5 -33q39 0 68 12t45 36h131q-26 -68 -92.5 -110t-151.5 -42q-82 0 -149 46v-40h-112v52
q-18 -23 -57 -40.5t-86 -17.5q-71 0 -128 33zM826 306q-11 44 -48 71t-86 27t-86 -27t-48 -71h268zM397.5 141q40.5 41 40.5 109t-40.5 109t-102.5 41q-64 0 -105.5 -41t-41.5 -109t41.5 -109t105.5 -41q62 0 102.5 41zM418 637l226 106l44 -90l-226 -106z" />
    <glyph glyph-name="uni0218" unicode="&#x218;" horiz-adv-x="526" 
d="M148.5 24q-51.5 30 -81 82t-29.5 113h112q0 -51 30.5 -85t82.5 -34t82.5 33t30.5 86q0 39 -16.5 61.5t-41.5 34.5t-72 27q-40 12 -60 20q-50 20 -80 61.5t-30 98.5q0 53 24 95t66 65.5t94 23.5q121 0 176 -104l-85 -61q-13 28 -36 43.5t-52 15.5q-34 0 -55.5 -20.5
t-21.5 -51.5q0 -26 12.5 -41.5t33.5 -25t62 -23.5q24 -7 51 -18q69 -26 106 -73.5t37 -124.5q0 -64 -30 -116t-81.5 -82t-113.5 -30q-63 0 -114.5 30zM108 -209l100 167h120l-128 -220z" />
    <glyph glyph-name="uni0219" unicode="&#x219;" horiz-adv-x="413" 
d="M116 16.5q-39 22.5 -60.5 62t-21.5 86.5h105q0 -30 20 -48.5t46 -18.5q29 0 46.5 16.5t17.5 45.5q0 32 -19 45t-59 24q-5 1 -20 5q-44 12 -74 45t-30 89q0 39 18.5 70.5t50 49.5t69.5 18q75 0 119 -64l-68 -67q-6 15 -17.5 24t-26.5 9q-19 0 -29.5 -11t-10.5 -27
q0 -22 16.5 -32.5t53.5 -20.5q18 -4 40 -12q97 -36 97 -143q0 -75 -49 -121.5t-125 -46.5q-50 0 -89 22.5zM59 -209l100 167h120l-128 -220z" />
    <glyph glyph-name="uni021A" unicode="&#x21a;" horiz-adv-x="510" 
d="M199 594h-159v106h430v-106h-159v-594h-112v594zM98 -209l100 167h120l-128 -220z" />
    <glyph glyph-name="uni021B" unicode="&#x21b;" horiz-adv-x="411" 
d="M129 396h-101v104h101v200l110 12v-212h150v-104h-150v-396h-110v396zM44 -209l100 167h120l-128 -220z" />
    <glyph glyph-name="uni0237" unicode="&#x237;" horiz-adv-x="230" 
d="M60 500h110v-750l-110 -12v762z" />
    <glyph glyph-name="circumflex" unicode="&#x2c6;" horiz-adv-x="426" 
d="M30 602l183 183l183 -183l-66 -67l-117 117l-117 -117z" />
    <glyph glyph-name="caron" unicode="&#x2c7;" horiz-adv-x="426" 
d="M30 718l66 67l117 -117l117 117l66 -67l-183 -183z" />
    <glyph glyph-name="uni02C9" unicode="&#x2c9;" horiz-adv-x="375" 
d="M30 680h315v-100h-315v100z" />
    <glyph glyph-name="breve" unicode="&#x2d8;" horiz-adv-x="424" 
d="M126 571.5q-40 21.5 -65.5 58.5t-30.5 82h103q6 -30 26 -49.5t53 -19.5t53 19.5t26 49.5h103q-5 -45 -30.5 -82t-65.5 -58.5t-86 -21.5t-86 21.5z" />
    <glyph glyph-name="dotaccent" unicode="&#x2d9;" horiz-adv-x="208" 
d="M51.5 578q-21.5 22 -21.5 53t21.5 53t52.5 22t52.5 -22t21.5 -53t-21.5 -53t-52.5 -22t-52.5 22z" />
    <glyph glyph-name="ring" unicode="&#x2da;" horiz-adv-x="260" 
d="M59 579q-29 29 -29 71t29 71t71 29t71 -29t29 -71t-29 -71t-71 -29t-71 29zM150 630q8 8 8 20t-8 20t-20 8t-20 -8t-8 -20t8 -20t20 -8t20 8z" />
    <glyph glyph-name="ogonek" unicode="&#x2db;" horiz-adv-x="205" 
d="M63 -221q-33 29 -33 76q0 24 15 60l35 85h88l-39 -94q-6 -14 -9.5 -24t-3.5 -19q0 -13 9.5 -22t29.5 -9h20v-82h-24q-55 0 -88 29z" />
    <glyph glyph-name="tilde" unicode="&#x2dc;" horiz-adv-x="417" 
d="M30 600q0 58 27.5 89t72.5 31q24 0 44 -7.5t42 -26.5l15 -12q14 -12 22.5 -17.5t17.5 -5.5q12 0 18 7.5t6 20.5v41h92v-46q0 -58 -27.5 -89t-72.5 -31q-24 0 -44 7.5t-42 26.5l-15 12q-14 12 -22.5 17.5t-17.5 5.5q-12 0 -18 -7.5t-6 -20.5v-41h-92v46z" />
    <glyph glyph-name="hungarumlaut" unicode="&#x2dd;" horiz-adv-x="547" 
d="M30 625l197 152l63 -80l-197 -152zM257 625l197 152l63 -80l-197 -152z" />
    <glyph glyph-name="gravecomb" unicode="&#x300;" horiz-adv-x="0" 
d="M-270 653l44 90l226 -106l-44 -90z" />
    <glyph glyph-name="acutecomb" unicode="&#x301;" horiz-adv-x="0" 
d="M-270 637l226 106l44 -90l-226 -106z" />
    <glyph glyph-name="uni0302" unicode="&#x302;" horiz-adv-x="0" 
d="M-366 602l183 183l183 -183l-66 -67l-117 117l-117 -117z" />
    <glyph glyph-name="tildecomb" unicode="&#x303;" horiz-adv-x="0" 
d="M-357 600q0 58 27.5 89t72.5 31q24 0 44 -7.5t42 -26.5l15 -12q14 -12 22.5 -17.5t17.5 -5.5q12 0 18 7.5t6 20.5v41h92v-46q0 -58 -27.5 -89t-72.5 -31q-24 0 -44 7.5t-42 26.5l-15 12q-14 12 -22.5 17.5t-17.5 5.5q-12 0 -18 -7.5t-6 -20.5v-41h-92v46z" />
    <glyph glyph-name="uni0304" unicode="&#x304;" horiz-adv-x="0" 
d="M-315 682h315v-100h-315v100z" />
    <glyph glyph-name="uni0306" unicode="&#x306;" horiz-adv-x="0" 
d="M-268 571.5q-40 21.5 -65.5 58.5t-30.5 82h103q6 -30 26 -49.5t53 -19.5t53 19.5t26 49.5h103q-5 -45 -30.5 -82t-65.5 -58.5t-86 -21.5t-86 21.5z" />
    <glyph glyph-name="uni0307" unicode="&#x307;" horiz-adv-x="0" 
d="M-126.5 578q-21.5 22 -21.5 53t21.5 53t52.5 22t52.5 -22t21.5 -53t-21.5 -53t-52.5 -22t-52.5 22z" />
    <glyph glyph-name="uni0308" unicode="&#x308;" horiz-adv-x="0" 
d="M-357.5 578q-21.5 22 -21.5 53t21.5 53t52.5 22t52.5 -22t21.5 -53t-21.5 -53t-52.5 -22t-52.5 22zM-126.5 578q-21.5 22 -21.5 53t21.5 53t52.5 22t52.5 -22t21.5 -53t-21.5 -53t-52.5 -22t-52.5 22z" />
    <glyph glyph-name="uni030A" unicode="&#x30a;" horiz-adv-x="0" 
d="M-171 579q-29 29 -29 71t29 71t71 29t71 -29t29 -71t-29 -71t-71 -29t-71 29zM-80 630q8 8 8 20t-8 20t-20 8t-20 -8t-8 -20t8 -20t20 -8t20 8z" />
    <glyph glyph-name="uni030B" unicode="&#x30b;" horiz-adv-x="0" 
d="M-487 625l197 152l63 -80l-197 -152zM-260 625l197 152l63 -80l-197 -152z" />
    <glyph glyph-name="uni030C" unicode="&#x30c;" horiz-adv-x="0" 
d="M-366 718l66 67l117 -117l117 117l66 -67l-183 -183z" />
    <glyph glyph-name="uni0312" unicode="&#x312;" horiz-adv-x="0" 
d="M-92 712l92 -53l-71 -117h-120z" />
    <glyph glyph-name="uni0326" unicode="&#x326;" horiz-adv-x="0" 
d="M-220 -209l100 167h120l-128 -220z" />
    <glyph glyph-name="uni0327" unicode="&#x327;" horiz-adv-x="0" 
d="M-193 -223q-33 33 -33 80h82q0 -14 8.5 -22.5t22.5 -8.5q13 0 21.5 9t8.5 22q0 17 -9.5 27t-27.5 10h-75l63 106h80l-23 -40q32 -7 53.5 -33t21.5 -70q0 -47 -33.5 -80t-79.5 -33q-47 0 -80 33z" />
    <glyph glyph-name="uni0328" unicode="&#x328;" horiz-adv-x="0" 
d="M-112 -221q-33 29 -33 76q0 24 15 60l35 85h88l-39 -94q-6 -14 -9.5 -24t-3.5 -19q0 -13 9.5 -22t29.5 -9h20v-82h-24q-55 0 -88 29z" />
    <glyph glyph-name="uni0335" unicode="&#x335;" horiz-adv-x="0" 
d="M-363 364h363v-68h-363v68z" />
    <glyph glyph-name="uni0336" unicode="&#x336;" horiz-adv-x="0" 
d="M-424 364h424v-68h-424v68z" />
    <glyph glyph-name="uni0337" unicode="&#x337;" horiz-adv-x="0" 
d="M-496 54l446 446l50 -54l-446 -446z" />
    <glyph glyph-name="uni0338" unicode="&#x338;" horiz-adv-x="0" 
d="M-696 54l646 646l50 -54l-646 -646z" />
    <glyph glyph-name="uni0394" unicode="&#x394;" horiz-adv-x="816" 
d="M408 712l400 -712h-800zM626 106l-218 389l-218 -389h436z" />
    <glyph glyph-name="uni03A9" unicode="&#x3a9;" horiz-adv-x="784" 
d="M46 106h110q-50 50 -80 113.5t-30 130.5q0 101 43.5 182t122.5 127.5t180 46.5t180 -46.5t122.5 -127.5t43.5 -182q0 -67 -30 -130.5t-80 -113.5h110v-106h-292v104q51 13 92.5 49.5t64.5 87.5t23 109q0 71 -29.5 128t-83 89.5t-121.5 32.5t-121.5 -32.5t-83 -89.5
t-29.5 -128q0 -58 23 -109t64.5 -87.5t92.5 -49.5v-104h-292v106z" />
    <glyph glyph-name="uni03BC" unicode="&#x3bc;" horiz-adv-x="559" 
d="M60 500h110v-276q0 -65 27 -95.5t82 -30.5q53 0 81.5 34.5t28.5 91.5v276h110v-500h-110v57q-20 -26 -55 -44.5t-82 -18.5q-45 0 -82 13v-257l-110 -12v762z" />
    <glyph glyph-name="pi" unicode="&#x3c0;" horiz-adv-x="616" 
d="M164 396h-104v104h496v-104h-102v-396h-110v396h-70v-396h-110v396z" />
    <glyph glyph-name="Wgrave" unicode="&#x1e80;" horiz-adv-x="892" 
d="M14 700h118l198 -550l61 178l-128 372h112l71 -213l71 213h112l-128 -372l61 -178l198 550h118l-260 -700h-112l-60 173l-60 -173h-112zM251 853l44 90l226 -106l-44 -90z" />
    <glyph glyph-name="wgrave" unicode="&#x1e81;" horiz-adv-x="730" 
d="M24 500h112l132 -359l43 128l-87 231h108l33 -104l33 104h108l-87 -231l43 -128l132 359h112l-197 -500h-100l-44 131l-44 -131h-100zM170 653l44 90l226 -106l-44 -90z" />
    <glyph glyph-name="Wacute" unicode="&#x1e82;" horiz-adv-x="892" 
d="M14 700h118l198 -550l61 178l-128 372h112l71 -213l71 213h112l-128 -372l61 -178l198 550h118l-260 -700h-112l-60 173l-60 -173h-112zM371 837l226 106l44 -90l-226 -106z" />
    <glyph glyph-name="wacute" unicode="&#x1e83;" horiz-adv-x="730" 
d="M24 500h112l132 -359l43 128l-87 231h108l33 -104l33 104h108l-87 -231l43 -128l132 359h112l-197 -500h-100l-44 131l-44 -131h-100zM290 637l226 106l44 -90l-226 -106z" />
    <glyph glyph-name="Wdieresis" unicode="&#x1e84;" horiz-adv-x="892" 
d="M14 700h118l198 -550l61 178l-128 372h112l71 -213l71 213h112l-128 -372l61 -178l198 550h118l-260 -700h-112l-60 173l-60 -173h-112zM277.5 798q-21.5 22 -21.5 53t21.5 53t52.5 22t52.5 -22t21.5 -53t-21.5 -53t-52.5 -22t-52.5 22zM508.5 798q-21.5 22 -21.5 53
t21.5 53t52.5 22t52.5 -22t21.5 -53t-21.5 -53t-52.5 -22t-52.5 22z" />
    <glyph glyph-name="wdieresis" unicode="&#x1e85;" horiz-adv-x="730" 
d="M24 500h112l132 -359l43 128l-87 231h108l33 -104l33 104h108l-87 -231l43 -128l132 359h112l-197 -500h-100l-44 131l-44 -131h-100zM196.5 578q-21.5 22 -21.5 53t21.5 53t52.5 22t52.5 -22t21.5 -53t-21.5 -53t-52.5 -22t-52.5 22zM427.5 578q-21.5 22 -21.5 53
t21.5 53t52.5 22t52.5 -22t21.5 -53t-21.5 -53t-52.5 -22t-52.5 22z" />
    <glyph glyph-name="uni1E9E" unicode="&#x1e9e;" horiz-adv-x="646" 
d="M301.5 16.5q-41.5 22.5 -63 52t-26.5 51.5l96 48q28 -70 96 -70q43 0 67.5 30t24.5 79q0 40 -22.5 64.5t-62.5 44.5q-73 37 -103 83.5t-30 101.5q0 26 7 52t20 41h-129v-594h-112v700h398v-106q-32 -1 -53 -23.5t-21 -54.5q0 -33 18.5 -59t68.5 -53q133 -70 133 -197
q0 -60 -26.5 -108.5t-73.5 -76.5t-106 -28t-100.5 22.5z" />
    <glyph glyph-name="Ygrave" unicode="&#x1ef2;" horiz-adv-x="522" 
d="M205 300l-191 400h118l129 -286l129 286h118l-191 -400v-300h-112v300zM66 853l44 90l226 -106l-44 -90z" />
    <glyph glyph-name="ygrave" unicode="&#x1ef3;" horiz-adv-x="524" 
d="M207 88l-183 412h114l124 -291l124 291h114l-183 -412v-338l-110 -12v350zM68 653l44 90l226 -106l-44 -90z" />
    <glyph glyph-name="endash" unicode="&#x2013;" horiz-adv-x="561" 
d="M50 380h461v-100h-461v100z" />
    <glyph glyph-name="emdash" unicode="&#x2014;" horiz-adv-x="792" 
d="M50 380h692v-100h-692v100z" />
    <glyph glyph-name="quoteleft" unicode="&#x2018;" horiz-adv-x="314" 
d="M280 647l-126 -213h-120l154 266z" />
    <glyph glyph-name="quoteright" unicode="&#x2019;" horiz-adv-x="314" 
d="M34 487l126 213h120l-154 -266z" />
    <glyph glyph-name="quotesinglbase" unicode="&#x201a;" horiz-adv-x="272" 
d="M-8 -89l126 213h120l-154 -266z" />
    <glyph glyph-name="quotedblleft" unicode="&#x201c;" horiz-adv-x="488" 
d="M280 671l-126 -213h-120l154 266zM454 671l-126 -213h-120l154 266z" />
    <glyph glyph-name="quotedblright" unicode="&#x201d;" horiz-adv-x="488" 
d="M208 487l126 213h120l-154 -266zM34 487l126 213h120l-154 -266z" />
    <glyph glyph-name="quotedblbase" unicode="&#x201e;" horiz-adv-x="446" 
d="M166 -89l126 213h120l-154 -266zM-8 -89l126 213h120l-154 -266z" />
    <glyph glyph-name="dagger" unicode="&#x2020;" horiz-adv-x="530" 
d="M209 394h-159v106h159v200l112 12v-212h159v-106h-159v-644l-112 -12v656z" />
    <glyph glyph-name="daggerdbl" unicode="&#x2021;" horiz-adv-x="530" 
d="M209 174h-159v106h159v114h-159v106h159v200l112 12v-212h159v-106h-159v-114h159v-106h-159v-424l-112 -12v436z" />
    <glyph glyph-name="bullet" unicode="&#x2022;" horiz-adv-x="292" 
d="M72.5 275q-30.5 31 -30.5 75t30.5 75t73.5 31t73.5 -31t30.5 -75t-30.5 -75t-73.5 -31t-73.5 31z" />
    <glyph glyph-name="ellipsis" unicode="&#x2026;" horiz-adv-x="652" 
d="M63.5 16q-21.5 22 -21.5 53t21.5 53t52.5 22t52.5 -22t21.5 -53t-21.5 -53t-52.5 -22t-52.5 22zM273.5 16q-21.5 22 -21.5 53t21.5 53t52.5 22t52.5 -22t21.5 -53t-21.5 -53t-52.5 -22t-52.5 22zM483.5 16q-21.5 22 -21.5 53t21.5 53t52.5 22t52.5 -22t21.5 -53
t-21.5 -53t-52.5 -22t-52.5 22z" />
    <glyph glyph-name="perthousand" unicode="&#x2030;" horiz-adv-x="1336" 
d="M240 -61l365 861l91 -39l-365 -861zM127.5 367.5q-41.5 23.5 -64.5 65t-23 92.5t23 92.5t64.5 65t93.5 23.5t93.5 -23.5t64.5 -65t23 -92.5t-23 -92.5t-64.5 -65t-93.5 -23.5t-93.5 23.5zM279.5 465q22.5 23 22.5 60t-22.5 60t-58.5 23t-58.5 -23t-22.5 -60t22.5 -60
t58.5 -23t58.5 23zM621.5 17.5q-41.5 23.5 -64.5 65t-23 92.5t23 92.5t64.5 65t93.5 23.5t93.5 -23.5t64.5 -65t23 -92.5t-23 -92.5t-64.5 -65t-93.5 -23.5t-93.5 23.5zM1021.5 17.5q-41.5 23.5 -64.5 65t-23 92.5t23 92.5t64.5 65t93.5 23.5t93.5 -23.5t64.5 -65t23 -92.5
t-23 -92.5t-64.5 -65t-93.5 -23.5t-93.5 23.5zM773.5 115q22.5 23 22.5 60t-22.5 60t-58.5 23t-58.5 -23t-22.5 -60t22.5 -60t58.5 -23t58.5 23zM1173.5 115q22.5 23 22.5 60t-22.5 60t-58.5 23t-58.5 -23t-22.5 -60t22.5 -60t58.5 -23t58.5 23z" />
    <glyph glyph-name="guilsinglleft" unicode="&#x2039;" horiz-adv-x="384" 
d="M26 300l249 250l71 -70l-180 -180l180 -180l-71 -70z" />
    <glyph glyph-name="guilsinglright" unicode="&#x203a;" horiz-adv-x="390" 
d="M31 120l180 180l-180 180l71 70l249 -250l-249 -250z" />
    <glyph glyph-name="uni203D" unicode="&#x203d;" horiz-adv-x="515" 
d="M367.5 679q49.5 -27 75.5 -72t26 -99q0 -63 -25.5 -99t-73.5 -68q-40 -27 -54 -56t-14 -77h-112v332h112v-123q28 21 42 41.5t14 48.5q0 40 -29 66.5t-80 26.5q-48 0 -81.5 -27t-50.5 -73l-85 65q31 65 88 103t130 38q68 0 117.5 -27zM298.5 122q21.5 -22 21.5 -53
t-21.5 -53t-52.5 -22t-52.5 22t-21.5 53t21.5 53t52.5 22t52.5 -22z" />
    <glyph glyph-name="fraction" unicode="&#x2044;" horiz-adv-x="312" 
d="M-200 46l660 660l52 -52l-660 -660z" />
    <glyph glyph-name="uni2048" unicode="&#x2048;" horiz-adv-x="707" 
d="M209 318q22 44 65 75q35 25 51 38t27 32t11 44q0 40 -29 66.5t-80 26.5q-93 0 -130 -100l-92 52q28 72 87.5 113t137.5 41q68 0 117 -27t74.5 -72t25.5 -99q0 -63 -25.5 -99t-73.5 -68q-42 -28 -59 -58t-17 -75h-112q0 66 22 110zM190.5 16q-21.5 22 -21.5 53t21.5 53
t52.5 22t52.5 -22t21.5 -53t-21.5 -53t-52.5 -22t-52.5 22zM535 700l112 12v-504h-112v492zM538.5 16q-21.5 22 -21.5 53t21.5 53t52.5 22t52.5 -22t21.5 -53t-21.5 -53t-52.5 -22t-52.5 22z" />
    <glyph glyph-name="uni2049" unicode="&#x2049;" horiz-adv-x="740" 
d="M60 700l112 12v-504h-112v492zM63.5 16q-21.5 22 -21.5 53t21.5 53t52.5 22t52.5 -22t21.5 -53t-21.5 -53t-52.5 -22t-52.5 22zM429 318q22 44 65 75q35 25 51 38t27 32t11 44q0 40 -29 66.5t-80 26.5q-93 0 -130 -100l-92 52q28 72 87.5 113t137.5 41q68 0 117 -27
t74.5 -72t25.5 -99q0 -63 -25.5 -99t-73.5 -68q-42 -28 -59 -58t-17 -75h-112q0 66 22 110zM410.5 16q-21.5 22 -21.5 53t21.5 53t52.5 22t52.5 -22t21.5 -53t-21.5 -53t-52.5 -22t-52.5 22z" />
    <glyph glyph-name="uni2070" unicode="&#x2070;" horiz-adv-x="352" 
d="M76.5 495.5q-40.5 45.5 -40.5 137.5t40.5 137.5t99.5 45.5t99.5 -45.5t40.5 -137.5t-40.5 -137.5t-99.5 -45.5t-99.5 45.5zM242 633q0 112 -66 112t-66 -112t66 -112t66 112z" />
    <glyph glyph-name="uni2074" unicode="&#x2074;" horiz-adv-x="323" 
d="M172 575h-136v236l74 7v-172h62v125h74v-125h45v-71h-45v-119h-74v119z" />
    <glyph glyph-name="uni2075" unicode="&#x2075;" horiz-adv-x="300" 
d="M68.5 483.5q-34.5 33.5 -34.5 83.5h73q1 -20 14 -33t32 -13q20 0 31.5 14t11.5 37t-11 35.5t-31 12.5q-22 0 -33 -18h-66v209h195v-72h-123v-60q15 8 35 8q48 0 78 -31.5t30 -83.5q0 -51 -33.5 -86.5t-83.5 -35.5t-84.5 33.5z" />
    <glyph glyph-name="uni2076" unicode="&#x2076;" horiz-adv-x="297" 
d="M62.5 480q-32.5 30 -32.5 81q0 37 25 85l87 165h78l-66 -125h1q49 0 80.5 -32.5t31.5 -84.5t-33.5 -85.5t-85.5 -33.5q-53 0 -85.5 30zM180 534q12 13 12 35q0 21 -12 33.5t-32 12.5t-32 -12.5t-12 -33.5q0 -22 12 -35t32 -13t32 13z" />
    <glyph glyph-name="uni2077" unicode="&#x2077;" horiz-adv-x="291" 
d="M100 601h-27v68h63l39 70h-153v72h239v-58l-45 -84h23v-68h-59l-76 -145h-80z" />
    <glyph glyph-name="uni2078" unicode="&#x2078;" horiz-adv-x="300" 
d="M64.5 484q-34.5 34 -34.5 85q0 25 11 47.5t31 39.5q-22 31 -22 62q0 42 28.5 70t71.5 28t71.5 -28t28.5 -70q0 -31 -22 -62q20 -17 31 -39.5t11 -47.5q0 -51 -34.5 -85t-85.5 -34t-85.5 34zM172 695q9 9 9 23t-9 22.5t-22 8.5t-22 -8.5t-9 -22.5t9 -23t22 -9t22 9z
M183 534.5q13 13.5 13 34.5t-13 34t-33 13t-33 -13t-13 -34t13 -34.5t33 -13.5t33 13.5z" />
    <glyph glyph-name="uni2079" unicode="&#x2079;" horiz-adv-x="294" 
d="M184 587q-24 -12 -50 -12q-51 0 -83.5 33.5t-32.5 85.5t32.5 85t83.5 33q29 0 50 -12v9l74 7v-360h-74v131zM171 659q13 13 13 35t-13 35t-33 13t-33 -13t-13 -35t13 -35t33 -13t33 13z" />
    <glyph glyph-name="uni2080" unicode="&#x2080;" horiz-adv-x="352" 
d="M76.5 -210.5q-40.5 45.5 -40.5 137.5t40.5 137.5t99.5 45.5t99.5 -45.5t40.5 -137.5t-40.5 -137.5t-99.5 -45.5t-99.5 45.5zM242 -73q0 112 -66 112t-66 -112t66 -112t66 112z" />
    <glyph glyph-name="uni2081" unicode="&#x2081;" horiz-adv-x="146" 
d="M36 105l74 7v-362h-74v355z" />
    <glyph glyph-name="uni2082" unicode="&#x2082;" horiz-adv-x="306" 
d="M40 -177q0 46 26 76t76 46q32 10 46 20.5t14 32.5q0 20 -11 30.5t-32 10.5q-44 0 -58 -56l-54 51q13 35 43 55.5t68 20.5q54 0 86 -30t32 -81q0 -85 -91 -115q-36 -12 -53.5 -24t-17.5 -39h162v-71h-236v73z" />
    <glyph glyph-name="uni2083" unicode="&#x2083;" horiz-adv-x="304" 
d="M64.5 -218.5q-35.5 37.5 -34.5 91.5h72q0 -26 13.5 -42t36.5 -16q22 0 34 12.5t12 35.5q0 47 -48 47h-30v71h29q14 0 22 9t8 23q0 12 -7 19t-20 7q-30 0 -43 -38l-53 46q12 28 38.5 45.5t57.5 17.5q45 0 72 -25.5t27 -68.5q0 -17 -6 -34.5t-17 -29.5q44 -33 44 -89
q0 -53 -33.5 -86t-86.5 -33q-52 0 -87.5 37.5z" />
    <glyph glyph-name="uni2084" unicode="&#x2084;" horiz-adv-x="323" 
d="M172 -131h-136v236l74 7v-172h62v125h74v-125h45v-71h-45v-119h-74v119z" />
    <glyph glyph-name="uni2085" unicode="&#x2085;" horiz-adv-x="300" 
d="M68.5 -222.5q-34.5 33.5 -34.5 83.5h73q1 -20 14 -33t32 -13q20 0 31.5 14t11.5 37t-11 35.5t-31 12.5q-22 0 -33 -18h-66v209h195v-72h-123v-60q15 8 35 8q48 0 78 -31.5t30 -83.5q0 -51 -33.5 -86.5t-83.5 -35.5t-84.5 33.5z" />
    <glyph glyph-name="uni2086" unicode="&#x2086;" horiz-adv-x="297" 
d="M62.5 -226q-32.5 30 -32.5 81q0 37 25 85l87 165h78l-66 -125h1q49 0 80.5 -32.5t31.5 -84.5t-33.5 -85.5t-85.5 -33.5q-53 0 -85.5 30zM180 -172q12 13 12 35q0 21 -12 33.5t-32 12.5t-32 -12.5t-12 -33.5q0 -22 12 -35t32 -13t32 13z" />
    <glyph glyph-name="uni2087" unicode="&#x2087;" horiz-adv-x="291" 
d="M100 -105h-27v68h63l39 70h-153v72h239v-58l-45 -84h23v-68h-59l-76 -145h-80z" />
    <glyph glyph-name="uni2088" unicode="&#x2088;" horiz-adv-x="300" 
d="M64.5 -222q-34.5 34 -34.5 85q0 25 11 47.5t31 39.5q-22 31 -22 62q0 42 28.5 70t71.5 28t71.5 -28t28.5 -70q0 -31 -22 -62q20 -17 31 -39.5t11 -47.5q0 -51 -34.5 -85t-85.5 -34t-85.5 34zM172 -11q9 9 9 23t-9 22.5t-22 8.5t-22 -8.5t-9 -22.5t9 -23t22 -9t22 9z
M183 -171.5q13 13.5 13 34.5t-13 34t-33 13t-33 -13t-13 -34t13 -34.5t33 -13.5t33 13.5z" />
    <glyph glyph-name="uni2089" unicode="&#x2089;" horiz-adv-x="294" 
d="M184 -119q-24 -12 -50 -12q-51 0 -83.5 33.5t-32.5 85.5t32.5 85t83.5 33q29 0 50 -12v9l74 7v-360h-74v131zM171 -47q13 13 13 35t-13 35t-33 13t-33 -13t-13 -35t13 -35t33 -13t33 13z" />
    <glyph glyph-name="franc" unicode="&#x20a3;" horiz-adv-x="609" 
d="M240 594v-188h191v-106h-191v-94h141v-106h-141v-100h-112v100h-88v106h88v494h445v-106h-333z" />
    <glyph glyph-name="uni20A8" unicode="&#x20a8;" horiz-adv-x="863" 
d="M64 700h205q56 0 102 -23.5t72.5 -69t26.5 -107.5q0 -80 -45 -131t-114 -65l159 -304h-128l-150 300h-16v-300h-112v700zM270 406q44 0 67 26t23 68t-23 68t-67 26h-94v-188h94zM566 16.5q-39 22.5 -60.5 62t-21.5 86.5h105q0 -30 20 -48.5t46 -18.5q29 0 46.5 16.5
t17.5 45.5q0 32 -19 45t-59 24q-5 1 -20 5q-44 12 -74 45t-30 89q0 39 18.5 70.5t50 49.5t69.5 18q75 0 119 -64l-68 -67q-6 15 -17.5 24t-26.5 9q-19 0 -29.5 -11t-10.5 -27q0 -22 16.5 -32.5t53.5 -20.5q18 -4 40 -12q97 -36 97 -143q0 -75 -49 -121.5t-125 -46.5
q-50 0 -89 22.5z" />
    <glyph glyph-name="dong" unicode="&#x20ab;" horiz-adv-x="543" 
d="M513 653v-80h-68v-437h-110v42q-24 -25 -50.5 -36.5t-65.5 -11.5q-56 0 -97 28.5t-61.5 74t-20.5 97.5t20.5 97.5t61.5 74t97 28.5q38 0 65.5 -11.5t50.5 -36.5v91h-155v80h155v47l110 12v-59h68zM312 263q25 27 25 67t-25 67t-69 27t-69.5 -27.5t-25.5 -66.5t25.5 -66.5
t69.5 -27.5t69 27zM60 79h403v-80h-403v80z" />
    <glyph glyph-name="Euro" unicode="&#x20ac;" horiz-adv-x="855" 
d="M817 299q-11 -86 -58.5 -155.5t-121.5 -109.5t-163 -40q-76 0 -142 30t-113.5 83t-70.5 122h-108v100h89q-1 7 -1 21v19h-88v100h107q23 69 70.5 123t114 84t142.5 30q82 0 149.5 -34t116.5 -94l-78 -78q-69 100 -188 100q-69 0 -123.5 -35.5t-82.5 -95.5h218v-100h-243
q-1 -6 -1 -19q0 -14 1 -21h243v-100h-217q29 -59 83 -94t122 -35q88 0 150.5 55t77.5 144h115z" />
    <glyph glyph-name="uni20AD" unicode="&#x20ad;" horiz-adv-x="623" 
d="M392 299l211 -299h-132l-206 299h-34v-299h-112v299h-79v106h79v295h112v-295h35l205 295h132l-210 -295h172v-106h-173z" />
    <glyph glyph-name="uni20B1" unicode="&#x20b1;" horiz-adv-x="716" 
d="M676 485h-74q1 -6 1 -17t-1 -17h74v-76h-90q-25 -65 -83 -102t-132 -37h-121v-236h-112v375h-98v76h98v34h-98v76h98v139h233q74 0 132 -37t83 -102h90v-76zM250 561h203q-35 33 -88 33h-115v-33zM488 485h-238v-34h238q1 5 1 17t-1 17zM453 375h-203v-33h115q53 0 88 33
z" />
    <glyph glyph-name="uni20B4" unicode="&#x20b4;" horiz-adv-x="582" 
d="M50 472h248q33 13 46.5 31t13.5 41q0 25 -21 40.5t-54 15.5q-29 0 -53 -15.5t-37 -43.5l-75 75q25 43 72.5 66.5t103.5 23.5q51 0 90.5 -19t61.5 -51.5t22 -72.5q0 -25 -10.5 -50.5t-27.5 -40.5h102v-104h-482v104zM198.5 12.5q-39.5 18.5 -61.5 51t-22 72.5
q0 25 10.5 51.5t27.5 40.5h-103v104h482v-104h-247q-33 -13 -46.5 -31t-13.5 -41q0 -25 21 -40.5t54 -15.5q29 0 53 15.5t37 43.5l75 -75q-25 -43 -72 -66.5t-104 -23.5q-51 0 -90.5 18.5z" />
    <glyph glyph-name="uni20B8" unicode="&#x20b8;" horiz-adv-x="510" 
d="M40 700h430v-106h-430v106zM199 444h-159v106h430v-106h-159v-444h-112v444z" />
    <glyph glyph-name="uni20BA" unicode="&#x20ba;" horiz-adv-x="602" 
d="M542 262q-1 -131 -73 -196.5t-198 -65.5h-138v253l-93 -29v106l93 29v74l-93 -29v106l93 29v161h112v-127l139 43v-106l-139 -43v-74l139 43v-106l-139 -43v-181q68 2 107 17.5t57 49t21 89.5h112z" />
    <glyph glyph-name="uni20BD" unicode="&#x20bd;" horiz-adv-x="610" 
d="M115 106h-75v106h75v68h-75v106h75v314h233q64 0 114.5 -25t79 -72.5t28.5 -112.5t-28.5 -112.5t-79 -72.5t-114.5 -25h-121v-68h168v-106h-168v-106h-112v106zM342 386q54 0 84 26.5t30 77.5t-30 77.5t-84 26.5h-115v-208h115z" />
    <glyph glyph-name="uni20BF" unicode="&#x20bf;" horiz-adv-x="555" 
d="M477.5 88.5q-43.5 -57.5 -112.5 -78.5v-80h-102v70h-48v-70h-102v70h-49v700h49v70h102v-70h48v70h102v-81q54 -19 83.5 -63.5t29.5 -106.5q0 -40 -19 -72.5t-46 -47.5q44 -22 76 -69.5t32 -107.5q0 -76 -43.5 -133.5zM176 444h116q36 0 56 20t20 55t-20 55t-56 20h-116
v-150zM377.5 138q31.5 32 31.5 84t-31.5 84t-85.5 32h-116v-232h116q54 0 85.5 32z" />
    <glyph glyph-name="uni2113" unicode="&#x2113;" horiz-adv-x="545" 
d="M214.5 21.5q-41.5 27.5 -67.5 80.5l-76 -30l-31 105l74 32q-9 50 -9 106q0 118 28.5 208t82 139.5t126.5 49.5q79 0 121 -53.5t42 -147.5q0 -121 -68 -208t-189 -153q10 -24 28.5 -35.5t38.5 -11.5q23 0 47 10t71 49l59 -81q-88 -87 -183 -87q-53 0 -94.5 27.5zM390 514
q0 39 -14.5 62.5t-44.5 23.5q-33 0 -59 -36t-40.5 -101t-14.5 -148q0 -19 2 -53q171 100 171 252z" />
    <glyph glyph-name="uni2117" unicode="&#x2117;" horiz-adv-x="784" 
d="M215 41.5q-79 47.5 -124 129t-45 179.5t45 179.5t124 129t177 47.5t177 -47.5t124 -129t45 -179.5t-45 -179.5t-124 -129t-177 -47.5t-177 47.5zM530 102q62 38 97.5 103.5t35.5 144.5t-35.5 144.5t-97.5 103.5t-138 38t-138 -38t-97.5 -103.5t-35.5 -144.5t35.5 -144.5
t97.5 -103.5t138 -38t138 38zM281 569h130q53 0 90 -35t37 -94t-37 -94t-90 -35h-55v-183h-75v441zM405 381q28 0 43 16t15 43t-15 43t-43 16h-49v-118h49z" />
    <glyph glyph-name="uni2120" unicode="&#x2120;" horiz-adv-x="678" 
d="M66.5 424q-28.5 30 -26.5 76h58q0 -23 11.5 -36t32.5 -13q17 0 28 11t11 30q0 18 -12 28.5t-42 21.5q-38 14 -55.5 32t-17.5 49q0 36 24.5 59.5t60.5 23.5q53 0 77 -44l-40 -40q-4 14 -13 20.5t-21 6.5q-11 0 -18 -6t-7 -17q0 -13 9.5 -19.5t24.5 -12.5t22 -9
q70 -29 70 -89q0 -43 -29 -72.5t-74 -29.5t-73.5 30zM284 700h79l98 -207l98 207h79v-300h-68v175l-83 -175h-52l-83 175v-175h-68v300z" />
    <glyph glyph-name="trademark" unicode="&#x2122;" horiz-adv-x="682" 
d="M112 633h-72v67h212v-67h-72v-233h-68v233zM288 700h79l98 -207l98 207h79v-300h-68v175l-83 -175h-52l-83 175v-175h-68v300z" />
    <glyph glyph-name="uni2126" unicode="&#x2126;" horiz-adv-x="784" 
d="M46 106h110q-50 50 -80 113.5t-30 130.5q0 101 43.5 182t122.5 127.5t180 46.5t180 -46.5t122.5 -127.5t43.5 -182q0 -67 -30 -130.5t-80 -113.5h110v-106h-292v104q51 13 92.5 49.5t64.5 87.5t23 109q0 71 -29.5 128t-83 89.5t-121.5 32.5t-121.5 -32.5t-83 -89.5
t-29.5 -128q0 -58 23 -109t64.5 -87.5t92.5 -49.5v-104h-292v106z" />
    <glyph glyph-name="estimated" unicode="&#x212e;" horiz-adv-x="779" 
d="M536.5 62.5q61.5 30.5 116.5 101.5l30 -22q-50 -72 -125.5 -110t-153.5 -38q-108 0 -188.5 52t-123 138t-42.5 184q0 96 47 175t126 124t170 45q108 0 184 -54t114 -136.5t38 -164.5h-567v-201q16 -32 52 -60.5t85.5 -46t103.5 -17.5q72 0 133.5 30.5zM263.5 643.5
q-64.5 -30.5 -101.5 -84.5v-163h455v157q-30 55 -90.5 88t-134.5 33q-64 0 -128.5 -30.5z" />
    <glyph glyph-name="uni2153" unicode="&#x2153;" horiz-adv-x="856" 
d="M126 711l74 7v-362h-74v355zM36 46l660 660l52 -52l-660 -660zM612.5 31.5q-35.5 37.5 -34.5 91.5h72q0 -26 13.5 -42t36.5 -16q22 0 34 12.5t12 35.5q0 47 -48 47h-30v71h29q14 0 22 9t8 23q0 12 -7 19t-20 7q-30 0 -43 -38l-53 46q12 28 38.5 45.5t57.5 17.5
q45 0 72 -25.5t27 -68.5q0 -17 -6 -34.5t-17 -29.5q44 -33 44 -89q0 -53 -33.5 -86t-86.5 -33q-52 0 -87.5 37.5z" />
    <glyph glyph-name="uni2154" unicode="&#x2154;" horiz-adv-x="922" 
d="M40 429q0 46 26 76t76 46q32 10 46 20.5t14 32.5q0 20 -11 30.5t-32 10.5q-44 0 -58 -56l-54 51q13 35 43 55.5t68 20.5q54 0 86 -30t32 -81q0 -85 -91 -115q-36 -12 -53.5 -24t-17.5 -39h162v-71h-236v73zM106 46l660 660l52 -52l-660 -660zM682.5 31.5
q-35.5 37.5 -34.5 91.5h72q0 -26 13.5 -42t36.5 -16q22 0 34 12.5t12 35.5q0 47 -48 47h-30v71h29q14 0 22 9t8 23q0 12 -7 19t-20 7q-30 0 -43 -38l-53 46q12 28 38.5 45.5t57.5 17.5q45 0 72 -25.5t27 -68.5q0 -17 -6 -34.5t-17 -29.5q44 -33 44 -89q0 -53 -33.5 -86
t-86.5 -33q-52 0 -87.5 37.5z" />
    <glyph glyph-name="oneeighth" unicode="&#x215b;" horiz-adv-x="848" 
d="M126 711l74 7v-362h-74v355zM36 46l660 660l52 -52l-660 -660zM612.5 28q-34.5 34 -34.5 85q0 25 11 47.5t31 39.5q-22 31 -22 62q0 42 28.5 70t71.5 28t71.5 -28t28.5 -70q0 -31 -22 -62q20 -17 31 -39.5t11 -47.5q0 -51 -34.5 -85t-85.5 -34t-85.5 34zM720 239
q9 9 9 23t-9 22.5t-22 8.5t-22 -8.5t-9 -22.5t9 -23t22 -9t22 9zM731 78.5q13 13.5 13 34.5t-13 34t-33 13t-33 -13t-13 -34t13 -34.5t33 -13.5t33 13.5z" />
    <glyph glyph-name="threeeighths" unicode="&#x215c;" horiz-adv-x="916" 
d="M64.5 387.5q-35.5 37.5 -34.5 91.5h72q0 -26 13.5 -42t36.5 -16q22 0 34 12.5t12 35.5q0 47 -48 47h-30v71h29q14 0 22 9t8 23q0 12 -7 19t-20 7q-30 0 -43 -38l-53 46q12 28 38.5 45.5t57.5 17.5q45 0 72 -25.5t27 -68.5q0 -17 -6 -34.5t-17 -29.5q44 -33 44 -89
q0 -53 -33.5 -86t-86.5 -33q-52 0 -87.5 37.5zM104 46l660 660l52 -52l-660 -660zM680.5 28q-34.5 34 -34.5 85q0 25 11 47.5t31 39.5q-22 31 -22 62q0 42 28.5 70t71.5 28t71.5 -28t28.5 -70q0 -31 -22 -62q20 -17 31 -39.5t11 -47.5q0 -51 -34.5 -85t-85.5 -34t-85.5 34z
M788 239q9 9 9 23t-9 22.5t-22 8.5t-22 -8.5t-9 -22.5t9 -23t22 -9t22 9zM799 78.5q13 13.5 13 34.5t-13 34t-33 13t-33 -13t-13 -34t13 -34.5t33 -13.5t33 13.5z" />
    <glyph glyph-name="fiveeighths" unicode="&#x215d;" horiz-adv-x="912" 
d="M68.5 383.5q-34.5 33.5 -34.5 83.5h73q1 -20 14 -33t32 -13q20 0 31.5 14t11.5 37t-11 35.5t-31 12.5q-22 0 -33 -18h-66v209h195v-72h-123v-60q15 8 35 8q48 0 78 -31.5t30 -83.5q0 -51 -33.5 -86.5t-83.5 -35.5t-84.5 33.5zM100 46l660 660l52 -52l-660 -660zM676.5 28
q-34.5 34 -34.5 85q0 25 11 47.5t31 39.5q-22 31 -22 62q0 42 28.5 70t71.5 28t71.5 -28t28.5 -70q0 -31 -22 -62q20 -17 31 -39.5t11 -47.5q0 -51 -34.5 -85t-85.5 -34t-85.5 34zM784 239q9 9 9 23t-9 22.5t-22 8.5t-22 -8.5t-9 -22.5t9 -23t22 -9t22 9zM795 78.5
q13 13.5 13 34.5t-13 34t-33 13t-33 -13t-13 -34t13 -34.5t33 -13.5t33 13.5z" />
    <glyph glyph-name="seveneighths" unicode="&#x215e;" horiz-adv-x="823" 
d="M100 501h-27v68h63l39 70h-153v72h239v-58l-45 -84h23v-68h-59l-76 -145h-80zM11 46l660 660l52 -52l-660 -660zM587.5 28q-34.5 34 -34.5 85q0 25 11 47.5t31 39.5q-22 31 -22 62q0 42 28.5 70t71.5 28t71.5 -28t28.5 -70q0 -31 -22 -62q20 -17 31 -39.5t11 -47.5
q0 -51 -34.5 -85t-85.5 -34t-85.5 34zM695 239q9 9 9 23t-9 22.5t-22 8.5t-22 -8.5t-9 -22.5t9 -23t22 -9t22 9zM706 78.5q13 13.5 13 34.5t-13 34t-33 13t-33 -13t-13 -34t13 -34.5t33 -13.5t33 13.5z" />
    <glyph glyph-name="arrowleft" unicode="&#x2190;" horiz-adv-x="786" 
d="M40 350l280 350l81 -65l-185 -229h530v-112h-530l185 -229l-81 -65z" />
    <glyph glyph-name="arrowup" unicode="&#x2191;" horiz-adv-x="780" 
d="M334 530l-229 -185l-65 81l350 280l350 -280l-65 -81l-229 185v-530h-112v530z" />
    <glyph glyph-name="arrowright" unicode="&#x2192;" horiz-adv-x="826" 
d="M425 65l185 229h-570v112h570l-185 229l81 65l280 -350l-280 -350z" />
    <glyph glyph-name="arrowdown" unicode="&#x2193;" horiz-adv-x="800" 
d="M50 274l65 81l229 -185v530h112v-530l229 185l65 -81l-350 -280z" />
    <glyph glyph-name="arrowboth" unicode="&#x2194;" horiz-adv-x="1086" 
d="M40 350l280 350l81 -65l-185 -229h654l-185 229l81 65l280 -350l-280 -350l-81 65l185 229h-654l185 -229l-81 -65z" />
    <glyph glyph-name="arrowupdn" unicode="&#x2195;" horiz-adv-x="660" 
d="M40 225l65 81l169 -136v360l-169 -136l-65 81l290 231l290 -231l-65 -81l-169 136v-360l169 136l65 -81l-290 -231z" />
    <glyph glyph-name="uni2196" unicode="&#x2196;" horiz-adv-x="738" 
d="M148 494v-282h-108v464h474v-108h-282l466 -465l-79 -79z" />
    <glyph glyph-name="uni2197" unicode="&#x2197;" horiz-adv-x="738" 
d="M40 103l466 465h-282v108h474v-464h-108v282l-471 -470z" />
    <glyph glyph-name="uni2198" unicode="&#x2198;" horiz-adv-x="738" 
d="M224 132h282l-466 465l79 79l471 -470v282h108v-464h-474v108z" />
    <glyph glyph-name="uni2199" unicode="&#x2199;" horiz-adv-x="738" 
d="M40 488h108v-282l471 470l79 -79l-466 -465h282v-108h-474v464z" />
    <glyph glyph-name="partialdiff" unicode="&#x2202;" horiz-adv-x="566" 
d="M140.5 22q-48.5 28 -74.5 76.5t-26 107.5q0 72 33 132t92 95t132 35q66 0 111 -36q-64 124 -217 185l46 89q146 -54 217.5 -159.5t71.5 -238.5q0 -100 -38.5 -171t-100.5 -107t-132 -36q-66 0 -114.5 28zM368.5 142.5q40.5 42.5 40.5 106.5q0 54 -31.5 83.5t-83.5 29.5
q-39 0 -71 -19.5t-50.5 -53t-18.5 -74.5q0 -50 30 -82.5t82 -32.5q62 0 102.5 42.5z" />
    <glyph glyph-name="uni2206" unicode="&#x2206;" horiz-adv-x="816" 
d="M408 712l400 -712h-800zM626 106l-218 389l-218 -389h436z" />
    <glyph glyph-name="product" unicode="&#x220f;" horiz-adv-x="583" 
d="M64 700h455v-700h-112v594h-231v-594h-112v700z" />
    <glyph glyph-name="summation" unicode="&#x2211;" horiz-adv-x="683" 
d="M64 116l278 234l-278 234v116h555v-106h-400l283 -244l-283 -244h400v-106h-555v116z" />
    <glyph glyph-name="minus" unicode="&#x2212;" horiz-adv-x="443" 
d="M50 380h343v-100h-343v100z" />
    <glyph glyph-name="uni2215" unicode="&#x2215;" horiz-adv-x="478" 
d="M-72 -52l545 861l77 -48l-545 -861z" />
    <glyph glyph-name="uni2219" unicode="&#x2219;" horiz-adv-x="292" 
d="M72.5 275q-30.5 31 -30.5 75t30.5 75t73.5 31t73.5 -31t30.5 -75t-30.5 -75t-73.5 -31t-73.5 31z" />
    <glyph glyph-name="radical" unicode="&#x221a;" horiz-adv-x="655" 
d="M144 300h-114l1 100h180l94 -252l234 652h108l-295 -800h-96z" />
    <glyph glyph-name="infinity" unicode="&#x221e;" horiz-adv-x="478" 
d="M65.5 261q-35.5 36 -35.5 89t35.5 89t87.5 36q25 0 48 -10t38 -29q15 19 38 29t48 10q52 0 87.5 -36t35.5 -89t-35.5 -89t-87.5 -36q-25 0 -48 10t-38 29q-15 -19 -38 -29t-48 -10q-52 0 -87.5 36zM185 319.5q12 12.5 12 30.5t-12 30.5t-30 12.5t-30.5 -12.5t-12.5 -30.5
t12.5 -30.5t30.5 -12.5t30 12.5zM353.5 319.5q12.5 12.5 12.5 30.5t-12.5 30.5t-30.5 12.5t-30 -12.5t-12 -30.5t12 -30.5t30 -12.5t30.5 12.5z" />
    <glyph glyph-name="integral" unicode="&#x222b;" horiz-adv-x="565" 
d="M-70 -144h42q24 0 39 10t24 31l291 682q24 57 65.5 89t98.5 32h55v-106h-52q-52 0 -74 -51l-292 -689q-22 -53 -59 -78.5t-83 -25.5h-55v106z" />
    <glyph glyph-name="approxequal" unicode="&#x2248;" horiz-adv-x="547" 
d="M40 164q0 61 32.5 97.5t86.5 36.5q25 0 51 -9.5t59 -31.5l47 -32q5 -4 19.5 -14t25 -14.5t19.5 -4.5q35 0 35 50v56h92v-72q0 -61 -32.5 -97.5t-86.5 -36.5q-25 0 -51 9.5t-59 31.5l-47 32q-5 4 -19.5 14t-25 14.5t-19.5 4.5q-35 0 -35 -50v-56h-92v72zM40 408
q0 61 32.5 97.5t86.5 36.5q25 0 51 -9.5t59 -31.5l47 -32q5 -4 19.5 -14t25 -14.5t19.5 -4.5q35 0 35 50v56h92v-72q0 -61 -32.5 -97.5t-86.5 -36.5q-25 0 -51 9.5t-59 31.5l-47 32q-5 4 -19.5 14t-25 14.5t-19.5 4.5q-35 0 -35 -50v-56h-92v72z" />
    <glyph glyph-name="notequal" unicode="&#x2260;" horiz-adv-x="555" 
d="M126 100l42 100h-118v100h161l25 60h-186v100h229l59 139l91 -39l-42 -100h118v-100h-161l-25 -60h186v-100h-229l-59 -139z" />
    <glyph glyph-name="lessequal" unicode="&#x2264;" horiz-adv-x="555" 
d="M102 389l226 227l71 -70l-158 -157l158 -157l-71 -70zM50 100h455v-100h-455v100z" />
    <glyph glyph-name="greaterequal" unicode="&#x2265;" horiz-adv-x="555" 
d="M156 232l158 157l-158 157l71 70l226 -227l-226 -227zM50 100h455v-100h-455v100z" />
    <glyph glyph-name="lozenge" unicode="&#x25ca;" horiz-adv-x="550" 
d="M48 350l227 356l227 -356l-227 -356zM384 350l-109 171l-109 -171l109 -171z" />
    <glyph glyph-name="uniF8FF" unicode="&#xf8ff;" horiz-adv-x="760" 
d="M90.5 6.5q-6.5 6.5 -6.5 15.5v595q0 7 4.5 13.5t11.5 8.5l270 78l10 2l10 -2l270 -78q7 -2 11.5 -8.5t4.5 -13.5v-595q0 -9 -6.5 -15.5t-15.5 -6.5l-7 1l-267 77l-267 -77l-7 -1q-9 0 -15.5 6.5zM358 669l-230 -67q4 -62 35 -114t82.5 -84.5t112.5 -37.5v303z
M514.5 403.5q51.5 32.5 82.5 84.5t35 114l-230 67v-303q61 5 112.5 37.5zM358 118v204q-73 6 -134 43.5t-97 97.5v-412zM633 463q-37 -60 -97.5 -97.5t-133.5 -43.5v-204l231 -67v412z" />
    <glyph glyph-name="fi" unicode="&#xfb01;" horiz-adv-x="592" 
d="M102 396h-88v104h88v66q0 66 42 103t103 37q44 0 74 -12.5t50 -40.5l-73 -74q-7 10 -16.5 16.5t-26.5 6.5q-21 0 -32 -13t-11 -30v-59h320v-500h-110v396h-210v-396h-110v396zM424.5 578q-21.5 22 -21.5 53t21.5 53t52.5 22t52.5 -22t21.5 -53t-21.5 -53t-52.5 -22
t-52.5 22z" />
    <glyph glyph-name="fl" unicode="&#xfb02;" horiz-adv-x="596" 
d="M114 396h-100v104h100v69q0 65 30.5 109t79.5 65t104 21q52 0 100 -21.5t78 -65.5t30 -108v-569h-110v567q0 39 -25.5 66t-72.5 27q-50 0 -77 -27t-27 -66v-67h120v-104h-120v-396h-110v396z" />
    <glyph glyph-name="Adieresis.ss01" horiz-adv-x="662" 
d="M275 700h112l259 -700h-117l-42 115h-312l-42 -115h-117zM450 221l-119 329l-119 -329h238zM169 887h124v-124h-124v124zM369 887h124v-124h-124v124z" />
    <glyph glyph-name="Cdotaccent.ss01" horiz-adv-x="776" 
d="M216 41.5q-79 47.5 -124.5 129.5t-45.5 179t45.5 179t124.5 129.5t176 47.5q82 0 149.5 -34t116.5 -94l-78 -78q-69 100 -188 100q-67 0 -120 -33t-82.5 -90.5t-29.5 -126.5t29.5 -126.5t82.5 -90.5t120 -33t120 32.5t82.5 89.5t29.5 128h114q0 -97 -45.5 -179
t-124.5 -129.5t-176 -47.5t-176 47.5zM330 887h124v-124h-124v124z" />
    <glyph glyph-name="Edieresis.ss01" horiz-adv-x="555" 
d="M64 700h439v-106h-327v-188h211v-106h-211v-194h333v-106h-445v700zM127 887h124v-124h-124v124zM327 887h124v-124h-124v124z" />
    <glyph glyph-name="Edotaccent.ss01" horiz-adv-x="555" 
d="M64 700h439v-106h-327v-188h211v-106h-211v-194h333v-106h-445v700zM227 887h124v-124h-124v124z" />
    <glyph glyph-name="Gdotaccent.ss01" horiz-adv-x="787" 
d="M216 41.5q-79 47.5 -124.5 129.5t-45.5 179t45.5 179t124.5 129.5t176 47.5q82 0 149.5 -34t116.5 -94l-78 -78q-69 100 -188 100q-67 0 -120 -33t-82.5 -90.5t-29.5 -126.5t29.5 -126.5t82.5 -90.5t120 -33q90 0 150.5 54t76.5 146h-231v106h335v-406h-104v95
q-40 -50 -99.5 -75.5t-127.5 -25.5q-97 0 -176 47.5zM329 887h124v-124h-124v124z" />
    <glyph glyph-name="Idieresis.ss01" horiz-adv-x="408" 
d="M42 106h106v488h-106v106h324v-106h-106v-488h106v-106h-324v106zM42 887h124v-124h-124v124zM242 887h124v-124h-124v124z" />
    <glyph glyph-name="Idotaccent.ss01" horiz-adv-x="408" 
d="M42 106h106v488h-106v106h324v-106h-106v-488h106v-106h-324v106zM142 887h124v-124h-124v124z" />
    <glyph glyph-name="Ldot.ss01" horiz-adv-x="551" 
d="M64 700h112v-594h333v-106h-445v700zM308 456h124v-124h-124v124z" />
    <glyph glyph-name="Odieresis.ss01" horiz-adv-x="784" 
d="M216 41.5q-79 47.5 -124.5 129.5t-45.5 179t45.5 179t124.5 129.5t176 47.5t176 -47.5t124.5 -129.5t45.5 -179t-45.5 -179t-124.5 -129.5t-176 -47.5t-176 47.5zM512 133q53 33 82.5 90.5t29.5 126.5t-29.5 126.5t-82.5 90.5t-120 33t-120 -33t-82.5 -90.5t-29.5 -126.5
t29.5 -126.5t82.5 -90.5t120 -33t120 33zM230 887h124v-124h-124v124zM430 887h124v-124h-124v124z" />
    <glyph glyph-name="Udieresis.ss01" horiz-adv-x="584" 
d="M175 23q-52 29 -81.5 82t-29.5 120v475h112v-481q0 -54 31.5 -86.5t84.5 -32.5t84.5 32.5t31.5 86.5v481h112v-475q0 -67 -29.5 -120t-81.5 -82t-117 -29t-117 29zM130 887h124v-124h-124v124zM330 887h124v-124h-124v124z" />
    <glyph glyph-name="Wdieresis.ss01" horiz-adv-x="892" 
d="M14 700h118l198 -550l61 178l-128 372h112l71 -213l71 213h112l-128 -372l61 -178l198 550h118l-260 -700h-112l-60 173l-60 -173h-112zM284 887h124v-124h-124v124zM484 887h124v-124h-124v124z" />
    <glyph glyph-name="Ydieresis.ss01" horiz-adv-x="522" 
d="M205 300l-191 400h118l129 -286l129 286h118l-191 -400v-300h-112v300zM99 887h124v-124h-124v124zM299 887h124v-124h-124v124z" />
    <glyph glyph-name="Zdotaccent.ss01" horiz-adv-x="617" 
d="M36 94l362 500h-323v106h461v-94l-362 -500h407v-106h-545v94zM251 887h124v-124h-124v124z" />
    <glyph glyph-name="Gdotaccent.ss02.ss01" horiz-adv-x="769" 
d="M216 41.5q-79 47.5 -124.5 129.5t-45.5 179t45.5 179t124.5 129.5t176 47.5q171 0 271 -128l-78 -78q-32 50 -79.5 75t-113.5 25q-67 0 -120 -33t-82.5 -90.5t-29.5 -126.5t29.5 -126.5t82.5 -90.5t120 -33q107 0 159 55t59 145h-222v106h335v-53q0 -122 -44.5 -202.5
t-119 -118.5t-167.5 -38q-97 0 -176 47.5zM329 887h124v-124h-124v124z" />
    <glyph glyph-name="Idieresis.ss02.ss01" horiz-adv-x="240" 
d="M64 700h112v-700h-112v700zM-42 887h124v-124h-124v124zM158 887h124v-124h-124v124z" />
    <glyph glyph-name="Idotaccent.ss02.ss01" horiz-adv-x="240" 
d="M64 700h112v-700h-112v700zM58 887h124v-124h-124v124z" />
    <glyph glyph-name="Wdieresis.ss02.ss01" horiz-adv-x="953" 
d="M14 700h115l142 -538l145 538h121l145 -538l142 538h115l-201 -700h-112l-150 518l-149 -518h-112zM315 887h124v-124h-124v124zM515 887h124v-124h-124v124z" />
    <glyph glyph-name="Cdotaccent.ss03.ss01" horiz-adv-x="752" 
d="M215.5 41q-79.5 47 -124.5 128.5t-45 180.5t45 180.5t124.5 128.5t178.5 47q107 0 188.5 -53.5t123.5 -150.5l-99 -52q-26 73 -81.5 111.5t-131.5 38.5q-68 0 -121 -32.5t-83 -90t-30 -127.5t30 -127.5t83 -90t121 -32.5q76 0 131.5 38.5t81.5 111.5l99 -52
q-42 -97 -123.5 -150.5t-188.5 -53.5q-99 0 -178.5 47zM330 887h124v-124h-124v124z" />
    <glyph glyph-name="Udieresis.ss04.ss01" horiz-adv-x="578" 
d="M151.5 23q-44.5 29 -69 81.5t-24.5 120.5v475h112v-481q0 -54 31.5 -86.5t84.5 -32.5t84.5 32.5t31.5 86.5v481h112v-700h-112v67q-18 -35 -55.5 -54t-90.5 -19q-60 0 -104.5 29zM124 887h124v-124h-124v124zM324 887h124v-124h-124v124z" />
    <glyph glyph-name="G.ss02" horiz-adv-x="769" 
d="M216 41.5q-79 47.5 -124.5 129.5t-45.5 179t45.5 179t124.5 129.5t176 47.5q171 0 271 -128l-78 -78q-32 50 -79.5 75t-113.5 25q-67 0 -120 -33t-82.5 -90.5t-29.5 -126.5t29.5 -126.5t82.5 -90.5t120 -33q107 0 159 55t59 145h-222v106h335v-53q0 -122 -44.5 -202.5
t-119 -118.5t-167.5 -38q-97 0 -176 47.5z" />
    <glyph glyph-name="Gbreve.ss02" horiz-adv-x="769" 
d="M216 41.5q-79 47.5 -124.5 129.5t-45.5 179t45.5 179t124.5 129.5t176 47.5q171 0 271 -128l-78 -78q-32 50 -79.5 75t-113.5 25q-67 0 -120 -33t-82.5 -90.5t-29.5 -126.5t29.5 -126.5t82.5 -90.5t120 -33q107 0 159 55t59 145h-222v106h335v-53q0 -122 -44.5 -202.5
t-119 -118.5t-167.5 -38q-97 0 -176 47.5zM305 771.5q-40 21.5 -65.5 58.5t-30.5 82h103q6 -30 26 -49.5t53 -19.5t53 19.5t26 49.5h103q-5 -45 -30.5 -82t-65.5 -58.5t-86 -21.5t-86 21.5z" />
    <glyph glyph-name="Gcircumflex.ss02" horiz-adv-x="769" 
d="M216 41.5q-79 47.5 -124.5 129.5t-45.5 179t45.5 179t124.5 129.5t176 47.5q171 0 271 -128l-78 -78q-32 50 -79.5 75t-113.5 25q-67 0 -120 -33t-82.5 -90.5t-29.5 -126.5t29.5 -126.5t82.5 -90.5t120 -33q107 0 159 55t59 145h-222v106h335v-53q0 -122 -44.5 -202.5
t-119 -118.5t-167.5 -38q-97 0 -176 47.5zM208 802l183 183l183 -183l-66 -67l-117 117l-117 -117z" />
    <glyph glyph-name="uni0122.ss02" horiz-adv-x="769" 
d="M216 41.5q-79 47.5 -124.5 129.5t-45.5 179t45.5 179t124.5 129.5t176 47.5q171 0 271 -128l-78 -78q-32 50 -79.5 75t-113.5 25q-67 0 -120 -33t-82.5 -90.5t-29.5 -126.5t29.5 -126.5t82.5 -90.5t120 -33q107 0 159 55t59 145h-222v106h335v-53q0 -122 -44.5 -202.5
t-119 -118.5t-167.5 -38q-97 0 -176 47.5zM228 -209l100 167h120l-128 -220z" />
    <glyph glyph-name="Gdotaccent.ss02" horiz-adv-x="769" 
d="M216 41.5q-79 47.5 -124.5 129.5t-45.5 179t45.5 179t124.5 129.5t176 47.5q171 0 271 -128l-78 -78q-32 50 -79.5 75t-113.5 25q-67 0 -120 -33t-82.5 -90.5t-29.5 -126.5t29.5 -126.5t82.5 -90.5t120 -33q107 0 159 55t59 145h-222v106h335v-53q0 -122 -44.5 -202.5
t-119 -118.5t-167.5 -38q-97 0 -176 47.5zM338.5 778q-21.5 22 -21.5 53t21.5 53t52.5 22t52.5 -22t21.5 -53t-21.5 -53t-52.5 -22t-52.5 22z" />
    <glyph glyph-name="I.ss02" horiz-adv-x="240" 
d="M64 700h112v-700h-112v700z" />
    <glyph glyph-name="IJ.ss02" horiz-adv-x="578" 
d="M174 23.5q-51 29.5 -80.5 81t-29.5 114.5h112q0 -51 31 -85t82 -34q55 0 84 35t29 99v360h-76v106h188v-463q0 -71 -27 -126t-77.5 -86t-120.5 -31q-64 0 -115 29.5zM64 700h112v-374h-112v374z" />
    <glyph glyph-name="Iacute.ss02" horiz-adv-x="240" 
d="M64 700h112v-700h-112v700zM45 837l226 106l44 -90l-226 -106z" />
    <glyph glyph-name="Ibreve.ss02" horiz-adv-x="240" 
d="M64 700h112v-700h-112v700zM34 771.5q-40 21.5 -65.5 58.5t-30.5 82h103q6 -30 26 -49.5t53 -19.5t53 19.5t26 49.5h103q-5 -45 -30.5 -82t-65.5 -58.5t-86 -21.5t-86 21.5z" />
    <glyph glyph-name="Icircumflex.ss02" horiz-adv-x="240" 
d="M64 700h112v-700h-112v700zM-63 802l183 183l183 -183l-66 -67l-117 117l-117 -117z" />
    <glyph glyph-name="Idieresis.ss02" horiz-adv-x="240" 
d="M64 700h112v-700h-112v700zM-48.5 798q-21.5 22 -21.5 53t21.5 53t52.5 22t52.5 -22t21.5 -53t-21.5 -53t-52.5 -22t-52.5 22zM182.5 798q-21.5 22 -21.5 53t21.5 53t52.5 22t52.5 -22t21.5 -53t-21.5 -53t-52.5 -22t-52.5 22z" />
    <glyph glyph-name="Idotaccent.ss02" horiz-adv-x="240" 
d="M64 700h112v-700h-112v700zM67.5 778q-21.5 22 -21.5 53t21.5 53t52.5 22t52.5 -22t21.5 -53t-21.5 -53t-52.5 -22t-52.5 22z" />
    <glyph glyph-name="Igrave.ss02" horiz-adv-x="240" 
d="M64 700h112v-700h-112v700zM-75 853l44 90l226 -106l-44 -90z" />
    <glyph glyph-name="Imacron.ss02" horiz-adv-x="240" 
d="M64 700h112v-700h-112v700zM-38 882h315v-100h-315v100z" />
    <glyph glyph-name="Iogonek.ss02" horiz-adv-x="240" 
d="M64 700h112v-700h-112v700zM67 -221q-33 29 -33 76q0 27 18 66l36 79h88l-43 -94q-8 -17 -10.5 -25t-2.5 -18q0 -13 9.5 -22t29.5 -9h20v-82h-24q-55 0 -88 29z" />
    <glyph glyph-name="Itilde.ss02" horiz-adv-x="240" 
d="M64 700h112v-700h-112v700zM-59 800q0 58 27.5 89t72.5 31q23 0 43 -7.5t43 -26.5l15 -12q14 -12 22.5 -17.5t17.5 -5.5q12 0 18 7.5t6 20.5v41h92v-46q0 -58 -27.5 -89t-72.5 -31q-23 0 -43 7.5t-43 26.5l-15 12q-14 12 -22.5 17.5t-17.5 5.5q-12 0 -18 -7.5t-6 -20.5
v-41h-92v46z" />
    <glyph glyph-name="J.ss02" horiz-adv-x="548" 
d="M144 23.5q-51 29.5 -80.5 81t-29.5 114.5h112q0 -51 31 -85t82 -34q55 0 84 35t29 99v360h-76v106h188v-463q0 -71 -27 -126t-77.5 -86t-120.5 -31q-64 0 -115 29.5z" />
    <glyph glyph-name="Jcircumflex.ss02" horiz-adv-x="548" 
d="M144 23.5q-51 29.5 -80.5 81t-29.5 114.5h112q0 -51 31 -85t82 -34q55 0 84 35t29 99v360h-76v106h188v-463q0 -71 -27 -126t-77.5 -86t-120.5 -31q-64 0 -115 29.5zM244 802l183 183l183 -183l-66 -67l-117 117l-117 -117z" />
    <glyph glyph-name="M.ss02" horiz-adv-x="887" 
d="M186 700h110l147 -529l148 529h110l170 -700h-117l-113 497l-137 -497h-121l-137 497l-113 -497h-117z" />
    <glyph glyph-name="W.ss02" horiz-adv-x="953" 
d="M14 700h115l142 -538l145 538h121l145 -538l142 538h115l-201 -700h-112l-150 518l-149 -518h-112z" />
    <glyph glyph-name="Wacute.ss02" horiz-adv-x="953" 
d="M14 700h115l142 -538l145 538h121l145 -538l142 538h115l-201 -700h-112l-150 518l-149 -518h-112zM402 837l226 106l44 -90l-226 -106z" />
    <glyph glyph-name="Wcircumflex.ss02" horiz-adv-x="953" 
d="M14 700h115l142 -538l145 538h121l145 -538l142 538h115l-201 -700h-112l-150 518l-149 -518h-112zM294 802l183 183l183 -183l-66 -67l-117 117l-117 -117z" />
    <glyph glyph-name="Wdieresis.ss02" horiz-adv-x="953" 
d="M14 700h115l142 -538l145 538h121l145 -538l142 538h115l-201 -700h-112l-150 518l-149 -518h-112zM308.5 798q-21.5 22 -21.5 53t21.5 53t52.5 22t52.5 -22t21.5 -53t-21.5 -53t-52.5 -22t-52.5 22zM539.5 798q-21.5 22 -21.5 53t21.5 53t52.5 22t52.5 -22t21.5 -53
t-21.5 -53t-52.5 -22t-52.5 22z" />
    <glyph glyph-name="Wgrave.ss02" horiz-adv-x="953" 
d="M14 700h115l142 -538l145 538h121l145 -538l142 538h115l-201 -700h-112l-150 518l-149 -518h-112zM282 853l44 90l226 -106l-44 -90z" />
    <glyph glyph-name="C.ss03" horiz-adv-x="752" 
d="M215.5 41q-79.5 47 -124.5 128.5t-45 180.5t45 180.5t124.5 128.5t178.5 47q107 0 188.5 -53.5t123.5 -150.5l-99 -52q-26 73 -81.5 111.5t-131.5 38.5q-68 0 -121 -32.5t-83 -90t-30 -127.5t30 -127.5t83 -90t121 -32.5q76 0 131.5 38.5t81.5 111.5l99 -52
q-42 -97 -123.5 -150.5t-188.5 -53.5q-99 0 -178.5 47z" />
    <glyph glyph-name="Cacute.ss03" horiz-adv-x="752" 
d="M215.5 41q-79.5 47 -124.5 128.5t-45 180.5t45 180.5t124.5 128.5t178.5 47q107 0 188.5 -53.5t123.5 -150.5l-99 -52q-26 73 -81.5 111.5t-131.5 38.5q-68 0 -121 -32.5t-83 -90t-30 -127.5t30 -127.5t83 -90t121 -32.5q76 0 131.5 38.5t81.5 111.5l99 -52
q-42 -97 -123.5 -150.5t-188.5 -53.5q-99 0 -178.5 47zM317 837l226 106l44 -90l-226 -106z" />
    <glyph glyph-name="Ccaron.ss03" horiz-adv-x="752" 
d="M215.5 41q-79.5 47 -124.5 128.5t-45 180.5t45 180.5t124.5 128.5t178.5 47q107 0 188.5 -53.5t123.5 -150.5l-99 -52q-26 73 -81.5 111.5t-131.5 38.5q-68 0 -121 -32.5t-83 -90t-30 -127.5t30 -127.5t83 -90t121 -32.5q76 0 131.5 38.5t81.5 111.5l99 -52
q-42 -97 -123.5 -150.5t-188.5 -53.5q-99 0 -178.5 47zM209 918l66 67l117 -117l117 117l66 -67l-183 -183z" />
    <glyph glyph-name="Ccedilla.ss03" horiz-adv-x="752" 
d="M525.5 138.5q55.5 38.5 81.5 111.5l99 -52q-38 -87 -108.5 -139.5t-163.5 -62.5l-21 -36q32 -7 53.5 -33t21.5 -70q0 -47 -33 -80t-80 -33q-46 0 -79.5 33t-33.5 80h82q0 -14 9 -22.5t22 -8.5t21.5 9t8.5 22q0 17 -9.5 27t-27.5 10h-75l61 102q-89 9 -159 58
t-109.5 126.5t-39.5 169.5q0 99 45 180.5t124.5 128.5t178.5 47q107 0 188.5 -53.5t123.5 -150.5l-99 -52q-26 73 -81.5 111.5t-131.5 38.5q-68 0 -121 -32.5t-83 -90t-30 -127.5t30 -127.5t83 -90t121 -32.5q76 0 131.5 38.5z" />
    <glyph glyph-name="Ccircumflex.ss03" horiz-adv-x="752" 
d="M215.5 41q-79.5 47 -124.5 128.5t-45 180.5t45 180.5t124.5 128.5t178.5 47q107 0 188.5 -53.5t123.5 -150.5l-99 -52q-26 73 -81.5 111.5t-131.5 38.5q-68 0 -121 -32.5t-83 -90t-30 -127.5t30 -127.5t83 -90t121 -32.5q76 0 131.5 38.5t81.5 111.5l99 -52
q-42 -97 -123.5 -150.5t-188.5 -53.5q-99 0 -178.5 47zM209 802l183 183l183 -183l-66 -67l-117 117l-117 -117z" />
    <glyph glyph-name="Cdotaccent.ss03" horiz-adv-x="752" 
d="M215.5 41q-79.5 47 -124.5 128.5t-45 180.5t45 180.5t124.5 128.5t178.5 47q107 0 188.5 -53.5t123.5 -150.5l-99 -52q-26 73 -81.5 111.5t-131.5 38.5q-68 0 -121 -32.5t-83 -90t-30 -127.5t30 -127.5t83 -90t121 -32.5q76 0 131.5 38.5t81.5 111.5l99 -52
q-42 -97 -123.5 -150.5t-188.5 -53.5q-99 0 -178.5 47zM339.5 778q-21.5 22 -21.5 53t21.5 53t52.5 22t52.5 -22t21.5 -53t-21.5 -53t-52.5 -22t-52.5 22z" />
    <glyph glyph-name="J.ss03" horiz-adv-x="544" 
d="M109 45.5q-61 51.5 -75 132.5l103 39q8 -50 41 -83.5t81 -33.5q53 0 81 35t28 99v466h112v-463q0 -71 -27 -126t-77.5 -86t-120.5 -31q-85 0 -146 51.5z" />
    <glyph glyph-name="Jcircumflex.ss03" horiz-adv-x="544" 
d="M109 45.5q-61 51.5 -75 132.5l103 39q8 -50 41 -83.5t81 -33.5q53 0 81 35t28 99v466h112v-463q0 -71 -27 -126t-77.5 -86t-120.5 -31q-85 0 -146 51.5zM240 802l183 183l183 -183l-66 -67l-117 117l-117 -117z" />
    <glyph glyph-name="S.ss03" horiz-adv-x="522" 
d="M147.5 21q-49.5 27 -77 69t-32.5 86l106 26q8 -48 38 -75t80 -27t80 33t30 86q0 39 -16.5 61.5t-41.5 34.5t-72 27q-40 12 -60 20q-50 20 -80 61.5t-30 98.5q0 53 24 95t66 65.5t94 23.5q121 0 176 -104l-85 -61q-13 28 -36 43.5t-52 15.5q-34 0 -55.5 -20.5t-21.5 -51.5
q0 -26 12.5 -41.5t33.5 -25t62 -23.5q24 -8 51 -18q69 -26 106 -73.5t37 -124.5q0 -64 -28.5 -116t-79 -82t-112.5 -30q-67 0 -116.5 27z" />
    <glyph glyph-name="Sacute.ss03" horiz-adv-x="522" 
d="M147.5 21q-49.5 27 -77 69t-32.5 86l106 26q8 -48 38 -75t80 -27t80 33t30 86q0 39 -16.5 61.5t-41.5 34.5t-72 27q-40 12 -60 20q-50 20 -80 61.5t-30 98.5q0 53 24 95t66 65.5t94 23.5q121 0 176 -104l-85 -61q-13 28 -36 43.5t-52 15.5q-34 0 -55.5 -20.5t-21.5 -51.5
q0 -26 12.5 -41.5t33.5 -25t62 -23.5q24 -8 51 -18q69 -26 106 -73.5t37 -124.5q0 -64 -28.5 -116t-79 -82t-112.5 -30q-67 0 -116.5 27zM185 837l226 106l44 -90l-226 -106z" />
    <glyph glyph-name="Scaron.ss03" horiz-adv-x="522" 
d="M147.5 21q-49.5 27 -77 69t-32.5 86l106 26q8 -48 38 -75t80 -27t80 33t30 86q0 39 -16.5 61.5t-41.5 34.5t-72 27q-40 12 -60 20q-50 20 -80 61.5t-30 98.5q0 53 24 95t66 65.5t94 23.5q121 0 176 -104l-85 -61q-13 28 -36 43.5t-52 15.5q-34 0 -55.5 -20.5t-21.5 -51.5
q0 -26 12.5 -41.5t33.5 -25t62 -23.5q24 -8 51 -18q69 -26 106 -73.5t37 -124.5q0 -64 -28.5 -116t-79 -82t-112.5 -30q-67 0 -116.5 27zM77 918l66 67l117 -117l117 117l66 -67l-183 -183z" />
    <glyph glyph-name="Scedilla.ss03" horiz-adv-x="522" 
d="M434.5 74q-49.5 -62 -127.5 -76l-22 -38q32 -7 53.5 -33t21.5 -70q0 -47 -33 -80t-80 -33q-46 0 -79.5 33t-33.5 80h82q0 -14 9 -22.5t22 -8.5t21.5 9t8.5 22q0 17 -9.5 27t-27.5 10h-75l61 103q-55 8 -96 35.5t-64 66t-28 77.5l106 26q8 -48 38 -75t80 -27t80 33t30 86
q0 39 -16.5 61.5t-41.5 34.5t-72 27q-40 12 -60 20q-50 20 -80 61.5t-30 98.5q0 53 24 95t66 65.5t94 23.5q121 0 176 -104l-85 -61q-13 28 -36 43.5t-52 15.5q-34 0 -55.5 -20.5t-21.5 -51.5q0 -26 12.5 -41.5t33.5 -25t62 -23.5q24 -8 51 -18q69 -26 106 -73.5t37 -124.5
q0 -86 -49.5 -148z" />
    <glyph glyph-name="Scircumflex.ss03" horiz-adv-x="522" 
d="M147.5 21q-49.5 27 -77 69t-32.5 86l106 26q8 -48 38 -75t80 -27t80 33t30 86q0 39 -16.5 61.5t-41.5 34.5t-72 27q-40 12 -60 20q-50 20 -80 61.5t-30 98.5q0 53 24 95t66 65.5t94 23.5q121 0 176 -104l-85 -61q-13 28 -36 43.5t-52 15.5q-34 0 -55.5 -20.5t-21.5 -51.5
q0 -26 12.5 -41.5t33.5 -25t62 -23.5q24 -8 51 -18q69 -26 106 -73.5t37 -124.5q0 -64 -28.5 -116t-79 -82t-112.5 -30q-67 0 -116.5 27zM77 802l183 183l183 -183l-66 -67l-117 117l-117 -117z" />
    <glyph glyph-name="uni0218.ss03" horiz-adv-x="522" 
d="M147.5 21q-49.5 27 -77 69t-32.5 86l106 26q8 -48 38 -75t80 -27t80 33t30 86q0 39 -16.5 61.5t-41.5 34.5t-72 27q-40 12 -60 20q-50 20 -80 61.5t-30 98.5q0 53 24 95t66 65.5t94 23.5q121 0 176 -104l-85 -61q-13 28 -36 43.5t-52 15.5q-34 0 -55.5 -20.5t-21.5 -51.5
q0 -26 12.5 -41.5t33.5 -25t62 -23.5q24 -8 51 -18q69 -26 106 -73.5t37 -124.5q0 -64 -28.5 -116t-79 -82t-112.5 -30q-67 0 -116.5 27zM144 -209l100 167h120l-128 -220z" />
    <glyph glyph-name="U.ss04" horiz-adv-x="578" 
d="M151.5 23q-44.5 29 -69 81.5t-24.5 120.5v475h112v-481q0 -54 31.5 -86.5t84.5 -32.5t84.5 32.5t31.5 86.5v481h112v-700h-112v67q-18 -35 -55.5 -54t-90.5 -19q-60 0 -104.5 29z" />
    <glyph glyph-name="Uacute.ss04" horiz-adv-x="578" 
d="M151.5 23q-44.5 29 -69 81.5t-24.5 120.5v475h112v-481q0 -54 31.5 -86.5t84.5 -32.5t84.5 32.5t31.5 86.5v481h112v-700h-112v67q-18 -35 -55.5 -54t-90.5 -19q-60 0 -104.5 29zM211 837l226 106l44 -90l-226 -106z" />
    <glyph glyph-name="Ubreve.ss04" horiz-adv-x="578" 
d="M151.5 23q-44.5 29 -69 81.5t-24.5 120.5v475h112v-481q0 -54 31.5 -86.5t84.5 -32.5t84.5 32.5t31.5 86.5v481h112v-700h-112v67q-18 -35 -55.5 -54t-90.5 -19q-60 0 -104.5 29zM200 771.5q-40 21.5 -65.5 58.5t-30.5 82h103q6 -30 26 -49.5t53 -19.5t53 19.5t26 49.5
h103q-5 -45 -30.5 -82t-65.5 -58.5t-86 -21.5t-86 21.5z" />
    <glyph glyph-name="Ucircumflex.ss04" horiz-adv-x="578" 
d="M151.5 23q-44.5 29 -69 81.5t-24.5 120.5v475h112v-481q0 -54 31.5 -86.5t84.5 -32.5t84.5 32.5t31.5 86.5v481h112v-700h-112v67q-18 -35 -55.5 -54t-90.5 -19q-60 0 -104.5 29zM103 802l183 183l183 -183l-66 -67l-117 117l-117 -117z" />
    <glyph glyph-name="Udieresis.ss04" horiz-adv-x="578" 
d="M151.5 23q-44.5 29 -69 81.5t-24.5 120.5v475h112v-481q0 -54 31.5 -86.5t84.5 -32.5t84.5 32.5t31.5 86.5v481h112v-700h-112v67q-18 -35 -55.5 -54t-90.5 -19q-60 0 -104.5 29zM117.5 798q-21.5 22 -21.5 53t21.5 53t52.5 22t52.5 -22t21.5 -53t-21.5 -53t-52.5 -22
t-52.5 22zM348.5 798q-21.5 22 -21.5 53t21.5 53t52.5 22t52.5 -22t21.5 -53t-21.5 -53t-52.5 -22t-52.5 22z" />
    <glyph glyph-name="Ugrave.ss04" horiz-adv-x="578" 
d="M151.5 23q-44.5 29 -69 81.5t-24.5 120.5v475h112v-481q0 -54 31.5 -86.5t84.5 -32.5t84.5 32.5t31.5 86.5v481h112v-700h-112v67q-18 -35 -55.5 -54t-90.5 -19q-60 0 -104.5 29zM91 853l44 90l226 -106l-44 -90z" />
    <glyph glyph-name="Uhungarumlaut.ss04" horiz-adv-x="578" 
d="M151.5 23q-44.5 29 -69 81.5t-24.5 120.5v475h112v-481q0 -54 31.5 -86.5t84.5 -32.5t84.5 32.5t31.5 86.5v481h112v-700h-112v67q-18 -35 -55.5 -54t-90.5 -19q-60 0 -104.5 29zM42 825l197 152l63 -80l-197 -152zM269 825l197 152l63 -80l-197 -152z" />
    <glyph glyph-name="Umacron.ss04" horiz-adv-x="578" 
d="M151.5 23q-44.5 29 -69 81.5t-24.5 120.5v475h112v-481q0 -54 31.5 -86.5t84.5 -32.5t84.5 32.5t31.5 86.5v481h112v-700h-112v67q-18 -35 -55.5 -54t-90.5 -19q-60 0 -104.5 29zM128 882h315v-100h-315v100z" />
    <glyph glyph-name="Uogonek.ss04" horiz-adv-x="578" 
d="M517 -168v-82h-24q-55 0 -88 29t-33 76q0 27 18 66l36 79h-24v67q-18 -35 -55.5 -54t-90.5 -19q-60 0 -104.5 29t-69 81.5t-24.5 120.5v475h112v-481q0 -54 31.5 -86.5t84.5 -32.5t84.5 32.5t31.5 86.5v481h112v-700l-43 -94q-8 -17 -10.5 -25t-2.5 -18q0 -13 9.5 -22
t29.5 -9h20z" />
    <glyph glyph-name="Uring.ss04" horiz-adv-x="578" 
d="M151.5 23q-44.5 29 -69 81.5t-24.5 120.5v475h112v-481q0 -54 31.5 -86.5t84.5 -32.5t84.5 32.5t31.5 86.5v481h112v-700h-112v67q-18 -35 -55.5 -54t-90.5 -19q-60 0 -104.5 29zM215 779q-29 29 -29 71t29 71t71 29t71 -29t29 -71t-29 -71t-71 -29t-71 29zM306 830
q8 8 8 20t-8 20t-20 8t-20 -8t-8 -20t8 -20t20 -8t20 8z" />
    <glyph glyph-name="Utilde.ss04" horiz-adv-x="578" 
d="M151.5 23q-44.5 29 -69 81.5t-24.5 120.5v475h112v-481q0 -54 31.5 -86.5t84.5 -32.5t84.5 32.5t31.5 86.5v481h112v-700h-112v67q-18 -35 -55.5 -54t-90.5 -19q-60 0 -104.5 29zM107 800q0 58 27.5 89t72.5 31q23 0 43 -7.5t43 -26.5l15 -12q14 -12 22.5 -17.5
t17.5 -5.5q12 0 18 7.5t6 20.5v41h92v-46q0 -58 -27.5 -89t-72.5 -31q-23 0 -43 7.5t-43 26.5l-15 12q-14 12 -22.5 17.5t-17.5 5.5q-12 0 -18 -7.5t-6 -20.5v-41h-92v46z" />
    <glyph glyph-name="i.loclTRK" horiz-adv-x="230" 
d="M60 500h110v-500h-110v500zM62.5 578q-21.5 22 -21.5 53t21.5 53t52.5 22t52.5 -22t21.5 -53t-21.5 -53t-52.5 -22t-52.5 22z" />
    <glyph glyph-name="adieresis.ss01" horiz-adv-x="606" 
d="M163 27q-57 33 -90 91t-33 132t33 132t90 91t128 33q46 0 85.5 -17.5t57.5 -40.5v52h112v-500h-112v52q-18 -23 -57 -40.5t-86 -17.5q-71 0 -128 33zM397.5 141q40.5 41 40.5 109t-40.5 109t-102.5 41q-64 0 -105.5 -41t-41.5 -109t41.5 -109t105.5 -41q62 0 102.5 41z
M130 700h124v-124h-124v124zM330 700h124v-124h-124v124z" />
    <glyph glyph-name="cdotaccent.ss01" horiz-adv-x="591" 
d="M165 27.5q-58 33.5 -91.5 91.5t-33.5 131t33.5 131t91.5 91.5t131 33.5q109 0 183 -76l-81 -73q-42 45 -102 45q-64 0 -104 -42t-40 -110t40 -110t104 -42t104.5 42.5t40.5 109.5h110q0 -72 -33.5 -130.5t-91.5 -92t-130 -33.5q-73 0 -131 33.5zM234 700h124v-124h-124
v124z" />
    <glyph glyph-name="edieresis.ss01" horiz-adv-x="588" 
d="M167 28.5q-59 34.5 -93 93t-34 128.5t34 128.5t92 93t128 34.5t128 -34.5t92 -93t34 -128.5q0 -20 -3 -38h-389q9 -48 48.5 -81t92.5 -33q39 0 68 12t45 36h131q-26 -68 -92.5 -110t-151.5 -42q-71 0 -130 34.5zM428 306q-11 44 -48 71t-86 27t-86 -27t-48 -71h268z
M132 700h124v-124h-124v124zM332 700h124v-124h-124v124z" />
    <glyph glyph-name="edotaccent.ss01" horiz-adv-x="588" 
d="M167 28.5q-59 34.5 -93 93t-34 128.5t34 128.5t92 93t128 34.5t128 -34.5t92 -93t34 -128.5q0 -20 -3 -38h-389q9 -48 48.5 -81t92.5 -33q39 0 68 12t45 36h131q-26 -68 -92.5 -110t-151.5 -42q-71 0 -130 34.5zM428 306q-11 44 -48 71t-86 27t-86 -27t-48 -71h268z
M232 700h124v-124h-124v124z" />
    <glyph glyph-name="gdotaccent.ss01" horiz-adv-x="536" 
d="M108 -203.5q-63 52.5 -78 138.5h114q12 -40 41 -63.5t77 -23.5q55 0 88.5 35t33.5 92q0 56 -32.5 91t-85.5 35q-38 0 -68 -18.5t-45 -47.5l-80 79q21 28 49 43q-32 28 -49.5 65.5t-17.5 80.5q0 56 24.5 102.5t69 73.5t102.5 27q33 0 62 -10.5t45 -30.5v35h110v-197
q0 -44 -17 -81.5t-50 -64.5q45 -32 70 -79.5t25 -102.5q0 -68 -31 -120.5t-84.5 -81.5t-118.5 -29q-91 0 -154 52.5zM331 232q27 27 27 71t-27 71.5t-69 27.5t-69.5 -27t-27.5 -72q0 -44 27.5 -71t69.5 -27t69 27zM205 700h124v-124h-124v124z" />
    <glyph glyph-name="i.ss01" horiz-adv-x="206" 
d="M41 700h124v-124h-124v124zM48 500h110v-500h-110v500z" />
    <glyph glyph-name="idieresis.ss01" horiz-adv-x="230" 
d="M60 500h110v-500h-110v500zM-47 700h124v-124h-124v124zM153 700h124v-124h-124v124z" />
    <glyph glyph-name="i.loclTRK.ss01" horiz-adv-x="230" 
d="M60 500h110v-500h-110v500zM53 700h124v-124h-124v124z" />
    <glyph glyph-name="ij.ss01" horiz-adv-x="542" 
d="M41 700h124v-124h-124v124zM377 700h124v-124h-124v124zM384 31q-22 -19 -51.5 -28t-61.5 -9q-69 0 -119 31t-77 86t-27 126v263h110v-266q0 -64 29 -99t84 -35q51 0 82 34t31 85v281h110v-750l-110 -12v293z" />
    <glyph glyph-name="iogonek.ss01" horiz-adv-x="230" 
d="M60 500h110v-500h-110v500zM53 700h124v-124h-124v124zM65 -221q-33 29 -33 76q0 24 15 60l35 85h88l-39 -94q-6 -14 -9.5 -24t-3.5 -19q0 -13 9.5 -22t29.5 -9h20v-82h-24q-55 0 -88 29z" />
    <glyph glyph-name="j.ss01" horiz-adv-x="230" 
d="M60 500h110v-750l-110 -12v762zM53 700h124v-124h-124v124z" />
    <glyph glyph-name="ldot.ss01" horiz-adv-x="406" 
d="M60 700l110 12v-712h-110v700zM240 418h124v-124h-124v124z" />
    <glyph glyph-name="odieresis.ss01" horiz-adv-x="592" 
d="M164.5 27.5q-58.5 33.5 -91.5 92t-33 130.5t33 130.5t91.5 92t131.5 33.5t131.5 -33.5t91.5 -92t33 -130.5t-33 -130.5t-91.5 -92t-131.5 -33.5t-131.5 33.5zM400 142q40 42 40 108t-40 108t-104 42t-104 -42t-40 -108t40 -108t104 -42t104 42zM134 700h124v-124h-124
v124zM334 700h124v-124h-124v124z" />
    <glyph glyph-name="cdotaccent.ss03.ss01" horiz-adv-x="565" 
d="M166 27.5q-59 33.5 -92.5 92t-33.5 130.5t33.5 130.5t92.5 92t133 33.5q78 0 137 -37.5t89 -104.5l-97 -50q-16 43 -50.5 65.5t-80.5 22.5q-63 0 -104 -42.5t-41 -109.5t41 -109.5t104 -42.5q46 0 80.5 22.5t50.5 65.5l97 -50q-30 -67 -89 -104.5t-137 -37.5
q-74 0 -133 33.5zM233 700h124v-124h-124v124z" />
    <glyph glyph-name="edieresis.ss03.ss01" horiz-adv-x="588" 
d="M169 28q-60 34 -94.5 93t-34.5 129t34 128.5t92 93t128 34.5t128 -34.5t92 -93t34 -128.5q0 -20 -3 -38h-389q9 -49 49.5 -81.5t98.5 -32.5q49 0 82 19.5t50 48.5l86 -68q-76 -104 -218 -104q-75 0 -135 34zM428 306q-11 44 -48 71t-86 27t-86 -27t-48 -71h268zM132 700
h124v-124h-124v124zM332 700h124v-124h-124v124z" />
    <glyph glyph-name="edotaccent.ss03.ss01" horiz-adv-x="588" 
d="M169 28q-60 34 -94.5 93t-34.5 129t34 128.5t92 93t128 34.5t128 -34.5t92 -93t34 -128.5q0 -20 -3 -38h-389q9 -49 49.5 -81.5t98.5 -32.5q49 0 82 19.5t50 48.5l86 -68q-76 -104 -218 -104q-75 0 -135 34zM428 306q-11 44 -48 71t-86 27t-86 -27t-48 -71h268zM232 700
h124v-124h-124v124z" />
    <glyph glyph-name="ij.ss05.ss01" horiz-adv-x="561" 
d="M60 700h124v-124h-124v124zM396 700h124v-124h-124v124zM263 -234.5q-38 21.5 -59 59t-21 84.5h110q0 -29 15 -45t40 -16t40 16t15 45v111q-22 -19 -51.5 -28t-61.5 -9q-69 0 -119 31t-77 86t-27 126v274h110v-277q0 -64 29 -99t84 -35q51 0 82 34t31 85v292h110v-591
q0 -47 -21 -84.5t-59 -59t-85 -21.5t-85 21.5z" />
    <glyph glyph-name="j.ss05.ss01" horiz-adv-x="247" 
d="M-63 -234.5q-38 21.5 -59 59t-21 84.5h110q0 -29 15 -45t40 -16t40 16t15 45v591h110v-591q0 -47 -21 -84.5t-59 -59t-85 -21.5t-85 21.5zM71 700h124v-124h-124v124z" />
    <glyph glyph-name="adieresis.ss06.ss01" horiz-adv-x="471" 
d="M125.5 15.5q-39.5 21.5 -62.5 60.5t-23 90t23 91t63.5 62.5t90.5 22.5q56 0 88 -30v24q0 32 -16.5 49t-44.5 17q-24 0 -42 -10.5t-34 -29.5l-70 70q26 35 63.5 54.5t81.5 19.5q83 0 127.5 -46.5t44.5 -128.5v-331h-110v31q-15 -18 -39 -27.5t-53 -9.5q-48 0 -87.5 21.5z
M287.5 114.5q22.5 20.5 22.5 54.5t-22.5 54.5t-57.5 20.5t-57.5 -20.5t-22.5 -54.5t22.5 -54.5t57.5 -20.5t57.5 20.5zM79 700h124v-124h-124v124zM279 700h124v-124h-124v124z" />
    <glyph glyph-name="edieresis.ss07.ss01" horiz-adv-x="591" 
d="M164.5 28q-58.5 34 -91.5 93t-33 129t33 129t91.5 93t131.5 34q87 0 152 -48.5t91 -126.5l-338 -195q41 -38 95 -38q61 0 97.5 34t45.5 94h112q-22 -109 -88.5 -170.5t-166.5 -61.5q-73 0 -131.5 34zM392 362q-18 19 -43 29.5t-53 10.5q-43 0 -75.5 -20.5t-50.5 -55.5
t-18 -76q0 -17 2 -25zM134 700h124v-124h-124v124zM334 700h124v-124h-124v124z" />
    <glyph glyph-name="gdotaccent.ss08.ss01" horiz-adv-x="606" 
d="M174.5 -231.5q-57.5 24.5 -93 72.5t-35.5 115h112q3 -54 42.5 -81t93.5 -27q59 0 99.5 37t40.5 125v42q-20 -24 -58.5 -41t-88.5 -17q-68 0 -124.5 33t-89.5 91.5t-33 131.5t33 131.5t89.5 91.5t124.5 33q49 0 87.5 -16.5t59.5 -41.5v52h112v-500q0 -86 -35 -143.5
t-92 -85t-121 -27.5q-66 0 -123.5 24.5zM367 120.5q33 20.5 52 54.5t19 75t-19 75t-52 54.5t-73 20.5t-73.5 -20t-53 -54.5t-19.5 -75.5t19.5 -75.5t53.5 -54.5t73 -20q40 0 73 20.5zM239 700h124v-124h-124v124z" />
    <glyph glyph-name="gdotaccent.ss09.ss01" horiz-adv-x="546" 
d="M157 -227q-53 29 -85 81.5t-32 120.5q0 57 23.5 104.5t68.5 77.5q-32 28 -49.5 65.5t-17.5 80.5q0 56 25.5 102.5t71.5 73.5t104 27q63 0 102 -29v23h110v-197q0 -44 -17 -81.5t-50 -64.5q45 -32 70 -79.5t25 -102.5q0 -68 -31 -120.5t-84.5 -81.5t-118.5 -29
q-62 0 -115 29zM341 232q27 27 27 71t-27 71.5t-69 27.5t-69.5 -27t-27.5 -72q0 -44 27.5 -71t69.5 -27t69 27zM360.5 -117q33.5 35 33.5 92t-33.5 91.5t-88.5 34.5q-51 0 -84.5 -35t-33.5 -91t33.5 -91.5t84.5 -35.5q55 0 88.5 35zM210 700h124v-124h-124v124z" />
    <glyph glyph-name="udieresis.ss11.ss01" horiz-adv-x="534" 
d="M156 18.5q-50 24.5 -79 74.5t-29 123v284h110v-276q0 -61 28.5 -93.5t80.5 -32.5t80.5 32.5t28.5 93.5v276h110v-284q0 -109 -61.5 -165.5t-157.5 -56.5q-61 0 -111 24.5zM105 700h124v-124h-124v124zM305 700h124v-124h-124v124z" />
    <glyph glyph-name="wdieresis.ss12.ss01" horiz-adv-x="756" 
d="M24 500h106l97 -365l107 365h88l107 -365l97 365h106l-150 -500h-106l-98 331l-98 -331h-106zM216 700h124v-124h-124v124zM416 700h124v-124h-124v124z" />
    <glyph glyph-name="ydieresis.ss13.ss01" horiz-adv-x="524" 
d="M207 88l-183 412h115l123 -292l123 292h115l-332 -750h-114zM100 700h124v-124h-124v124zM300 700h124v-124h-124v124z" />
    <glyph glyph-name="udieresis.ss01" horiz-adv-x="555" 
d="M105.5 47q-49.5 53 -49.5 153v300h110v-276q0 -65 27 -95.5t82 -30.5q53 0 81.5 34.5t28.5 91.5v276h110v-500h-110v57q-20 -26 -55 -44.5t-82 -18.5q-93 0 -142.5 53zM115 700h124v-124h-124v124zM315 700h124v-124h-124v124z" />
    <glyph glyph-name="wdieresis.ss01" horiz-adv-x="730" 
d="M24 500h112l132 -359l43 128l-87 231h108l33 -104l33 104h108l-87 -231l43 -128l132 359h112l-197 -500h-100l-44 131l-44 -131h-100zM203 700h124v-124h-124v124zM403 700h124v-124h-124v124z" />
    <glyph glyph-name="ydieresis.ss01" horiz-adv-x="524" 
d="M207 88l-183 412h114l124 -291l124 291h114l-183 -412v-338l-110 -12v350zM101 700h124v-124h-124v124zM301 700h124v-124h-124v124z" />
    <glyph glyph-name="zdotaccent.ss01" horiz-adv-x="545" 
d="M44 94l290 302h-272v104h419v-94l-290 -302h308v-104h-455v94zM211 700h124v-124h-124v124z" />
    <glyph glyph-name="c.ss03" horiz-adv-x="565" 
d="M166 27.5q-59 33.5 -92.5 92t-33.5 130.5t33.5 130.5t92.5 92t133 33.5q78 0 137 -37.5t89 -104.5l-97 -50q-16 43 -50.5 65.5t-80.5 22.5q-63 0 -104 -42.5t-41 -109.5t41 -109.5t104 -42.5q46 0 80.5 22.5t50.5 65.5l97 -50q-30 -67 -89 -104.5t-137 -37.5
q-74 0 -133 33.5z" />
    <glyph glyph-name="cacute.ss03" horiz-adv-x="565" 
d="M166 27.5q-59 33.5 -92.5 92t-33.5 130.5t33.5 130.5t92.5 92t133 33.5q78 0 137 -37.5t89 -104.5l-97 -50q-16 43 -50.5 65.5t-80.5 22.5q-63 0 -104 -42.5t-41 -109.5t41 -109.5t104 -42.5q46 0 80.5 22.5t50.5 65.5l97 -50q-30 -67 -89 -104.5t-137 -37.5
q-74 0 -133 33.5zM220 637l226 106l44 -90l-226 -106z" />
    <glyph glyph-name="ccaron.ss03" horiz-adv-x="565" 
d="M166 27.5q-59 33.5 -92.5 92t-33.5 130.5t33.5 130.5t92.5 92t133 33.5q78 0 137 -37.5t89 -104.5l-97 -50q-16 43 -50.5 65.5t-80.5 22.5q-63 0 -104 -42.5t-41 -109.5t41 -109.5t104 -42.5q46 0 80.5 22.5t50.5 65.5l97 -50q-30 -67 -89 -104.5t-137 -37.5
q-74 0 -133 33.5zM112 718l66 67l117 -117l117 117l66 -67l-183 -183z" />
    <glyph glyph-name="ccedilla.ss03" horiz-adv-x="565" 
d="M377.5 120.5q34.5 22.5 50.5 65.5l97 -50q-27 -60 -77 -96.5t-116 -43.5l-21 -36q32 -7 53.5 -33t21.5 -70q0 -47 -33 -80t-80 -33q-46 0 -79.5 33t-33.5 80h82q0 -14 9 -22.5t22 -8.5t21.5 9t8.5 22q0 17 -9.5 27t-27.5 10h-75l62 104q-62 10 -110.5 45t-75.5 89
t-27 118q0 72 33.5 130.5t92.5 92t133 33.5q78 0 137 -37.5t89 -104.5l-97 -50q-16 43 -50.5 65.5t-80.5 22.5q-63 0 -104 -42.5t-41 -109.5t41 -109.5t104 -42.5q46 0 80.5 22.5z" />
    <glyph glyph-name="ccircumflex.ss03" horiz-adv-x="565" 
d="M166 27.5q-59 33.5 -92.5 92t-33.5 130.5t33.5 130.5t92.5 92t133 33.5q78 0 137 -37.5t89 -104.5l-97 -50q-16 43 -50.5 65.5t-80.5 22.5q-63 0 -104 -42.5t-41 -109.5t41 -109.5t104 -42.5q46 0 80.5 22.5t50.5 65.5l97 -50q-30 -67 -89 -104.5t-137 -37.5
q-74 0 -133 33.5zM112 602l183 183l183 -183l-66 -67l-117 117l-117 -117z" />
    <glyph glyph-name="cdotaccent.ss03" horiz-adv-x="565" 
d="M166 27.5q-59 33.5 -92.5 92t-33.5 130.5t33.5 130.5t92.5 92t133 33.5q78 0 137 -37.5t89 -104.5l-97 -50q-16 43 -50.5 65.5t-80.5 22.5q-63 0 -104 -42.5t-41 -109.5t41 -109.5t104 -42.5q46 0 80.5 22.5t50.5 65.5l97 -50q-30 -67 -89 -104.5t-137 -37.5
q-74 0 -133 33.5zM242.5 578q-21.5 22 -21.5 53t21.5 53t52.5 22t52.5 -22t21.5 -53t-21.5 -53t-52.5 -22t-52.5 22z" />
    <glyph glyph-name="e.ss03" horiz-adv-x="588" 
d="M169 28q-60 34 -94.5 93t-34.5 129t34 128.5t92 93t128 34.5t128 -34.5t92 -93t34 -128.5q0 -20 -3 -38h-389q9 -49 49.5 -81.5t98.5 -32.5q49 0 82 19.5t50 48.5l86 -68q-76 -104 -218 -104q-75 0 -135 34zM428 306q-11 44 -48 71t-86 27t-86 -27t-48 -71h268z" />
    <glyph glyph-name="eacute.ss03" horiz-adv-x="588" 
d="M169 28q-60 34 -94.5 93t-34.5 129t34 128.5t92 93t128 34.5t128 -34.5t92 -93t34 -128.5q0 -20 -3 -38h-389q9 -49 49.5 -81.5t98.5 -32.5q49 0 82 19.5t50 48.5l86 -68q-76 -104 -218 -104q-75 0 -135 34zM428 306q-11 44 -48 71t-86 27t-86 -27t-48 -71h268zM219 637
l226 106l44 -90l-226 -106z" />
    <glyph glyph-name="ebreve.ss03" horiz-adv-x="588" 
d="M169 28q-60 34 -94.5 93t-34.5 129t34 128.5t92 93t128 34.5t128 -34.5t92 -93t34 -128.5q0 -20 -3 -38h-389q9 -49 49.5 -81.5t98.5 -32.5q49 0 82 19.5t50 48.5l86 -68q-76 -104 -218 -104q-75 0 -135 34zM428 306q-11 44 -48 71t-86 27t-86 -27t-48 -71h268z
M208 571.5q-40 21.5 -65.5 58.5t-30.5 82h103q6 -30 26 -49.5t53 -19.5t53 19.5t26 49.5h103q-5 -45 -30.5 -82t-65.5 -58.5t-86 -21.5t-86 21.5z" />
    <glyph glyph-name="ecaron.ss03" horiz-adv-x="588" 
d="M169 28q-60 34 -94.5 93t-34.5 129t34 128.5t92 93t128 34.5t128 -34.5t92 -93t34 -128.5q0 -20 -3 -38h-389q9 -49 49.5 -81.5t98.5 -32.5q49 0 82 19.5t50 48.5l86 -68q-76 -104 -218 -104q-75 0 -135 34zM428 306q-11 44 -48 71t-86 27t-86 -27t-48 -71h268zM111 718
l66 67l117 -117l117 117l66 -67l-183 -183z" />
    <glyph glyph-name="ecircumflex.ss03" horiz-adv-x="588" 
d="M169 28q-60 34 -94.5 93t-34.5 129t34 128.5t92 93t128 34.5t128 -34.5t92 -93t34 -128.5q0 -20 -3 -38h-389q9 -49 49.5 -81.5t98.5 -32.5q49 0 82 19.5t50 48.5l86 -68q-76 -104 -218 -104q-75 0 -135 34zM428 306q-11 44 -48 71t-86 27t-86 -27t-48 -71h268zM111 602
l183 183l183 -183l-66 -67l-117 117l-117 -117z" />
    <glyph glyph-name="edieresis.ss03" horiz-adv-x="588" 
d="M169 28q-60 34 -94.5 93t-34.5 129t34 128.5t92 93t128 34.5t128 -34.5t92 -93t34 -128.5q0 -20 -3 -38h-389q9 -49 49.5 -81.5t98.5 -32.5q49 0 82 19.5t50 48.5l86 -68q-76 -104 -218 -104q-75 0 -135 34zM428 306q-11 44 -48 71t-86 27t-86 -27t-48 -71h268z
M125.5 578q-21.5 22 -21.5 53t21.5 53t52.5 22t52.5 -22t21.5 -53t-21.5 -53t-52.5 -22t-52.5 22zM356.5 578q-21.5 22 -21.5 53t21.5 53t52.5 22t52.5 -22t21.5 -53t-21.5 -53t-52.5 -22t-52.5 22z" />
    <glyph glyph-name="edotaccent.ss03" horiz-adv-x="588" 
d="M169 28q-60 34 -94.5 93t-34.5 129t34 128.5t92 93t128 34.5t128 -34.5t92 -93t34 -128.5q0 -20 -3 -38h-389q9 -49 49.5 -81.5t98.5 -32.5q49 0 82 19.5t50 48.5l86 -68q-76 -104 -218 -104q-75 0 -135 34zM428 306q-11 44 -48 71t-86 27t-86 -27t-48 -71h268z
M241.5 578q-21.5 22 -21.5 53t21.5 53t52.5 22t52.5 -22t21.5 -53t-21.5 -53t-52.5 -22t-52.5 22z" />
    <glyph glyph-name="egrave.ss03" horiz-adv-x="588" 
d="M169 28q-60 34 -94.5 93t-34.5 129t34 128.5t92 93t128 34.5t128 -34.5t92 -93t34 -128.5q0 -20 -3 -38h-389q9 -49 49.5 -81.5t98.5 -32.5q49 0 82 19.5t50 48.5l86 -68q-76 -104 -218 -104q-75 0 -135 34zM428 306q-11 44 -48 71t-86 27t-86 -27t-48 -71h268zM99 653
l44 90l226 -106l-44 -90z" />
    <glyph glyph-name="emacron.ss03" horiz-adv-x="588" 
d="M169 28q-60 34 -94.5 93t-34.5 129t34 128.5t92 93t128 34.5t128 -34.5t92 -93t34 -128.5q0 -20 -3 -38h-389q9 -49 49.5 -81.5t98.5 -32.5q49 0 82 19.5t50 48.5l86 -68q-76 -104 -218 -104q-75 0 -135 34zM428 306q-11 44 -48 71t-86 27t-86 -27t-48 -71h268zM136 682
h315v-100h-315v100z" />
    <glyph glyph-name="eogonek.ss03" horiz-adv-x="588" 
d="M545 212h-389q9 -49 49.5 -81.5t98.5 -32.5q49 0 82 19.5t50 48.5l86 -68q-66 -90 -182 -102l-37 -90q-6 -14 -9.5 -24t-3.5 -19q0 -13 9.5 -22t29.5 -9h20v-82h-24q-55 0 -88 29t-33 76q0 24 15 60l34 83q-62 11 -110.5 47t-75.5 89.5t-27 115.5q0 70 34 128.5t92 93
t128 34.5t128 -34.5t92 -93t34 -128.5q0 -20 -3 -38zM428 306q-11 44 -48 71t-86 27t-86 -27t-48 -71h268z" />
    <glyph glyph-name="s.ss03" horiz-adv-x="411" 
d="M87.5 35q-45.5 41 -53.5 97l98 33q6 -33 25.5 -50t48.5 -17q27 0 44 16.5t17 45.5q0 32 -19 45t-59 24q-5 1 -20 5q-44 12 -74 45t-30 89q0 39 18.5 70.5t50 49.5t69.5 18q46 0 78.5 -22t50.5 -58l-78 -51q-5 15 -16 24t-28 9q-18 0 -29 -11t-11 -27q0 -23 16 -32.5
t53 -20.5q21 -5 41 -12q97 -36 97 -143q0 -49 -21.5 -87t-60 -59.5t-87.5 -21.5q-75 0 -120.5 41z" />
    <glyph glyph-name="sacute.ss03" horiz-adv-x="411" 
d="M87.5 35q-45.5 41 -53.5 97l98 33q6 -33 25.5 -50t48.5 -17q27 0 44 16.5t17 45.5q0 32 -19 45t-59 24q-5 1 -20 5q-44 12 -74 45t-30 89q0 39 18.5 70.5t50 49.5t69.5 18q46 0 78.5 -22t50.5 -58l-78 -51q-5 15 -16 24t-28 9q-18 0 -29 -11t-11 -27q0 -23 16 -32.5
t53 -20.5q21 -5 41 -12q97 -36 97 -143q0 -49 -21.5 -87t-60 -59.5t-87.5 -21.5q-75 0 -120.5 41zM131 637l226 106l44 -90l-226 -106z" />
    <glyph glyph-name="scaron.ss03" horiz-adv-x="411" 
d="M87.5 35q-45.5 41 -53.5 97l98 33q6 -33 25.5 -50t48.5 -17q27 0 44 16.5t17 45.5q0 32 -19 45t-59 24q-5 1 -20 5q-44 12 -74 45t-30 89q0 39 18.5 70.5t50 49.5t69.5 18q46 0 78.5 -22t50.5 -58l-78 -51q-5 15 -16 24t-28 9q-18 0 -29 -11t-11 -27q0 -23 16 -32.5
t53 -20.5q21 -5 41 -12q97 -36 97 -143q0 -49 -21.5 -87t-60 -59.5t-87.5 -21.5q-75 0 -120.5 41zM23 718l66 67l117 -117l117 117l66 -67l-183 -183z" />
    <glyph glyph-name="scedilla.ss03" horiz-adv-x="411" 
d="M338.5 51q-38.5 -45 -100.5 -55l-21 -36q32 -7 53.5 -33t21.5 -70q0 -47 -33 -80t-80 -33q-46 0 -79.5 33t-33.5 80h82q0 -14 9 -22.5t22 -8.5t21.5 9t8.5 22q0 17 -9.5 27t-27.5 10h-75l63 105q-54 13 -86.5 50.5t-39.5 82.5l98 33q6 -33 25.5 -50t48.5 -17
q27 0 44 16.5t17 45.5q0 32 -19 45t-59 24q-5 1 -20 5q-44 12 -74 45t-30 89q0 39 18.5 70.5t50 49.5t69.5 18q46 0 78.5 -22t50.5 -58l-78 -51q-5 15 -16 24t-28 9q-18 0 -29 -11t-11 -27q0 -23 16 -32.5t53 -20.5q21 -5 41 -12q97 -36 97 -143q0 -66 -38.5 -111z" />
    <glyph glyph-name="scircumflex.ss03" horiz-adv-x="411" 
d="M87.5 35q-45.5 41 -53.5 97l98 33q6 -33 25.5 -50t48.5 -17q27 0 44 16.5t17 45.5q0 32 -19 45t-59 24q-5 1 -20 5q-44 12 -74 45t-30 89q0 39 18.5 70.5t50 49.5t69.5 18q46 0 78.5 -22t50.5 -58l-78 -51q-5 15 -16 24t-28 9q-18 0 -29 -11t-11 -27q0 -23 16 -32.5
t53 -20.5q21 -5 41 -12q97 -36 97 -143q0 -49 -21.5 -87t-60 -59.5t-87.5 -21.5q-75 0 -120.5 41zM23 602l183 183l183 -183l-66 -67l-117 117l-117 -117z" />
    <glyph glyph-name="uni0219.ss03" horiz-adv-x="411" 
d="M87.5 35q-45.5 41 -53.5 97l98 33q6 -33 25.5 -50t48.5 -17q27 0 44 16.5t17 45.5q0 32 -19 45t-59 24q-5 1 -20 5q-44 12 -74 45t-30 89q0 39 18.5 70.5t50 49.5t69.5 18q46 0 78.5 -22t50.5 -58l-78 -51q-5 15 -16 24t-28 9q-18 0 -29 -11t-11 -27q0 -23 16 -32.5
t53 -20.5q21 -5 41 -12q97 -36 97 -143q0 -49 -21.5 -87t-60 -59.5t-87.5 -21.5q-75 0 -120.5 41zM58 -209l100 167h120l-128 -220z" />
    <glyph glyph-name="ij.ss05" horiz-adv-x="566" 
d="M62.5 578q-21.5 22 -21.5 53t21.5 53t52.5 22t52.5 -22t21.5 -53t-21.5 -53t-52.5 -22t-52.5 22zM398.5 578q-21.5 22 -21.5 53t21.5 53t52.5 22t52.5 -22t21.5 -53t-21.5 -53t-52.5 -22t-52.5 22zM256 -234.5q-38 21.5 -59 59t-21 84.5h110q0 -29 15 -45t40 -16t40 16
t15 45v111q-22 -19 -51.5 -28t-61.5 -9q-69 0 -119 31t-77 86t-27 126v274h110v-277q0 -64 29 -99t84 -35q51 0 82 34t31 85v292h110v-591q0 -47 -21 -84.5t-59 -59t-85 -21.5t-85 21.5z" />
    <glyph glyph-name="j.ss05" horiz-adv-x="247" 
d="M79.5 578q-21.5 22 -21.5 53t21.5 53t52.5 22t52.5 -22t21.5 -53t-21.5 -53t-52.5 -22t-52.5 22zM-63 -234.5q-38 21.5 -59 59t-21 84.5h110q0 -29 15 -45t40 -16t40 16t15 45v591h110v-591q0 -47 -21 -84.5t-59 -59t-85 -21.5t-85 21.5z" />
    <glyph glyph-name="uni0237.ss05" horiz-adv-x="247" 
d="M-63 -234.5q-38 21.5 -59 59t-21 84.5h110q0 -29 15 -45t40 -16t40 16t15 45v591h110v-591q0 -47 -21 -84.5t-59 -59t-85 -21.5t-85 21.5z" />
    <glyph glyph-name="jcircumflex.ss05" horiz-adv-x="247" 
d="M-63 -234.5q-38 21.5 -59 59t-21 84.5h110q0 -29 15 -45t40 -16t40 16t15 45v591h110v-591q0 -47 -21 -84.5t-59 -59t-85 -21.5t-85 21.5zM-50 602l183 183l183 -183l-66 -67l-117 117l-117 -117z" />
    <glyph glyph-name="t.ss05" horiz-adv-x="459" 
d="M174.5 39q-45.5 45 -45.5 119v238h-101v104h101v128h110v-128h150v-104h-150v-238q0 -29 15 -44.5t41 -15.5q18 0 31.5 11t20.5 27l86 -64q-19 -35 -55.5 -56.5t-86.5 -21.5q-71 0 -116.5 45z" />
    <glyph glyph-name="tbar.ss05" horiz-adv-x="459" 
d="M174.5 39q-45.5 45 -45.5 119v95h-101v94h101v49h-101v104h101v128h110v-128h150v-104h-150v-49h138v-94h-138v-95q0 -29 15 -44.5t41 -15.5q18 0 31.5 11t20.5 27l86 -64q-19 -35 -55.5 -56.5t-86.5 -21.5q-71 0 -116.5 45z" />
    <glyph glyph-name="tcaron.ss05" horiz-adv-x="459" 
d="M174.5 39q-45.5 45 -45.5 119v238h-101v104h101v128h110v-128h150v-104h-150v-238q0 -29 15 -44.5t41 -15.5q18 0 31.5 11t20.5 27l86 -64q-19 -35 -55.5 -56.5t-86.5 -21.5q-71 0 -116.5 45zM292 608l99 167h120l-127 -220z" />
    <glyph glyph-name="uni0163.ss05" horiz-adv-x="459" 
d="M390 24q-27 -20 -64 -27l-21 -37q32 -7 53.5 -33t21.5 -70q0 -47 -33 -80t-80 -33q-46 0 -79.5 33t-33.5 80h82q0 -14 9 -22.5t22 -8.5t21.5 9t8.5 22q0 17 -9.5 27t-27.5 10h-75l62 105q-54 13 -86 55t-32 104v238h-101v104h101v128h110v-128h150v-104h-150v-238
q0 -29 15 -44.5t41 -15.5q18 0 31.5 11t20.5 27l86 -64q-16 -28 -43 -48z" />
    <glyph glyph-name="uni021B.ss05" horiz-adv-x="459" 
d="M174.5 39q-45.5 45 -45.5 119v238h-101v104h101v128h110v-128h150v-104h-150v-238q0 -29 15 -44.5t41 -15.5q18 0 31.5 11t20.5 27l86 -64q-19 -35 -55.5 -56.5t-86.5 -21.5q-71 0 -116.5 45zM165 -209l100 167h120l-128 -220z" />
    <glyph glyph-name="a.ss06" horiz-adv-x="471" 
d="M125.5 15.5q-39.5 21.5 -62.5 60.5t-23 90t23 91t63.5 62.5t90.5 22.5q56 0 88 -30v24q0 32 -16.5 49t-44.5 17q-24 0 -42 -10.5t-34 -29.5l-70 70q26 35 63.5 54.5t81.5 19.5q83 0 127.5 -46.5t44.5 -128.5v-331h-110v31q-15 -18 -39 -27.5t-53 -9.5q-48 0 -87.5 21.5z
M287.5 114.5q22.5 20.5 22.5 54.5t-22.5 54.5t-57.5 20.5t-57.5 -20.5t-22.5 -54.5t22.5 -54.5t57.5 -20.5t57.5 20.5z" />
    <glyph glyph-name="aacute.ss06" horiz-adv-x="471" 
d="M125.5 15.5q-39.5 21.5 -62.5 60.5t-23 90t23 91t63.5 62.5t90.5 22.5q56 0 88 -30v24q0 32 -16.5 49t-44.5 17q-24 0 -42 -10.5t-34 -29.5l-70 70q26 35 63.5 54.5t81.5 19.5q83 0 127.5 -46.5t44.5 -128.5v-331h-110v31q-15 -18 -39 -27.5t-53 -9.5q-48 0 -87.5 21.5z
M287.5 114.5q22.5 20.5 22.5 54.5t-22.5 54.5t-57.5 20.5t-57.5 -20.5t-22.5 -54.5t22.5 -54.5t57.5 -20.5t57.5 20.5zM166 637l226 106l44 -90l-226 -106z" />
    <glyph glyph-name="abreve.ss06" horiz-adv-x="471" 
d="M125.5 15.5q-39.5 21.5 -62.5 60.5t-23 90t23 91t63.5 62.5t90.5 22.5q56 0 88 -30v24q0 32 -16.5 49t-44.5 17q-24 0 -42 -10.5t-34 -29.5l-70 70q26 35 63.5 54.5t81.5 19.5q83 0 127.5 -46.5t44.5 -128.5v-331h-110v31q-15 -18 -39 -27.5t-53 -9.5q-48 0 -87.5 21.5z
M287.5 114.5q22.5 20.5 22.5 54.5t-22.5 54.5t-57.5 20.5t-57.5 -20.5t-22.5 -54.5t22.5 -54.5t57.5 -20.5t57.5 20.5zM155 571.5q-40 21.5 -65.5 58.5t-30.5 82h103q6 -30 26 -49.5t53 -19.5t53 19.5t26 49.5h103q-5 -45 -30.5 -82t-65.5 -58.5t-86 -21.5t-86 21.5z" />
    <glyph glyph-name="acircumflex.ss06" horiz-adv-x="471" 
d="M125.5 15.5q-39.5 21.5 -62.5 60.5t-23 90t23 91t63.5 62.5t90.5 22.5q56 0 88 -30v24q0 32 -16.5 49t-44.5 17q-24 0 -42 -10.5t-34 -29.5l-70 70q26 35 63.5 54.5t81.5 19.5q83 0 127.5 -46.5t44.5 -128.5v-331h-110v31q-15 -18 -39 -27.5t-53 -9.5q-48 0 -87.5 21.5z
M287.5 114.5q22.5 20.5 22.5 54.5t-22.5 54.5t-57.5 20.5t-57.5 -20.5t-22.5 -54.5t22.5 -54.5t57.5 -20.5t57.5 20.5zM58 602l183 183l183 -183l-66 -67l-117 117l-117 -117z" />
    <glyph glyph-name="adieresis.ss06" horiz-adv-x="471" 
d="M125.5 15.5q-39.5 21.5 -62.5 60.5t-23 90t23 91t63.5 62.5t90.5 22.5q56 0 88 -30v24q0 32 -16.5 49t-44.5 17q-24 0 -42 -10.5t-34 -29.5l-70 70q26 35 63.5 54.5t81.5 19.5q83 0 127.5 -46.5t44.5 -128.5v-331h-110v31q-15 -18 -39 -27.5t-53 -9.5q-48 0 -87.5 21.5z
M287.5 114.5q22.5 20.5 22.5 54.5t-22.5 54.5t-57.5 20.5t-57.5 -20.5t-22.5 -54.5t22.5 -54.5t57.5 -20.5t57.5 20.5zM72.5 578q-21.5 22 -21.5 53t21.5 53t52.5 22t52.5 -22t21.5 -53t-21.5 -53t-52.5 -22t-52.5 22zM303.5 578q-21.5 22 -21.5 53t21.5 53t52.5 22
t52.5 -22t21.5 -53t-21.5 -53t-52.5 -22t-52.5 22z" />
    <glyph glyph-name="agrave.ss06" horiz-adv-x="471" 
d="M125.5 15.5q-39.5 21.5 -62.5 60.5t-23 90t23 91t63.5 62.5t90.5 22.5q56 0 88 -30v24q0 32 -16.5 49t-44.5 17q-24 0 -42 -10.5t-34 -29.5l-70 70q26 35 63.5 54.5t81.5 19.5q83 0 127.5 -46.5t44.5 -128.5v-331h-110v31q-15 -18 -39 -27.5t-53 -9.5q-48 0 -87.5 21.5z
M287.5 114.5q22.5 20.5 22.5 54.5t-22.5 54.5t-57.5 20.5t-57.5 -20.5t-22.5 -54.5t22.5 -54.5t57.5 -20.5t57.5 20.5zM46 653l44 90l226 -106l-44 -90z" />
    <glyph glyph-name="amacron.ss06" horiz-adv-x="471" 
d="M125.5 15.5q-39.5 21.5 -62.5 60.5t-23 90t23 91t63.5 62.5t90.5 22.5q56 0 88 -30v24q0 32 -16.5 49t-44.5 17q-24 0 -42 -10.5t-34 -29.5l-70 70q26 35 63.5 54.5t81.5 19.5q83 0 127.5 -46.5t44.5 -128.5v-331h-110v31q-15 -18 -39 -27.5t-53 -9.5q-48 0 -87.5 21.5z
M287.5 114.5q22.5 20.5 22.5 54.5t-22.5 54.5t-57.5 20.5t-57.5 -20.5t-22.5 -54.5t22.5 -54.5t57.5 -20.5t57.5 20.5zM83 682h315v-100h-315v100z" />
    <glyph glyph-name="aogonek.ss06" horiz-adv-x="471" 
d="M422 -168v-82h-24q-55 0 -88 29t-33 76q0 24 15 60l35 85h-22v31q-15 -18 -39 -27.5t-53 -9.5q-48 0 -87.5 21.5t-62.5 60.5t-23 90t23 91t63.5 62.5t90.5 22.5q56 0 88 -30v24q0 32 -16.5 49t-44.5 17q-24 0 -42 -10.5t-34 -29.5l-70 70q26 35 63.5 54.5t81.5 19.5
q83 0 127.5 -46.5t44.5 -128.5v-331l-39 -94q-6 -14 -9.5 -24t-3.5 -19q0 -13 9.5 -22t29.5 -9h20zM287.5 114.5q22.5 20.5 22.5 54.5t-22.5 54.5t-57.5 20.5t-57.5 -20.5t-22.5 -54.5t22.5 -54.5t57.5 -20.5t57.5 20.5z" />
    <glyph glyph-name="aring.ss06" horiz-adv-x="471" 
d="M125.5 15.5q-39.5 21.5 -62.5 60.5t-23 90t23 91t63.5 62.5t90.5 22.5q56 0 88 -30v24q0 32 -16.5 49t-44.5 17q-24 0 -42 -10.5t-34 -29.5l-70 70q26 35 63.5 54.5t81.5 19.5q83 0 127.5 -46.5t44.5 -128.5v-331h-110v31q-15 -18 -39 -27.5t-53 -9.5q-48 0 -87.5 21.5z
M287.5 114.5q22.5 20.5 22.5 54.5t-22.5 54.5t-57.5 20.5t-57.5 -20.5t-22.5 -54.5t22.5 -54.5t57.5 -20.5t57.5 20.5zM170 579q-29 29 -29 71t29 71t71 29t71 -29t29 -71t-29 -71t-71 -29t-71 29zM261 630q8 8 8 20t-8 20t-20 8t-20 -8t-8 -20t8 -20t20 -8t20 8z" />
    <glyph glyph-name="atilde.ss06" horiz-adv-x="471" 
d="M125.5 15.5q-39.5 21.5 -62.5 60.5t-23 90t23 91t63.5 62.5t90.5 22.5q56 0 88 -30v24q0 32 -16.5 49t-44.5 17q-24 0 -42 -10.5t-34 -29.5l-70 70q26 35 63.5 54.5t81.5 19.5q83 0 127.5 -46.5t44.5 -128.5v-331h-110v31q-15 -18 -39 -27.5t-53 -9.5q-48 0 -87.5 21.5z
M287.5 114.5q22.5 20.5 22.5 54.5t-22.5 54.5t-57.5 20.5t-57.5 -20.5t-22.5 -54.5t22.5 -54.5t57.5 -20.5t57.5 20.5zM62 600q0 58 27.5 89t72.5 31q24 0 44 -7.5t42 -26.5l15 -12q14 -12 22.5 -17.5t17.5 -5.5q12 0 18 7.5t6 20.5v41h92v-46q0 -58 -27.5 -89t-72.5 -31
q-24 0 -44 7.5t-42 26.5l-15 12q-14 12 -22.5 17.5t-17.5 5.5q-12 0 -18 -7.5t-6 -20.5v-41h-92v46z" />
    <glyph glyph-name="ae.ss06" horiz-adv-x="849" 
d="M125.5 15.5q-39.5 21.5 -62.5 60.5t-23 90t23 91t63.5 62.5t90.5 22.5q54 0 88 -32v26q0 33 -17 49.5t-50 16.5q-41 0 -67 -43l-71 71q23 35 60.5 55.5t82.5 20.5q99 0 142 -65q34 31 77.5 48t92.5 17q70 0 128 -34.5t92 -93t34 -128.5q0 -20 -3 -38h-389q9 -48 48.5 -81
t92.5 -33q39 0 68 12t45 36h131q-26 -68 -92.5 -110t-151.5 -42q-77 0 -143 42v-36h-110v31q-15 -18 -39 -27.5t-53 -9.5q-48 0 -87.5 21.5zM689 306q-11 44 -48 71t-86 27t-86 -27t-48 -71h268zM287.5 114.5q22.5 20.5 22.5 54.5t-22.5 54.5t-57.5 20.5t-57.5 -20.5
t-22.5 -54.5t22.5 -54.5t57.5 -20.5t57.5 20.5z" />
    <glyph glyph-name="aeacute.ss06" horiz-adv-x="849" 
d="M125.5 15.5q-39.5 21.5 -62.5 60.5t-23 90t23 91t63.5 62.5t90.5 22.5q54 0 88 -32v26q0 33 -17 49.5t-50 16.5q-41 0 -67 -43l-71 71q23 35 60.5 55.5t82.5 20.5q99 0 142 -65q34 31 77.5 48t92.5 17q70 0 128 -34.5t92 -93t34 -128.5q0 -20 -3 -38h-389q9 -48 48.5 -81
t92.5 -33q39 0 68 12t45 36h131q-26 -68 -92.5 -110t-151.5 -42q-77 0 -143 42v-36h-110v31q-15 -18 -39 -27.5t-53 -9.5q-48 0 -87.5 21.5zM689 306q-11 44 -48 71t-86 27t-86 -27t-48 -71h268zM287.5 114.5q22.5 20.5 22.5 54.5t-22.5 54.5t-57.5 20.5t-57.5 -20.5
t-22.5 -54.5t22.5 -54.5t57.5 -20.5t57.5 20.5zM310 637l226 106l44 -90l-226 -106z" />
    <glyph glyph-name="ae.ss07" horiz-adv-x="985" 
d="M163 27q-57 33 -90 91t-33 132t33 132t90 91t128 33q46 0 85.5 -17.5t57.5 -40.5v52h112v-36q62 42 144 42q87 0 152 -48.5t91 -126.5l-338 -195q41 -38 95 -38q61 0 97.5 34t45.5 94h112q-7 -69 -42 -121.5t-90.5 -81.5t-122.5 -29q-82 0 -144 42v-36h-112v52
q-18 -23 -57 -40.5t-86 -17.5q-71 0 -128 33zM786 362q-18 19 -43 29.5t-53 10.5q-43 0 -75.5 -20.5t-50.5 -55.5t-18 -76q0 -17 2 -25zM367.5 120.5q32.5 20.5 51.5 54.5t19 75t-19 75t-51.5 54.5t-72.5 20.5q-41 0 -74.5 -20.5t-53 -54.5t-19.5 -75t19.5 -75t53 -54.5
t74.5 -20.5q40 0 72.5 20.5z" />
    <glyph glyph-name="aeacute.ss07" horiz-adv-x="985" 
d="M163 27q-57 33 -90 91t-33 132t33 132t90 91t128 33q46 0 85.5 -17.5t57.5 -40.5v52h112v-36q62 42 144 42q87 0 152 -48.5t91 -126.5l-338 -195q41 -38 95 -38q61 0 97.5 34t45.5 94h112q-7 -69 -42 -121.5t-90.5 -81.5t-122.5 -29q-82 0 -144 42v-36h-112v52
q-18 -23 -57 -40.5t-86 -17.5q-71 0 -128 33zM786 362q-18 19 -43 29.5t-53 10.5q-43 0 -75.5 -20.5t-50.5 -55.5t-18 -76q0 -17 2 -25zM367.5 120.5q32.5 20.5 51.5 54.5t19 75t-19 75t-51.5 54.5t-72.5 20.5q-41 0 -74.5 -20.5t-53 -54.5t-19.5 -75t19.5 -75t53 -54.5
t74.5 -20.5q40 0 72.5 20.5zM418 637l226 106l44 -90l-226 -106z" />
    <glyph glyph-name="e.ss07" horiz-adv-x="591" 
d="M164.5 28q-58.5 34 -91.5 93t-33 129t33 129t91.5 93t131.5 34q87 0 152 -48.5t91 -126.5l-338 -195q41 -38 95 -38q61 0 97.5 34t45.5 94h112q-22 -109 -88.5 -170.5t-166.5 -61.5q-73 0 -131.5 34zM392 362q-18 19 -43 29.5t-53 10.5q-43 0 -75.5 -20.5t-50.5 -55.5
t-18 -76q0 -17 2 -25z" />
    <glyph glyph-name="eacute.ss07" horiz-adv-x="591" 
d="M164.5 28q-58.5 34 -91.5 93t-33 129t33 129t91.5 93t131.5 34q87 0 152 -48.5t91 -126.5l-338 -195q41 -38 95 -38q61 0 97.5 34t45.5 94h112q-22 -109 -88.5 -170.5t-166.5 -61.5q-73 0 -131.5 34zM392 362q-18 19 -43 29.5t-53 10.5q-43 0 -75.5 -20.5t-50.5 -55.5
t-18 -76q0 -17 2 -25zM221 637l226 106l44 -90l-226 -106z" />
    <glyph glyph-name="ecircumflex.ss07" horiz-adv-x="591" 
d="M164.5 28q-58.5 34 -91.5 93t-33 129t33 129t91.5 93t131.5 34q87 0 152 -48.5t91 -126.5l-338 -195q41 -38 95 -38q61 0 97.5 34t45.5 94h112q-22 -109 -88.5 -170.5t-166.5 -61.5q-73 0 -131.5 34zM392 362q-18 19 -43 29.5t-53 10.5q-43 0 -75.5 -20.5t-50.5 -55.5
t-18 -76q0 -17 2 -25zM113 602l183 183l183 -183l-66 -67l-117 117l-117 -117z" />
    <glyph glyph-name="edieresis.ss07" horiz-adv-x="591" 
d="M164.5 28q-58.5 34 -91.5 93t-33 129t33 129t91.5 93t131.5 34q87 0 152 -48.5t91 -126.5l-338 -195q41 -38 95 -38q61 0 97.5 34t45.5 94h112q-22 -109 -88.5 -170.5t-166.5 -61.5q-73 0 -131.5 34zM392 362q-18 19 -43 29.5t-53 10.5q-43 0 -75.5 -20.5t-50.5 -55.5
t-18 -76q0 -17 2 -25zM127.5 578q-21.5 22 -21.5 53t21.5 53t52.5 22t52.5 -22t21.5 -53t-21.5 -53t-52.5 -22t-52.5 22zM358.5 578q-21.5 22 -21.5 53t21.5 53t52.5 22t52.5 -22t21.5 -53t-21.5 -53t-52.5 -22t-52.5 22z" />
    <glyph glyph-name="egrave.ss07" horiz-adv-x="591" 
d="M164.5 28q-58.5 34 -91.5 93t-33 129t33 129t91.5 93t131.5 34q87 0 152 -48.5t91 -126.5l-338 -195q41 -38 95 -38q61 0 97.5 34t45.5 94h112q-22 -109 -88.5 -170.5t-166.5 -61.5q-73 0 -131.5 34zM392 362q-18 19 -43 29.5t-53 10.5q-43 0 -75.5 -20.5t-50.5 -55.5
t-18 -76q0 -17 2 -25zM101 653l44 90l226 -106l-44 -90z" />
    <glyph glyph-name="emacron.ss07" horiz-adv-x="591" 
d="M164.5 28q-58.5 34 -91.5 93t-33 129t33 129t91.5 93t131.5 34q87 0 152 -48.5t91 -126.5l-338 -195q41 -38 95 -38q61 0 97.5 34t45.5 94h112q-22 -109 -88.5 -170.5t-166.5 -61.5q-73 0 -131.5 34zM392 362q-18 19 -43 29.5t-53 10.5q-43 0 -75.5 -20.5t-50.5 -55.5
t-18 -76q0 -17 2 -25zM138 682h315v-100h-315v100z" />
    <glyph glyph-name="eogonek.ss07" horiz-adv-x="591" 
d="M315 -94q-6 -14 -9.5 -24t-3.5 -19q0 -13 9.5 -22t29.5 -9h20v-82h-24q-55 0 -88 29t-33 76q0 24 15 60l33 81q-65 7 -116 42.5t-79.5 91t-28.5 120.5q0 70 33 129t91.5 93t131.5 34q87 0 152 -48.5t91 -126.5l-338 -195q41 -38 95 -38q61 0 97.5 34t45.5 94h112
q-19 -92 -70 -151t-127 -75zM154 225l238 137q-18 19 -43 29.5t-53 10.5q-43 0 -75.5 -20.5t-50.5 -55.5t-18 -76q0 -17 2 -25z" />
    <glyph glyph-name="oe.ss07" horiz-adv-x="991" 
d="M164.5 27.5q-58.5 33.5 -91.5 92t-33 130.5t33 130.5t91.5 92t131.5 33.5q62 0 113.5 -24.5t86.5 -68.5q35 44 87 68.5t113 24.5q87 0 152 -48.5t91 -126.5l-338 -195q41 -38 95 -38q61 0 97.5 34t45.5 94h112q-7 -69 -42 -121.5t-90.5 -81.5t-122.5 -29q-61 0 -113 24.5
t-87 67.5q-35 -44 -86.5 -68t-113.5 -24q-73 0 -131.5 33.5zM792 362q-18 19 -43 29.5t-53 10.5q-64 0 -104 -43t-40 -109q0 -17 2 -25zM400 142q40 42 40 108t-40 108t-104 42t-104 -42t-40 -108t40 -108t104 -42t104 42z" />
    <glyph glyph-name="ae.ss06.ss07" horiz-adv-x="854" 
d="M125.5 15.5q-39.5 21.5 -62.5 60.5t-23 90t23 91t63.5 62.5t90.5 22.5q54 0 88 -32v26q0 33 -17 49.5t-50 16.5q-41 0 -67 -43l-71 71q23 35 60.5 55.5t82.5 20.5q49 0 85 -17t57 -48q35 31 79.5 48t94.5 17q87 0 152 -48.5t91 -126.5l-338 -195q41 -38 95 -38
q61 0 97.5 34t45.5 94h112q-7 -69 -42 -121.5t-90.5 -81.5t-122.5 -29q-82 0 -144 42v-36h-110v31q-15 -18 -39 -27.5t-53 -9.5q-48 0 -87.5 21.5zM655 362q-18 19 -43 29.5t-53 10.5q-43 0 -75.5 -20.5t-50.5 -55.5t-18 -76q0 -17 2 -25zM287.5 114.5q22.5 20.5 22.5 54.5
t-22.5 54.5t-57.5 20.5t-57.5 -20.5t-22.5 -54.5t22.5 -54.5t57.5 -20.5t57.5 20.5z" />
    <glyph glyph-name="aeacute.ss06.ss07" horiz-adv-x="854" 
d="M125.5 15.5q-39.5 21.5 -62.5 60.5t-23 90t23 91t63.5 62.5t90.5 22.5q54 0 88 -32v26q0 33 -17 49.5t-50 16.5q-41 0 -67 -43l-71 71q23 35 60.5 55.5t82.5 20.5q49 0 85 -17t57 -48q35 31 79.5 48t94.5 17q87 0 152 -48.5t91 -126.5l-338 -195q41 -38 95 -38
q61 0 97.5 34t45.5 94h112q-7 -69 -42 -121.5t-90.5 -81.5t-122.5 -29q-82 0 -144 42v-36h-110v31q-15 -18 -39 -27.5t-53 -9.5q-48 0 -87.5 21.5zM655 362q-18 19 -43 29.5t-53 10.5q-43 0 -75.5 -20.5t-50.5 -55.5t-18 -76q0 -17 2 -25zM287.5 114.5q22.5 20.5 22.5 54.5
t-22.5 54.5t-57.5 20.5t-57.5 -20.5t-22.5 -54.5t22.5 -54.5t57.5 -20.5t57.5 20.5zM312 637l226 106l44 -90l-226 -106z" />
    <glyph glyph-name="g.ss08" horiz-adv-x="606" 
d="M174.5 -231.5q-57.5 24.5 -93 72.5t-35.5 115h112q3 -54 42.5 -81t93.5 -27q59 0 99.5 37t40.5 125v42q-20 -24 -58.5 -41t-88.5 -17q-68 0 -124.5 33t-89.5 91.5t-33 131.5t33 131.5t89.5 91.5t124.5 33q49 0 87.5 -16.5t59.5 -41.5v52h112v-500q0 -86 -35 -143.5
t-92 -85t-121 -27.5q-66 0 -123.5 24.5zM367 120.5q33 20.5 52 54.5t19 75t-19 75t-52 54.5t-73 20.5t-73.5 -20t-53 -54.5t-19.5 -75.5t19.5 -75.5t53.5 -54.5t73 -20q40 0 73 20.5z" />
    <glyph glyph-name="gbreve.ss08" horiz-adv-x="606" 
d="M174.5 -231.5q-57.5 24.5 -93 72.5t-35.5 115h112q3 -54 42.5 -81t93.5 -27q59 0 99.5 37t40.5 125v42q-20 -24 -58.5 -41t-88.5 -17q-68 0 -124.5 33t-89.5 91.5t-33 131.5t33 131.5t89.5 91.5t124.5 33q49 0 87.5 -16.5t59.5 -41.5v52h112v-500q0 -86 -35 -143.5
t-92 -85t-121 -27.5q-66 0 -123.5 24.5zM367 120.5q33 20.5 52 54.5t19 75t-19 75t-52 54.5t-73 20.5t-73.5 -20t-53 -54.5t-19.5 -75.5t19.5 -75.5t53.5 -54.5t73 -20q40 0 73 20.5zM215 571.5q-40 21.5 -65.5 58.5t-30.5 82h103q6 -30 26 -49.5t53 -19.5t53 19.5t26 49.5
h103q-5 -45 -30.5 -82t-65.5 -58.5t-86 -21.5t-86 21.5z" />
    <glyph glyph-name="gcircumflex.ss08" horiz-adv-x="606" 
d="M174.5 -231.5q-57.5 24.5 -93 72.5t-35.5 115h112q3 -54 42.5 -81t93.5 -27q59 0 99.5 37t40.5 125v42q-20 -24 -58.5 -41t-88.5 -17q-68 0 -124.5 33t-89.5 91.5t-33 131.5t33 131.5t89.5 91.5t124.5 33q49 0 87.5 -16.5t59.5 -41.5v52h112v-500q0 -86 -35 -143.5
t-92 -85t-121 -27.5q-66 0 -123.5 24.5zM367 120.5q33 20.5 52 54.5t19 75t-19 75t-52 54.5t-73 20.5t-73.5 -20t-53 -54.5t-19.5 -75.5t19.5 -75.5t53.5 -54.5t73 -20q40 0 73 20.5zM118 602l183 183l183 -183l-66 -67l-117 117l-117 -117z" />
    <glyph glyph-name="uni0123.ss08" horiz-adv-x="606" 
d="M174.5 -231.5q-57.5 24.5 -93 72.5t-35.5 115h112q3 -54 42.5 -81t93.5 -27q59 0 99.5 37t40.5 125v42q-20 -24 -58.5 -41t-88.5 -17q-68 0 -124.5 33t-89.5 91.5t-33 131.5t33 131.5t89.5 91.5t124.5 33q49 0 87.5 -16.5t59.5 -41.5v52h112v-500q0 -86 -35 -143.5
t-92 -85t-121 -27.5q-66 0 -123.5 24.5zM367 120.5q33 20.5 52 54.5t19 75t-19 75t-52 54.5t-73 20.5t-73.5 -20t-53 -54.5t-19.5 -75.5t19.5 -75.5t53.5 -54.5t73 -20q40 0 73 20.5zM324 712l92 -53l-71 -117h-120z" />
    <glyph glyph-name="gdotaccent.ss08" horiz-adv-x="606" 
d="M174.5 -231.5q-57.5 24.5 -93 72.5t-35.5 115h112q3 -54 42.5 -81t93.5 -27q59 0 99.5 37t40.5 125v42q-20 -24 -58.5 -41t-88.5 -17q-68 0 -124.5 33t-89.5 91.5t-33 131.5t33 131.5t89.5 91.5t124.5 33q49 0 87.5 -16.5t59.5 -41.5v52h112v-500q0 -86 -35 -143.5
t-92 -85t-121 -27.5q-66 0 -123.5 24.5zM367 120.5q33 20.5 52 54.5t19 75t-19 75t-52 54.5t-73 20.5t-73.5 -20t-53 -54.5t-19.5 -75.5t19.5 -75.5t53.5 -54.5t73 -20q40 0 73 20.5zM248.5 578q-21.5 22 -21.5 53t21.5 53t52.5 22t52.5 -22t21.5 -53t-21.5 -53t-52.5 -22
t-52.5 22z" />
    <glyph glyph-name="g.ss09" horiz-adv-x="546" 
d="M157 -227q-53 29 -85 81.5t-32 120.5q0 57 23.5 104.5t68.5 77.5q-32 28 -49.5 65.5t-17.5 80.5q0 56 25.5 102.5t71.5 73.5t104 27q63 0 102 -29v23h110v-197q0 -44 -17 -81.5t-50 -64.5q45 -32 70 -79.5t25 -102.5q0 -68 -31 -120.5t-84.5 -81.5t-118.5 -29
q-62 0 -115 29zM341 232q27 27 27 71t-27 71.5t-69 27.5t-69.5 -27t-27.5 -72q0 -44 27.5 -71t69.5 -27t69 27zM360.5 -117q33.5 35 33.5 92t-33.5 91.5t-88.5 34.5q-51 0 -84.5 -35t-33.5 -91t33.5 -91.5t84.5 -35.5q55 0 88.5 35z" />
    <glyph glyph-name="gbreve.ss09" horiz-adv-x="546" 
d="M157 -227q-53 29 -85 81.5t-32 120.5q0 57 23.5 104.5t68.5 77.5q-32 28 -49.5 65.5t-17.5 80.5q0 56 25.5 102.5t71.5 73.5t104 27q63 0 102 -29v23h110v-197q0 -44 -17 -81.5t-50 -64.5q45 -32 70 -79.5t25 -102.5q0 -68 -31 -120.5t-84.5 -81.5t-118.5 -29
q-62 0 -115 29zM341 232q27 27 27 71t-27 71.5t-69 27.5t-69.5 -27t-27.5 -72q0 -44 27.5 -71t69.5 -27t69 27zM360.5 -117q33.5 35 33.5 92t-33.5 91.5t-88.5 34.5q-51 0 -84.5 -35t-33.5 -91t33.5 -91.5t84.5 -35.5q55 0 88.5 35zM186 571.5q-40 21.5 -65.5 58.5t-30.5 82
h103q6 -30 26 -49.5t53 -19.5t53 19.5t26 49.5h103q-5 -45 -30.5 -82t-65.5 -58.5t-86 -21.5t-86 21.5z" />
    <glyph glyph-name="gcircumflex.ss09" horiz-adv-x="546" 
d="M157 -227q-53 29 -85 81.5t-32 120.5q0 57 23.5 104.5t68.5 77.5q-32 28 -49.5 65.5t-17.5 80.5q0 56 25.5 102.5t71.5 73.5t104 27q63 0 102 -29v23h110v-197q0 -44 -17 -81.5t-50 -64.5q45 -32 70 -79.5t25 -102.5q0 -68 -31 -120.5t-84.5 -81.5t-118.5 -29
q-62 0 -115 29zM341 232q27 27 27 71t-27 71.5t-69 27.5t-69.5 -27t-27.5 -72q0 -44 27.5 -71t69.5 -27t69 27zM360.5 -117q33.5 35 33.5 92t-33.5 91.5t-88.5 34.5q-51 0 -84.5 -35t-33.5 -91t33.5 -91.5t84.5 -35.5q55 0 88.5 35zM89 602l183 183l183 -183l-66 -67
l-117 117l-117 -117z" />
    <glyph glyph-name="uni0123.ss09" horiz-adv-x="546" 
d="M157 -227q-53 29 -85 81.5t-32 120.5q0 57 23.5 104.5t68.5 77.5q-32 28 -49.5 65.5t-17.5 80.5q0 56 25.5 102.5t71.5 73.5t104 27q63 0 102 -29v23h110v-197q0 -44 -17 -81.5t-50 -64.5q45 -32 70 -79.5t25 -102.5q0 -68 -31 -120.5t-84.5 -81.5t-118.5 -29
q-62 0 -115 29zM341 232q27 27 27 71t-27 71.5t-69 27.5t-69.5 -27t-27.5 -72q0 -44 27.5 -71t69.5 -27t69 27zM360.5 -117q33.5 35 33.5 92t-33.5 91.5t-88.5 34.5q-51 0 -84.5 -35t-33.5 -91t33.5 -91.5t84.5 -35.5q55 0 88.5 35zM295 712l92 -53l-71 -117h-120z" />
    <glyph glyph-name="gdotaccent.ss09" horiz-adv-x="546" 
d="M157 -227q-53 29 -85 81.5t-32 120.5q0 57 23.5 104.5t68.5 77.5q-32 28 -49.5 65.5t-17.5 80.5q0 56 25.5 102.5t71.5 73.5t104 27q63 0 102 -29v23h110v-197q0 -44 -17 -81.5t-50 -64.5q45 -32 70 -79.5t25 -102.5q0 -68 -31 -120.5t-84.5 -81.5t-118.5 -29
q-62 0 -115 29zM341 232q27 27 27 71t-27 71.5t-69 27.5t-69.5 -27t-27.5 -72q0 -44 27.5 -71t69.5 -27t69 27zM360.5 -117q33.5 35 33.5 92t-33.5 91.5t-88.5 34.5q-51 0 -84.5 -35t-33.5 -91t33.5 -91.5t84.5 -35.5q55 0 88.5 35zM219.5 578q-21.5 22 -21.5 53t21.5 53
t52.5 22t52.5 -22t21.5 -53t-21.5 -53t-52.5 -22t-52.5 22z" />
    <glyph glyph-name="k.ss10" horiz-adv-x="470" 
d="M60 700l110 12v-235q15 12 41 20.5t52 8.5q78 0 125 -49t47 -126q0 -60 -31 -103.5t-83 -60.5l129 -167h-139l-141 182v-182h-110v700zM303.5 278.5q22.5 20.5 22.5 52.5t-22.5 52.5t-56.5 20.5t-56.5 -20.5t-22.5 -52.5t22.5 -52.5t56.5 -20.5t56.5 20.5z" />
    <glyph glyph-name="uni0137.ss10" horiz-adv-x="470" 
d="M60 700l110 12v-235q15 12 41 20.5t52 8.5q78 0 125 -49t47 -126q0 -60 -31 -103.5t-83 -60.5l129 -167h-139l-141 182v-182h-110v700zM303.5 278.5q22.5 20.5 22.5 52.5t-22.5 52.5t-56.5 20.5t-56.5 -20.5t-22.5 -52.5t22.5 -52.5t56.5 -20.5t56.5 20.5zM90 -209
l100 167h120l-128 -220z" />
    <glyph glyph-name="u.ss11" horiz-adv-x="534" 
d="M156 18.5q-50 24.5 -79 74.5t-29 123v284h110v-276q0 -61 28.5 -93.5t80.5 -32.5t80.5 32.5t28.5 93.5v276h110v-284q0 -109 -61.5 -165.5t-157.5 -56.5q-61 0 -111 24.5z" />
    <glyph glyph-name="uacute.ss11" horiz-adv-x="534" 
d="M156 18.5q-50 24.5 -79 74.5t-29 123v284h110v-276q0 -61 28.5 -93.5t80.5 -32.5t80.5 32.5t28.5 93.5v276h110v-284q0 -109 -61.5 -165.5t-157.5 -56.5q-61 0 -111 24.5zM192 637l226 106l44 -90l-226 -106z" />
    <glyph glyph-name="ubreve.ss11" horiz-adv-x="534" 
d="M156 18.5q-50 24.5 -79 74.5t-29 123v284h110v-276q0 -61 28.5 -93.5t80.5 -32.5t80.5 32.5t28.5 93.5v276h110v-284q0 -109 -61.5 -165.5t-157.5 -56.5q-61 0 -111 24.5zM181 571.5q-40 21.5 -65.5 58.5t-30.5 82h103q6 -30 26 -49.5t53 -19.5t53 19.5t26 49.5h103
q-5 -45 -30.5 -82t-65.5 -58.5t-86 -21.5t-86 21.5z" />
    <glyph glyph-name="ucircumflex.ss11" horiz-adv-x="534" 
d="M156 18.5q-50 24.5 -79 74.5t-29 123v284h110v-276q0 -61 28.5 -93.5t80.5 -32.5t80.5 32.5t28.5 93.5v276h110v-284q0 -109 -61.5 -165.5t-157.5 -56.5q-61 0 -111 24.5zM84 602l183 183l183 -183l-66 -67l-117 117l-117 -117z" />
    <glyph glyph-name="udieresis.ss11" horiz-adv-x="534" 
d="M156 18.5q-50 24.5 -79 74.5t-29 123v284h110v-276q0 -61 28.5 -93.5t80.5 -32.5t80.5 32.5t28.5 93.5v276h110v-284q0 -109 -61.5 -165.5t-157.5 -56.5q-61 0 -111 24.5zM98.5 578q-21.5 22 -21.5 53t21.5 53t52.5 22t52.5 -22t21.5 -53t-21.5 -53t-52.5 -22t-52.5 22z
M329.5 578q-21.5 22 -21.5 53t21.5 53t52.5 22t52.5 -22t21.5 -53t-21.5 -53t-52.5 -22t-52.5 22z" />
    <glyph glyph-name="ugrave.ss11" horiz-adv-x="534" 
d="M156 18.5q-50 24.5 -79 74.5t-29 123v284h110v-276q0 -61 28.5 -93.5t80.5 -32.5t80.5 32.5t28.5 93.5v276h110v-284q0 -109 -61.5 -165.5t-157.5 -56.5q-61 0 -111 24.5zM72 653l44 90l226 -106l-44 -90z" />
    <glyph glyph-name="uhungarumlaut.ss11" horiz-adv-x="534" 
d="M156 18.5q-50 24.5 -79 74.5t-29 123v284h110v-276q0 -61 28.5 -93.5t80.5 -32.5t80.5 32.5t28.5 93.5v276h110v-284q0 -109 -61.5 -165.5t-157.5 -56.5q-61 0 -111 24.5zM23 625l197 152l63 -80l-197 -152zM250 625l197 152l63 -80l-197 -152z" />
    <glyph glyph-name="umacron.ss11" horiz-adv-x="534" 
d="M156 18.5q-50 24.5 -79 74.5t-29 123v284h110v-276q0 -61 28.5 -93.5t80.5 -32.5t80.5 32.5t28.5 93.5v276h110v-284q0 -109 -61.5 -165.5t-157.5 -56.5q-61 0 -111 24.5zM109 682h315v-100h-315v100z" />
    <glyph glyph-name="uogonek.ss11" horiz-adv-x="534" 
d="M486 500v-284q0 -93 -46 -148.5t-122 -68.5l-38 -93q-6 -14 -9.5 -24t-3.5 -19q0 -13 9.5 -22t29.5 -9h20v-82h-24q-55 0 -88 29t-33 76q0 24 15 60l34 81q-81 11 -131.5 67t-50.5 153v284h110v-276q0 -61 28.5 -93.5t80.5 -32.5t80.5 32.5t28.5 93.5v276h110z" />
    <glyph glyph-name="uring.ss11" horiz-adv-x="534" 
d="M156 18.5q-50 24.5 -79 74.5t-29 123v284h110v-276q0 -61 28.5 -93.5t80.5 -32.5t80.5 32.5t28.5 93.5v276h110v-284q0 -109 -61.5 -165.5t-157.5 -56.5q-61 0 -111 24.5zM196 579q-29 29 -29 71t29 71t71 29t71 -29t29 -71t-29 -71t-71 -29t-71 29zM287 630q8 8 8 20
t-8 20t-20 8t-20 -8t-8 -20t8 -20t20 -8t20 8z" />
    <glyph glyph-name="utilde.ss11" horiz-adv-x="534" 
d="M156 18.5q-50 24.5 -79 74.5t-29 123v284h110v-276q0 -61 28.5 -93.5t80.5 -32.5t80.5 32.5t28.5 93.5v276h110v-284q0 -109 -61.5 -165.5t-157.5 -56.5q-61 0 -111 24.5zM88 600q0 58 27.5 89t72.5 31q24 0 44 -7.5t42 -26.5l15 -12q14 -12 22.5 -17.5t17.5 -5.5
q12 0 18 7.5t6 20.5v41h92v-46q0 -58 -27.5 -89t-72.5 -31q-24 0 -44 7.5t-42 26.5l-15 12q-14 12 -22.5 17.5t-17.5 5.5q-12 0 -18 -7.5t-6 -20.5v-41h-92v46z" />
    <glyph glyph-name="w.ss12" horiz-adv-x="756" 
d="M24 500h106l97 -365l107 365h88l107 -365l97 365h106l-150 -500h-106l-98 331l-98 -331h-106z" />
    <glyph glyph-name="wacute.ss12" horiz-adv-x="756" 
d="M24 500h106l97 -365l107 365h88l107 -365l97 365h106l-150 -500h-106l-98 331l-98 -331h-106zM303 637l226 106l44 -90l-226 -106z" />
    <glyph glyph-name="wcircumflex.ss12" horiz-adv-x="756" 
d="M24 500h106l97 -365l107 365h88l107 -365l97 365h106l-150 -500h-106l-98 331l-98 -331h-106zM195 602l183 183l183 -183l-66 -67l-117 117l-117 -117z" />
    <glyph glyph-name="wdieresis.ss12" horiz-adv-x="756" 
d="M24 500h106l97 -365l107 365h88l107 -365l97 365h106l-150 -500h-106l-98 331l-98 -331h-106zM209.5 578q-21.5 22 -21.5 53t21.5 53t52.5 22t52.5 -22t21.5 -53t-21.5 -53t-52.5 -22t-52.5 22zM440.5 578q-21.5 22 -21.5 53t21.5 53t52.5 22t52.5 -22t21.5 -53
t-21.5 -53t-52.5 -22t-52.5 22z" />
    <glyph glyph-name="wgrave.ss12" horiz-adv-x="756" 
d="M24 500h106l97 -365l107 365h88l107 -365l97 365h106l-150 -500h-106l-98 331l-98 -331h-106zM183 653l44 90l226 -106l-44 -90z" />
    <glyph glyph-name="y.ss13" horiz-adv-x="524" 
d="M207 88l-183 412h115l123 -292l123 292h115l-332 -750h-114z" />
    <glyph glyph-name="yacute.ss13" horiz-adv-x="524" 
d="M207 88l-183 412h115l123 -292l123 292h115l-332 -750h-114zM187 637l226 106l44 -90l-226 -106z" />
    <glyph glyph-name="ycircumflex.ss13" horiz-adv-x="524" 
d="M207 88l-183 412h115l123 -292l123 292h115l-332 -750h-114zM79 602l183 183l183 -183l-66 -67l-117 117l-117 -117z" />
    <glyph glyph-name="ydieresis.ss13" horiz-adv-x="524" 
d="M207 88l-183 412h115l123 -292l123 292h115l-332 -750h-114zM93.5 578q-21.5 22 -21.5 53t21.5 53t52.5 22t52.5 -22t21.5 -53t-21.5 -53t-52.5 -22t-52.5 22zM324.5 578q-21.5 22 -21.5 53t21.5 53t52.5 22t52.5 -22t21.5 -53t-21.5 -53t-52.5 -22t-52.5 22z" />
    <glyph glyph-name="ygrave.ss13" horiz-adv-x="524" 
d="M207 88l-183 412h115l123 -292l123 292h115l-332 -750h-114zM67 653l44 90l226 -106l-44 -90z" />
    <glyph glyph-name="f_b" horiz-adv-x="971" 
d="M600 10q-37 16 -64 42v-52h-110v567q0 39 -25.5 66t-72.5 27q-50 0 -77 -27t-27 -66v-67h120v-104h-120v-396h-110v396h-100v104h100v69q0 65 30.5 109t79.5 65t104 21q52 0 100 -21.5t78 -65.5t30 -108v-121q24 26 63 42t84 16q74 0 130 -31.5t87 -89.5t31 -135
t-31 -135t-87 -89.5t-130 -31.5q-46 0 -83 16zM783 142.5q40 42.5 40 107.5t-40 107.5t-105 42.5q-64 0 -104 -42.5t-40 -107.5t40 -107.5t104 -42.5q65 0 105 42.5z" />
    <glyph glyph-name="f_f_b" horiz-adv-x="1283" 
d="M912 10q-37 16 -64 42v-52h-110v567q0 39 -25.5 66t-72.5 27q-50 0 -77 -27t-27 -66v-67h120v-104h-120v-396h-110v396h-202v-396h-110v396h-100v104h100v69q0 65 30.5 109t79.5 65t104 21q43 0 83.5 -14.5t69.5 -42.5q31 28 72.5 42.5t86.5 14.5q52 0 100 -21.5
t78 -65.5t30 -108v-121q24 26 63 42t84 16q74 0 130 -31.5t87 -89.5t31 -135t-31 -135t-87 -89.5t-130 -31.5q-46 0 -83 16zM426 500v67q0 39 -25.5 66t-72.5 27q-50 0 -77 -27t-27 -66v-67h202zM1095 142.5q40 42.5 40 107.5t-40 107.5t-105 42.5q-64 0 -104 -42.5
t-40 -107.5t40 -107.5t104 -42.5q65 0 105 42.5z" />
    <glyph glyph-name="f_f_h" horiz-adv-x="1239" 
d="M114 396h-100v104h100v69q0 65 30.5 109t79.5 65t104 21q43 0 83.5 -14.5t69.5 -42.5q31 28 72.5 42.5t86.5 14.5q52 0 100 -21.5t78 -65.5t30 -108v-126q24 29 60.5 46t82.5 17q90 0 141 -53.5t51 -152.5v-300h-110v276q0 60 -27 93t-82 33q-53 0 -84.5 -35.5
t-31.5 -90.5v-276h-110v567q0 39 -25.5 66t-72.5 27q-50 0 -77 -27t-27 -66v-67h120v-104h-120v-396h-110v396h-202v-396h-110v396zM426 500v67q0 39 -25.5 66t-72.5 27q-50 0 -77 -27t-27 -66v-67h202z" />
    <glyph glyph-name="f_f_j" horiz-adv-x="912" 
d="M742 396h-210v-396h-110v396h-210v-396h-110v396h-88v104h88v66q0 66 42 103t103 37q44 0 74 -12.5t50 -40.5l-73 -74q-7 10 -16.5 16.5t-26.5 6.5q-21 0 -32 -13t-11 -30v-59h210v66q0 66 42 103t103 37q44 0 74 -12.5t50 -40.5l-73 -74q-7 10 -16.5 16.5t-26.5 6.5
q-21 0 -32 -13t-11 -30v-59h320v-750l-110 -12v658zM744.5 578q-21.5 22 -21.5 53t21.5 53t52.5 22t52.5 -22t21.5 -53t-21.5 -53t-52.5 -22t-52.5 22z" />
    <glyph glyph-name="f_f_k" horiz-adv-x="1199" 
d="M114 396h-100v104h100v69q0 65 30.5 109t79.5 65t104 21q43 0 83.5 -14.5t69.5 -42.5q31 28 72.5 42.5t86.5 14.5q52 0 100 -21.5t78 -65.5t30 -108v-238l114 169h126l-105 -150l208 -350h-125l-151 255l-67 -97v-158h-110v567q0 39 -25.5 66t-72.5 27q-50 0 -77 -27
t-27 -66v-67h120v-104h-120v-396h-110v396h-202v-396h-110v396zM426 500v67q0 39 -25.5 66t-72.5 27q-50 0 -77 -27t-27 -66v-67h202z" />
    <glyph glyph-name="f_h" horiz-adv-x="927" 
d="M114 396h-100v104h100v69q0 65 30.5 109t79.5 65t104 21q52 0 100 -21.5t78 -65.5t30 -108v-126q24 29 60.5 46t82.5 17q90 0 141 -53.5t51 -152.5v-300h-110v276q0 60 -27 93t-82 33q-53 0 -84.5 -35.5t-31.5 -90.5v-276h-110v567q0 39 -25.5 66t-72.5 27q-50 0 -77 -27
t-27 -66v-67h120v-104h-120v-396h-110v396z" />
    <glyph glyph-name="f_j" horiz-adv-x="592" 
d="M422 396h-210v-396h-110v396h-88v104h88v66q0 66 42 103t103 37q44 0 74 -12.5t50 -40.5l-73 -74q-7 10 -16.5 16.5t-26.5 6.5q-21 0 -32 -13t-11 -30v-59h320v-750l-110 -12v658zM424.5 578q-21.5 22 -21.5 53t21.5 53t52.5 22t52.5 -22t21.5 -53t-21.5 -53t-52.5 -22
t-52.5 22z" />
    <glyph glyph-name="f_k" horiz-adv-x="887" 
d="M114 396h-100v104h100v69q0 65 30.5 109t79.5 65t104 21q52 0 100 -21.5t78 -65.5t30 -108v-238l114 169h126l-105 -150l208 -350h-125l-151 255l-67 -97v-158h-110v567q0 39 -25.5 66t-72.5 27q-50 0 -77 -27t-27 -66v-67h120v-104h-120v-396h-110v396z" />
    <glyph glyph-name="f_f_i.ss01" horiz-adv-x="900" 
d="M102 396h-88v104h88v66q0 66 42 103t103 37q44 0 74 -12.5t50 -40.5l-73 -74q-7 10 -16.5 16.5t-26.5 6.5q-21 0 -32 -13t-11 -30v-59h210v66q0 66 42 103t103 37q44 0 74 -12.5t50 -40.5l-73 -74q-7 10 -16.5 16.5t-26.5 6.5q-21 0 -32 -13t-11 -30v-59h320v-500h-110
v396h-210v-396h-110v396h-210v-396h-110v396zM735 700h124v-124h-124v124z" />
    <glyph glyph-name="f_f_j.ss01" horiz-adv-x="900" 
d="M742 396h-210v-396h-110v396h-210v-396h-110v396h-88v104h88v66q0 66 42 103t103 37q44 0 74 -12.5t50 -40.5l-73 -74q-7 10 -16.5 16.5t-26.5 6.5q-21 0 -32 -13t-11 -30v-59h210v66q0 66 42 103t103 37q44 0 74 -12.5t50 -40.5l-73 -74q-7 10 -16.5 16.5t-26.5 6.5
q-21 0 -32 -13t-11 -30v-59h320v-750l-110 -12v658zM735 700h124v-124h-124v124z" />
    <glyph glyph-name="f_i.ss01" horiz-adv-x="580" 
d="M102 396h-88v104h88v66q0 66 42 103t103 37q44 0 74 -12.5t50 -40.5l-73 -74q-7 10 -16.5 16.5t-26.5 6.5q-21 0 -32 -13t-11 -30v-59h320v-500h-110v396h-210v-396h-110v396zM415 700h124v-124h-124v124z" />
    <glyph glyph-name="f_j.ss01" horiz-adv-x="580" 
d="M422 396h-210v-396h-110v396h-88v104h88v66q0 66 42 103t103 37q44 0 74 -12.5t50 -40.5l-73 -74q-7 10 -16.5 16.5t-26.5 6.5q-21 0 -32 -13t-11 -30v-59h320v-750l-110 -12v658zM415 700h124v-124h-124v124z" />
    <glyph glyph-name="fi.ss01" horiz-adv-x="580" 
d="M102 396h-88v104h88v66q0 66 42 103t103 37q44 0 74 -12.5t50 -40.5l-73 -74q-7 10 -16.5 16.5t-26.5 6.5q-21 0 -32 -13t-11 -30v-59h320v-500h-110v396h-210v-396h-110v396zM415 700h124v-124h-124v124z" />
    <glyph glyph-name="f_f_j.ss05" horiz-adv-x="912" 
d="M602 -234.5q-38 21.5 -59 59t-21 84.5h110q0 -29 15 -45t40 -16t40 16t15 45v487h-210v-396h-110v396h-210v-396h-110v396h-88v104h88v66q0 66 42 103t103 37q44 0 74 -12.5t50 -40.5l-73 -74q-7 10 -16.5 16.5t-26.5 6.5q-21 0 -32 -13t-11 -30v-59h210v66q0 66 42 103
t103 37q44 0 74 -12.5t50 -40.5l-73 -74q-7 10 -16.5 16.5t-26.5 6.5q-21 0 -32 -13t-11 -30v-59h320v-591q0 -47 -21 -84.5t-59 -59t-85 -21.5t-85 21.5zM744.5 578q-21.5 22 -21.5 53t21.5 53t52.5 22t52.5 -22t21.5 -53t-21.5 -53t-52.5 -22t-52.5 22z" />
    <glyph glyph-name="f_j.ss05" horiz-adv-x="592" 
d="M282 -234.5q-38 21.5 -59 59t-21 84.5h110q0 -29 15 -45t40 -16t40 16t15 45v487h-210v-396h-110v396h-88v104h88v66q0 66 42 103t103 37q44 0 74 -12.5t50 -40.5l-73 -74q-7 10 -16.5 16.5t-26.5 6.5q-21 0 -32 -13t-11 -30v-59h320v-591q0 -47 -21 -84.5t-59 -59
t-85 -21.5t-85 21.5zM424.5 578q-21.5 22 -21.5 53t21.5 53t52.5 22t52.5 -22t21.5 -53t-21.5 -53t-52.5 -22t-52.5 22z" />
    <glyph glyph-name="f_f_j.ss01.ss05" horiz-adv-x="900" 
d="M602 -234.5q-38 21.5 -59 59t-21 84.5h110q0 -29 15 -45t40 -16t40 16t15 45v487h-210v-396h-110v396h-210v-396h-110v396h-88v104h88v66q0 66 42 103t103 37q44 0 74 -12.5t50 -40.5l-73 -74q-7 10 -16.5 16.5t-26.5 6.5q-21 0 -32 -13t-11 -30v-59h210v66q0 66 42 103
t103 37q44 0 74 -12.5t50 -40.5l-73 -74q-7 10 -16.5 16.5t-26.5 6.5q-21 0 -32 -13t-11 -30v-59h320v-591q0 -47 -21 -84.5t-59 -59t-85 -21.5t-85 21.5zM735 700h124v-124h-124v124z" />
    <glyph glyph-name="f_j.ss01.ss05" horiz-adv-x="580" 
d="M282 -234.5q-38 21.5 -59 59t-21 84.5h110q0 -29 15 -45t40 -16t40 16t15 45v487h-210v-396h-110v396h-88v104h88v66q0 66 42 103t103 37q44 0 74 -12.5t50 -40.5l-73 -74q-7 10 -16.5 16.5t-26.5 6.5q-21 0 -32 -13t-11 -30v-59h320v-591q0 -47 -21 -84.5t-59 -59
t-85 -21.5t-85 21.5zM415 700h124v-124h-124v124z" />
    </font>
</defs>
</svg>
